<?xml version="1.0" encoding="utf-8"?>
<!-- Generator: Adobe Illustrator 23.0.0, SVG Export Plug-In . SVG Version: 6.00 Build 0)  -->
<svg version="1.1" id="레이어_1" xmlns="http://www.w3.org/2000/svg" xmlns:xlink="http://www.w3.org/1999/xlink" x="0px"
	 y="0px" viewBox="0 0 1893.3 1070" style="enable-background:new 0 0 1893.3 1070;" xml:space="preserve">
<style type="text/css">
	.st0{clip-path:url(#SVGID_2_);fill:#262251;}
	.st1{opacity:0.23;}
	.st2{clip-path:url(#SVGID_4_);}
	.st3{fill:none;stroke:#FEFF30;stroke-width:0.1642;stroke-miterlimit:10;}
	.st4{fill:none;stroke:#FEFF30;stroke-width:0.176;stroke-miterlimit:10;}
	.st5{fill:#FFE700;stroke:#FEFF30;stroke-miterlimit:10;}
	.st6{clip-path:url(#SVGID_6_);}
	.st7{fill:none;stroke:#FEFF30;stroke-miterlimit:10;}
	.st8{clip-path:url(#SVGID_8_);}
</style>
<g>
	<g>
		<defs>
			<rect id="SVGID_1_" x="-1.7" y="-1.7" width="1898.1" height="1071.4"/>
		</defs>
		<clipPath id="SVGID_2_">
			<use xlink:href="#SVGID_1_"  style="overflow:visible;"/>
		</clipPath>
		<rect x="-1.7" y="-1.7" class="st0" width="1898.1" height="1071.4"/>
	</g>
	<g class="st1">
		<defs>
			<rect id="SVGID_3_" x="-1.7" y="-1.7" class="st1" width="1898.1" height="1071.4"/>
		</defs>
		<clipPath id="SVGID_4_">
			<use xlink:href="#SVGID_3_"  style="overflow:visible;"/>
		</clipPath>
		<g class="st2">
			<polygon class="st3" points="737.1,222.1 447.8,-158.6 -26.5,-98.4 -211.5,342.5 77.8,723.2 552.1,663 			"/>
			<line class="st4" x1="618.3" y1="501" x2="-211.5" y2="342.5"/>
			<line class="st4" x1="209.4" y1="-128.5" x2="553.8" y2="-15"/>
			<line class="st4" x1="-129.3" y1="145.5" x2="737.1" y2="222.1"/>
			<line class="st4" x1="209.4" y1="-128.5" x2="-211.5" y2="342.5"/>
			<line class="st4" x1="445.3" y1="674.8" x2="732.1" y2="230.8"/>
			<line class="st4" x1="-129.3" y1="145.5" x2="77.8" y2="723.2"/>
			<line class="st4" x1="312.8" y1="-142.5" x2="552.1" y2="663"/>
			<polygon class="st5" points="76.7,723.1 203.2,-129.5 215.6,-127.6 78.8,723.4 			"/>
			<polygon class="st5" points="210.4,-128.7 325.7,690.5 313.2,692.1 208.3,-128.4 			"/>
			<polygon class="st5" points="-211.7,341.5 736.3,215.9 737.9,228.3 -211.4,343.6 			"/>
			<polygon class="st5" points="736.4,222.9 308.7,-137.7 316.9,-147.3 737.8,221.3 			"/>
			<polygon class="st5" points="554.7,-14.4 83,726.6 72.5,719.8 552.9,-15.5 			"/>
			<polygon class="st5" points="617.5,501.7 -30.8,-93.8 -22.3,-103 619,500.2 			"/>
			<polygon class="st5" points="318.7,690.6 727.4,226.6 736.8,235 320.2,692 			"/>
			<polygon class="st5" points="76.8,722.8 442,-161 453.6,-156.1 78.7,723.6 			"/>
			<polygon class="st5" points="-129.8,144.5 444.9,-164.1 450.7,-153 -128.8,146.4 			"/>
			<line class="st4" x1="552.1" y1="663" x2="553.8" y2="-15"/>
			<g>
				<g>
					<path class="st5" d="M446.9,575.4c11-3,17.5-14.3,14.5-25.3s-14.3-17.5-25.3-14.5s-17.5,14.3-14.5,25.3
						S435.9,578.3,446.9,575.4z"/>
					<path class="st5" d="M742.5,242c11-3,17.5-14.3,14.5-25.3s-14.3-17.5-25.3-14.5s-17.5,14.3-14.5,25.3S731.5,244.9,742.5,242z"
						/>
					<path class="st5" d="M324.9,711.2c11-3,17.5-14.3,14.5-25.3s-14.3-17.5-25.3-14.5s-17.5,14.3-14.5,25.3
						S313.9,714.2,324.9,711.2z"/>
					<path class="st5" d="M622.1,515.1c7.8-2.1,12.5-10.2,10.3-18c-2.1-7.8-10.2-12.5-18-10.3c-7.8,2.1-12.5,10.2-10.3,18
						C606.2,512.6,614.3,517.3,622.1,515.1z"/>
					<path class="st5" d="M555.9,677.2c7.8-2.1,12.5-10.2,10.3-18c-2.1-7.8-10.2-12.5-18-10.3c-7.8,2.1-12.5,10.2-10.3,18
						C540,674.7,548.1,679.3,555.9,677.2z"/>
					<path class="st5" d="M267.4,299.5c11-3,17.5-14.3,14.5-25.3s-14.3-17.5-25.3-14.5S239.1,274,242.1,285
						C245.2,296,256.5,302.5,267.4,299.5z"/>
					<path class="st5" d="M310.2,196.2c7.8-2.1,12.5-10.2,10.3-18s-10.2-12.5-18-10.3c-7.8,2.1-12.5,10.2-10.3,18
						C294.3,193.7,302.4,198.4,310.2,196.2z"/>
					<path class="st5" d="M509.4,501.2c11-3,17.5-14.3,14.5-25.3s-14.3-17.5-25.3-14.5s-17.5,14.3-14.5,25.3
						C487.1,497.7,498.4,504.2,509.4,501.2z"/>
					<path class="st5" d="M556.8,80c7.8-2.1,12.5-10.2,10.3-18c-2.1-7.8-10.2-12.5-18-10.3c-7.8,2.1-12.5,10.2-10.3,18
						C540.8,77.5,548.9,82.1,556.8,80z"/>
					<path class="st5" d="M181.5,578.9c7.8-2.1,12.5-10.2,10.3-18c-2.1-7.8-10.2-12.5-18-10.3c-7.8,2.1-12.5,10.2-10.3,18
						C165.6,576.4,173.7,581,181.5,578.9z"/>
					<path class="st5" d="M83.2,743.1c11-3,17.5-14.3,14.5-25.3s-14.3-17.5-25.3-14.5s-17.5,14.3-14.5,25.3
						C60.9,739.6,72.2,746.1,83.2,743.1z"/>
					<path class="st5" d="M30,592.8c7.8-2.1,12.5-10.2,10.3-18c-2.1-7.8-10.2-12.5-18-10.3c-7.8,2.1-12.5,10.2-10.3,18
						C14.1,590.3,22.1,594.9,30,592.8z"/>
					<path class="st5" d="M453.2-138.7c11-3,17.5-14.3,14.5-25.3s-14.3-17.5-25.3-14.5s-17.5,14.3-14.5,25.3
						C430.9-142.2,442.2-135.7,453.2-138.7z"/>
					<path class="st5" d="M558.6,267.3c11-3,17.5-14.3,14.5-25.3s-14.3-17.5-25.3-14.5s-17.5,14.3-14.5,25.3
						C536.4,263.7,547.7,270.2,558.6,267.3z"/>
					<path class="st5" d="M668.6,396c3.1-0.8,5-4.1,4.1-7.2c-0.8-3.1-4.1-5-7.2-4.1c-3.1,0.8-5,4.1-4.1,7.2S665.5,396.9,668.6,396z"
						/>
					<path class="st5" d="M214.7-108.7c11-3,17.5-14.3,14.5-25.3s-14.3-17.5-25.3-14.5s-17.5,14.3-14.5,25.3
						C192.5-112.2,203.8-105.7,214.7-108.7z"/>
					<path class="st5" d="M553.7,353.9c3.1-0.8,5-4.1,4.1-7.2c-0.8-3.1-4.1-5-7.2-4.1c-3.1,0.8-5,4.1-4.1,7.2
						S550.6,354.8,553.7,353.9z"/>
					<path class="st5" d="M89,170.2c3.1-0.8,5-4.1,4.1-7.2c-0.9-3.1-4.1-5-7.2-4.1c-3.1,0.8-5,4.1-4.1,7.2
						C82.6,169.2,85.8,171.1,89,170.2z"/>
					<path class="st5" d="M382.9,101.8c3.1-0.8,5-4.1,4.1-7.2s-4.1-5-7.2-4.1c-3.1,0.8-5,4.1-4.1,7.2
						C376.5,100.8,379.7,102.6,382.9,101.8z"/>
					<path class="st5" d="M198.3,714.4c3.1-0.8,5-4.1,4.1-7.2c-0.8-3.1-4.1-5-7.2-4.1c-3.1,0.8-5,4.1-4.1,7.2
						C191.9,713.4,195.1,715.3,198.3,714.4z"/>
					<path class="st5" d="M-39,162.4c6.3-1.7,10-8.2,8.3-14.4c-1.7-6.3-8.2-10-14.4-8.3c-6.3,1.7-10,8.2-8.3,14.4
						C-51.7,160.4-45.2,164.1-39,162.4z"/>
					<path class="st5" d="M272.7-103c3.1-0.8,5-4.1,4.1-7.2c-0.8-3.1-4.1-5-7.2-4.1c-3.1,0.8-5,4.1-4.1,7.2
						C266.3-104,269.5-102.1,272.7-103z"/>
					<path class="st5" d="M555.3-9.3c3.1-0.8,5-4.1,4.1-7.2c-0.8-3.1-4.1-5-7.2-4.1c-3.1,0.8-5,4.1-4.1,7.2S552.2-8.4,555.3-9.3z"/>
					<path class="st5" d="M356.1,456.6c3.1-0.8,5-4.1,4.1-7.2s-4.1-5-7.2-4.1c-3.1,0.8-5,4.1-4.1,7.2S353,457.4,356.1,456.6z"/>
					<path class="st5" d="M601.9,45.8c3.1-0.8,5-4.1,4.1-7.2c-0.8-3.1-4.1-5-7.2-4.1c-3.1,0.8-5,4.1-4.1,7.2
						C595.6,44.8,598.8,46.7,601.9,45.8z"/>
					<path class="st5" d="M-123.7,464.6c6.3-1.7,10-8.2,8.3-14.4c-1.7-6.3-8.2-10-14.4-8.3c-6.3,1.7-10,8.2-8.3,14.4
						C-136.4,462.6-130,466.3-123.7,464.6z"/>
					<path class="st5" d="M265.2,709.2c6.3-1.7,10-8.2,8.3-14.4c-1.7-6.3-8.2-10-14.4-8.3c-6.3,1.7-10,8.2-8.3,14.4
						C252.5,707.2,259,710.9,265.2,709.2z"/>
					<path class="st5" d="M448.4,686.1c6.3-1.7,10-8.2,8.3-14.4c-1.7-6.3-8.2-10-14.4-8.3c-6.3,1.7-10,8.2-8.3,14.4
						C435.6,684.1,442.1,687.8,448.4,686.1z"/>
					<path class="st5" d="M596.3,220.9c6.3-1.7,10-8.2,8.3-14.4c-1.7-6.3-8.2-10-14.4-8.3c-6.3,1.7-10,8.2-8.3,14.4
						C583.6,218.9,590.1,222.6,596.3,220.9z"/>
					<path class="st5" d="M484.7-100.8c7.8-2.1,12.5-10.2,10.3-18c-2.1-7.8-10.2-12.5-18-10.3c-7.8,2.2-12.5,10.2-10.3,18
						C468.8-103.3,476.9-98.6,484.7-100.8z"/>
					<path class="st5" d="M-126.2,156.8c6.3-1.7,10-8.2,8.3-14.4c-1.7-6.3-8.2-10-14.4-8.3c-6.3,1.7-10,8.2-8.3,14.4
						C-138.9,154.8-132.5,158.5-126.2,156.8z"/>
					<path class="st5" d="M317.4-130.9c6.3-1.7,10-8.2,8.3-14.4c-1.7-6.3-8.2-10-14.4-8.3c-6.3,1.7-10,8.2-8.3,14.4
						S311.1-129.2,317.4-130.9z"/>
					<path class="st5" d="M456,156.7c6.3-1.7,10-8.2,8.3-14.4c-1.7-6.3-8.2-10-14.4-8.3c-6.3,1.7-10,8.2-8.3,14.4
						C443.3,154.7,449.7,158.4,456,156.7z"/>
					<path class="st5" d="M50.6,64c6.3-1.7,10-8.2,8.3-14.4c-1.7-6.3-8.2-10-14.4-8.3c-6.3,1.7-10,8.2-8.3,14.4
						C37.8,62,44.3,65.7,50.6,64z"/>
					<path class="st5" d="M552.9,212.9c4.7-1.3,7.5-6.1,6.2-10.8s-6.1-7.5-10.8-6.2s-7.5,6.1-6.2,10.8
						C543.3,211.4,548.2,214.2,552.9,212.9z"/>
					<path class="st5" d="M-91,71.5c6.3-1.7,10-8.2,8.3-14.4c-1.7-6.3-8.2-10-14.4-8.3c-6.3,1.7-10,8.2-8.3,14.4
						C-103.7,69.5-97.3,73.2-91,71.5z"/>
					<path class="st5" d="M145,312.6c7.8-2.1,12.5-10.2,10.3-18c-2.1-7.8-10.2-12.5-18-10.3c-7.8,2.1-12.5,10.2-10.3,18
						C129.1,310.1,137.2,314.7,145,312.6z"/>
					<path class="st5" d="M-100.3,233.1c7.8-2.1,12.5-10.2,10.3-18c-2.1-7.8-10.2-12.5-18-10.3c-7.8,2.1-12.5,10.2-10.3,18
						C-116.2,230.6-108.1,235.2-100.3,233.1z"/>
					<path class="st5" d="M-44.9,381.6c4.7-1.3,7.5-6.1,6.2-10.8c-1.3-4.7-6.1-7.5-10.8-6.2s-7.5,6.1-6.2,10.8
						C-54.5,380.1-49.6,382.9-44.9,381.6z"/>
					<path class="st5" d="M-207.7,356.7c7.8-2.1,12.5-10.2,10.3-18c-2.1-7.8-10.2-12.5-18-10.3c-7.8,2.1-12.5,10.2-10.3,18
						C-223.6,354.2-215.5,358.9-207.7,356.7z"/>
					<path class="st5" d="M420.2,206.3c6.3-1.7,10-8.2,8.3-14.4c-1.7-6.3-8.2-10-14.4-8.3c-6.3,1.7-10,8.2-8.3,14.4
						C407.5,204.3,413.9,208,420.2,206.3z"/>
					<ellipse class="st5" cx="72.2" cy="-110.2" rx="11.8" ry="11.8"/>
					<path class="st5" d="M178.1,494.8c4.7-1.3,7.5-6.1,6.2-10.8c-1.3-4.7-6.1-7.5-10.8-6.2s-7.5,6.1-6.2,10.8
						C168.6,493.3,173.4,496.1,178.1,494.8z"/>
					<path class="st5" d="M463.5,375.5c11-3,17.5-14.3,14.5-25.3s-14.3-17.5-25.3-14.5S435.2,350,438.2,361
						C441.3,372,452.6,378.5,463.5,375.5z"/>
					<path class="st5" d="M-21.1-78.5c11-3,17.5-14.3,14.5-25.3s-14.3-17.5-25.3-14.5S-49.4-104-46.4-93S-32.1-75.5-21.1-78.5z"/>
				</g>
			</g>
		</g>
	</g>
	<g class="st1">
		<defs>
			<rect id="SVGID_5_" x="-1.7" y="-1.7" class="st1" width="1898.1" height="1071.4"/>
		</defs>
		<clipPath id="SVGID_6_">
			<use xlink:href="#SVGID_5_"  style="overflow:visible;"/>
		</clipPath>
		<g class="st6">
			<polygon class="st7" points="1890.8,977.9 1890.8,671.4 1625.3,518.2 1359.9,671.4 1359.9,977.9 1625.3,1131.2 			"/>
			<line class="st7" x1="1722" y1="1074.1" x2="1359.9" y2="671.4"/>
			<line class="st7" x1="1757.4" y1="594.3" x2="1889.2" y2="785.8"/>
			<line class="st7" x1="1478.3" y1="602.7" x2="1890.8" y2="977.9"/>
			<line class="st7" x1="1757.4" y1="594.3" x2="1359.9" y2="671.4"/>
			<line class="st7" x1="1566.3" y1="1095.7" x2="1884.9" y2="980.4"/>
			<line class="st7" x1="1478.3" y1="602.7" x2="1359.9" y2="977.9"/>
			<line class="st7" x1="1815.7" y1="627.2" x2="1625.3" y2="1131.2"/>
			<polygon class="st5" points="1359.4,977.4 1754.6,591.4 1760.2,597.1 1360.4,978.4 			"/>
			<polygon class="st5" points="1758,594.6 1499.1,1057.4 1492.1,1053.4 1756.9,593.9 			"/>
			<polygon class="st5" points="1360.2,670.8 1892.8,974.4 1888.8,981.4 1359.6,672 			"/>
			<polygon class="st5" points="1890.1,978 1811.7,628.1 1819.6,626.4 1891.4,977.8 			"/>
			<polygon class="st5" points="1889.4,786.4 1361.3,981.7 1358.5,974.1 1889,785.2 			"/>
			<polygon class="st5" points="1721.3,1074.2 1621.4,518.8 1629.3,517.5 1722.6,1074 			"/>
			<polygon class="st5" points="1495.5,1054.7 1884.1,976.5 1885.6,984.4 1495.8,1056 			"/>
			<polygon class="st5" points="1359.6,977.3 1888.8,667.9 1892.8,674.9 1360.2,978.5 			"/>
			<polygon class="st5" points="1478.4,602.1 1891.4,667.4 1890.1,675.4 1478.2,603.4 			"/>
			<line class="st7" x1="1625.3" y1="1131.2" x2="1889.2" y2="785.8"/>
			<g>
				<g>
					<path class="st5" d="M1605.6,1045.6c6.8,2.7,14.4-0.5,17.2-7.3c2.7-6.8-0.5-14.4-7.3-17.2c-6.8-2.7-14.4,0.5-17.2,7.3
						C1595.6,1035.2,1598.9,1042.9,1605.6,1045.6z"/>
					<path class="st5" d="M1885.8,990.1c6.8,2.7,14.4-0.5,17.2-7.3c2.7-6.8-0.5-14.4-7.3-17.2c-6.8-2.7-14.4,0.5-17.2,7.3
						C1875.8,979.7,1879.1,987.4,1885.8,990.1z"/>
					<path class="st5" d="M1490.7,1067.6c6.8,2.7,14.4-0.5,17.2-7.3c2.7-6.8-0.5-14.4-7.3-17.2c-6.8-2.7-14.4,0.5-17.2,7.3
						C1480.7,1057.2,1483.9,1064.9,1490.7,1067.6z"/>
					<path class="st5" d="M1718.4,1082.9c4.8,2,10.3-0.4,12.3-5.2c2-4.8-0.4-10.3-5.2-12.3c-4.8-2-10.3,0.4-12.3,5.2
						C1711.3,1075.4,1713.6,1080.9,1718.4,1082.9z"/>
					<path class="st5" d="M1621.8,1139.9c4.8,2,10.3-0.4,12.3-5.2c2-4.8-0.4-10.3-5.2-12.3c-4.8-2-10.3,0.4-12.3,5.2
						C1614.7,1132.4,1617,1137.9,1621.8,1139.9z"/>
					<path class="st5" d="M1621.1,835.2c6.8,2.7,14.4-0.5,17.2-7.3c2.7-6.8-0.5-14.4-7.3-17.2c-6.8-2.7-14.4,0.5-17.2,7.3
						C1611.1,824.8,1614.3,832.5,1621.1,835.2z"/>
					<path class="st5" d="M1683,799.1c4.8,2,10.3-0.4,12.3-5.2s-0.4-10.3-5.2-12.3c-4.8-2-10.3,0.4-12.3,5.2
						C1675.8,791.7,1678.1,797.2,1683,799.1z"/>
					<path class="st5" d="M1666.3,1032c6.8,2.7,14.4-0.5,17.2-7.3c2.7-6.8-0.5-14.4-7.3-17.2c-6.8-2.7-14.4,0.5-17.2,7.3
						C1656.3,1021.6,1659.6,1029.3,1666.3,1032z"/>
					<path class="st5" d="M1853.9,835.4c4.8,2,10.3-0.4,12.3-5.2s-0.4-10.3-5.2-12.3c-4.8-2-10.3,0.4-12.3,5.2
						C1846.7,828,1849,833.5,1853.9,835.4z"/>
					<path class="st5" d="M1468.8,944.5c4.8,2,10.3-0.4,12.3-5.2s-0.4-10.3-5.2-12.3c-4.8-2-10.3,0.4-12.3,5.2
						C1461.7,937,1464,942.5,1468.8,944.5z"/>
					<path class="st5" d="M1354.9,990.1c6.8,2.7,14.4-0.5,17.2-7.3c2.7-6.8-0.5-14.4-7.3-17.2c-6.8-2.7-14.4,0.5-17.2,7.3
						C1344.9,979.7,1348.2,987.4,1354.9,990.1z"/>
					<path class="st5" d="M1386.1,892.8c4.8,2,10.3-0.4,12.3-5.2s-0.4-10.3-5.2-12.3c-4.8-2-10.3,0.4-12.3,5.2
						S1381.3,890.8,1386.1,892.8z"/>
					<path class="st5" d="M1885.8,683.6c6.8,2.7,14.4-0.5,17.2-7.3c2.7-6.8-0.5-14.4-7.3-17.2c-6.8-2.7-14.4,0.5-17.2,7.3
						C1875.8,673.2,1879.1,680.9,1885.8,683.6z"/>
					<path class="st5" d="M1782.2,931.7c6.8,2.7,14.4-0.5,17.2-7.3c2.7-6.8-0.5-14.4-7.3-17.2c-6.8-2.7-14.4,0.5-17.2,7.3
						C1772.2,921.3,1775.4,929,1782.2,931.7z"/>
					<path class="st5" d="M1788.4,1040.1c1.9,0.8,4.1-0.1,4.9-2.1c0.8-1.9-0.1-4.1-2.1-4.9c-1.9-0.8-4.1,0.1-4.9,2.1
						S1786.4,1039.3,1788.4,1040.1z"/>
					<path class="st5" d="M1752.5,606.5c6.8,2.7,14.4-0.5,17.2-7.3c2.7-6.8-0.5-14.4-7.3-17.2c-6.8-2.7-14.4,0.5-17.2,7.3
						C1742.5,596,1745.7,603.7,1752.5,606.5z"/>
					<path class="st5" d="M1746.1,974.1c1.9,0.8,4.1-0.1,4.9-2.1c0.8-1.9-0.1-4.1-2.1-4.9c-1.9-0.8-4.1,0.1-4.9,2.1
						C1743.2,971.1,1744.1,973.3,1746.1,974.1z"/>
					<path class="st5" d="M1580.1,700c1.9,0.8,4.1-0.1,4.9-2.1c0.8-1.9-0.1-4.1-2.1-4.9c-1.9-0.8-4.1,0.1-4.9,2.1
						C1577.3,697,1578.2,699.2,1580.1,700z"/>
					<path class="st5" d="M1756.7,779.1c1.9,0.8,4.1-0.1,4.9-2.1c0.8-1.9-0.1-4.1-2.1-4.9c-1.9-0.8-4.1,0.1-4.9,2.1
						C1753.8,776.1,1754.7,778.3,1756.7,779.1z"/>
					<path class="st5" d="M1424.8,1020.2c1.9,0.8,4.1-0.1,4.9-2.1c0.8-1.9-0.1-4.1-2.1-4.9c-1.9-0.8-4.1,0.1-4.9,2.1
						C1421.9,1017.2,1422.9,1019.4,1424.8,1020.2z"/>
					<path class="st5" d="M1517.9,646.4c3.9,1.6,8.3-0.3,9.8-4.2c1.6-3.9-0.3-8.3-4.2-9.8c-3.9-1.6-8.3,0.3-9.8,4.2
						C1512.1,640.5,1514,644.9,1517.9,646.4z"/>
					<path class="st5" d="M1779.8,631.8c1.9,0.8,4.1-0.1,4.9-2.1c0.8-1.9-0.1-4.1-2.1-4.9c-1.9-0.8-4.1,0.1-4.9,2.1
						C1777,628.9,1777.9,631.1,1779.8,631.8z"/>
					<path class="st5" d="M1887.8,789.3c1.9,0.8,4.1-0.1,4.9-2.1c0.8-1.9-0.1-4.1-2.1-4.9c-1.9-0.8-4.1,0.1-4.9,2.1
						C1884.9,786.3,1885.8,788.5,1887.8,789.3z"/>
					<path class="st5" d="M1605.4,949.8c1.9,0.8,4.1-0.1,4.9-2.1c0.8-1.9-0.1-4.1-2.1-4.9c-1.9-0.8-4.1,0.1-4.9,2.1
						C1602.5,946.8,1603.5,949,1605.4,949.8z"/>
					<path class="st5" d="M1890.2,835.5c1.9,0.8,4.1-0.1,4.9-2.1c0.8-1.9-0.1-4.1-2.1-4.9c-1.9-0.8-4.1,0.1-4.9,2.1
						C1887.3,832.5,1888.2,834.7,1890.2,835.5z"/>
					<path class="st5" d="M1357.4,767.8c3.9,1.6,8.3-0.3,9.8-4.2c1.6-3.9-0.3-8.3-4.2-9.8c-3.9-1.6-8.3,0.3-9.8,4.2
						C1351.7,761.8,1353.5,766.2,1357.4,767.8z"/>
					<path class="st5" d="M1461,1043.5c3.9,1.6,8.3-0.3,9.8-4.2c1.6-3.9-0.3-8.3-4.2-9.8c-3.9-1.6-8.3,0.3-9.8,4.2
						C1455.3,1037.5,1457.1,1041.9,1461,1043.5z"/>
					<path class="st5" d="M1563.4,1102.7c3.9,1.6,8.3-0.3,9.8-4.2c1.6-3.9-0.3-8.3-4.2-9.8c-3.9-1.6-8.3,0.3-9.8,4.2
						C1557.7,1096.8,1559.6,1101.2,1563.4,1102.7z"/>
					<path class="st5" d="M1819.4,922.7c3.9,1.6,8.3-0.3,9.8-4.2c1.6-3.9-0.3-8.3-4.2-9.8c-3.9-1.6-8.3,0.3-9.8,4.2
						C1813.7,916.7,1815.5,921.1,1819.4,922.7z"/>
					<path class="st5" d="M1887.2,715.2c4.8,2,10.3-0.4,12.3-5.2s-0.4-10.3-5.2-12.3s-10.3,0.4-12.3,5.2
						C1880,707.8,1882.4,713.3,1887.2,715.2z"/>
					<path class="st5" d="M1475.5,609.7c3.9,1.6,8.3-0.3,9.8-4.2c1.6-3.9-0.3-8.3-4.2-9.8c-3.9-1.6-8.3,0.3-9.8,4.2
						C1469.8,603.8,1471.6,608.2,1475.5,609.7z"/>
					<path class="st5" d="M1813.5,634.9c3.9,1.6,8.3-0.3,9.8-4.2c1.6-3.9-0.3-8.3-4.2-9.8c-3.9-1.6-8.3,0.3-9.8,4.2
						C1807.8,629,1809.7,633.4,1813.5,634.9z"/>
					<path class="st5" d="M1772.7,835.5c3.9,1.6,8.3-0.3,9.8-4.2c1.6-3.9-0.3-8.3-4.2-9.8c-3.9-1.6-8.3,0.3-9.8,4.2
						C1767,829.5,1768.8,833.9,1772.7,835.5z"/>
					<path class="st5" d="M1601.7,630.9c3.9,1.6,8.3-0.3,9.8-4.2c1.6-3.9-0.3-8.3-4.2-9.8c-3.9-1.6-8.3,0.3-9.8,4.2
						C1596,625,1597.8,629.4,1601.7,630.9z"/>
					<path class="st5" d="M1800.3,901.8c2.9,1.2,6.2-0.2,7.4-3.1c1.2-2.9-0.2-6.2-3.1-7.4s-6.2,0.2-7.4,3.1
						C1796.1,897.3,1797.4,900.6,1800.3,901.8z"/>
					<path class="st5" d="M1526.6,579.8c3.9,1.6,8.3-0.3,9.8-4.2c1.6-3.9-0.3-8.3-4.2-9.8c-3.9-1.6-8.3,0.3-9.8,4.2
						C1520.8,573.9,1522.7,578.3,1526.6,579.8z"/>
					<path class="st5" d="M1553.5,794.4c4.8,2,10.3-0.4,12.3-5.2s-0.4-10.3-5.2-12.3c-4.8-2-10.3,0.4-12.3,5.2
						C1546.3,787,1548.7,792.4,1553.5,794.4z"/>
					<path class="st5" d="M1459.1,658.7c4.8,2,10.3-0.4,12.3-5.2s-0.4-10.3-5.2-12.3c-4.8-2-10.3,0.4-12.3,5.2
						C1452,651.3,1454.3,656.8,1459.1,658.7z"/>
					<path class="st5" d="M1429.8,756c2.9,1.2,6.2-0.2,7.4-3.1c1.2-2.9-0.2-6.2-3.1-7.4s-6.2,0.2-7.4,3.1
						C1425.5,751.5,1426.9,754.8,1429.8,756z"/>
					<path class="st5" d="M1356.4,680.1c4.8,2,10.3-0.4,12.3-5.2s-0.4-10.3-5.2-12.3c-4.8-2-10.3,0.4-12.3,5.2
						C1349.2,672.7,1351.5,678.2,1356.4,680.1z"/>
					<path class="st5" d="M1735.2,846.9c3.9,1.6,8.3-0.3,9.8-4.2c1.6-3.9-0.3-8.3-4.2-9.8c-3.9-1.6-8.3,0.3-9.8,4.2
						C1729.4,841,1731.3,845.4,1735.2,846.9z"/>
					<ellipse class="st5" cx="1680.2" cy="550.4" rx="7.5" ry="7.5"/>
					<path class="st5" d="M1499.7,900.3c2.9,1.2,6.2-0.2,7.4-3.1c1.2-2.9-0.2-6.2-3.1-7.4s-6.2,0.2-7.4,3.1
						C1495.4,895.8,1496.8,899.1,1499.7,900.3z"/>
					<path class="st5" d="M1691.7,950.1c6.8,2.7,14.4-0.5,17.2-7.3c2.7-6.8-0.5-14.4-7.3-17.2c-6.8-2.7-14.4,0.5-17.2,7.3
						C1681.6,939.7,1684.9,947.4,1691.7,950.1z"/>
					<path class="st5" d="M1620.4,530.4c6.8,2.7,14.4-0.5,17.2-7.3c2.7-6.8-0.5-14.4-7.3-17.2c-6.8-2.7-14.4,0.5-17.2,7.3
						C1610.4,519.9,1613.6,527.6,1620.4,530.4z"/>
				</g>
			</g>
		</g>
	</g>
	<g class="st1">
		<defs>
			<rect id="SVGID_7_" x="-1.7" y="-1.7" class="st1" width="1898.1" height="1071.4"/>
		</defs>
		<clipPath id="SVGID_8_">
			<use xlink:href="#SVGID_7_"  style="overflow:visible;"/>
		</clipPath>
		<g class="st8">
			<polygon class="st7" points="2040,204 2028,82.8 1917.1,32.6 1818.1,103.5 1830.1,224.7 1941,275 			"/>
			<line class="st7" x1="1977" y1="248.6" x2="1818.1" y2="103.5"/>
			<line class="st7" x1="1972.3" y1="57.5" x2="2031.9" y2="128.1"/>
			<line class="st7" x1="1862.3" y1="71.8" x2="2040" y2="204"/>
			<line class="st7" x1="1972.3" y1="57.5" x2="1818.1" y2="103.5"/>
			<line class="st7" x1="1916.3" y1="263.3" x2="2037.8" y2="205.2"/>
			<line class="st7" x1="1862.3" y1="71.8" x2="1830.1" y2="224.7"/>
			<line class="st7" x1="1996.6" y1="68.3" x2="1941" y2="275"/>
			<polygon class="st5" points="1829.9,224.6 1971.1,56.5 1973.5,58.6 1830.3,224.9 			"/>
			<polygon class="st5" points="1972.5,57.6 1888.3,250.7 1885.3,249.4 1972.1,57.4 			"/>
			<polygon class="st5" points="1818.2,103.3 2040.7,202.6 2039.3,205.5 1818,103.8 			"/>
			<polygon class="st5" points="2039.8,204.1 1995.1,68.8 1998.1,67.8 2040.3,203.9 			"/>
			<polygon class="st5" points="2032,128.4 1830.8,226.2 1829.4,223.3 2031.8,127.9 			"/>
			<polygon class="st5" points="1976.8,248.7 1915.6,33 1918.6,32.2 1977.3,248.6 			"/>
			<polygon class="st5" points="1886.7,249.8 2037.3,203.7 2038.2,206.8 1886.9,250.3 			"/>
			<polygon class="st5" points="1829.9,224.5 2027.1,81.5 2029,84.1 1830.3,225 			"/>
			<polygon class="st5" points="1862.3,71.5 2028.1,81.2 2027.9,84.4 1862.3,72 			"/>
			<line class="st7" x1="1941" y1="275" x2="2031.9" y2="128.1"/>
			<g>
				<g>
					<path class="st5" d="M1929.9,241.9c2.8,0.8,5.7-0.8,6.5-3.5c0.8-2.8-0.8-5.7-3.5-6.5c-2.8-0.8-5.7,0.8-6.5,3.5
						C1925.5,238.2,1927.1,241.1,1929.9,241.9z"/>
					<path class="st5" d="M2038.5,209c2.8,0.8,5.7-0.8,6.5-3.5c0.8-2.8-0.8-5.7-3.5-6.5c-2.8-0.8-5.7,0.8-6.5,3.5
						C2034.2,205.3,2035.7,208.2,2038.5,209z"/>
					<path class="st5" d="M1885.3,255.1c2.8,0.8,5.7-0.8,6.5-3.5c0.8-2.8-0.8-5.7-3.5-6.5c-2.8-0.8-5.7,0.8-6.5,3.5
						C1880.9,251.4,1882.5,254.3,1885.3,255.1z"/>
					<path class="st5" d="M1975.9,252.2c2,0.6,4.1-0.5,4.7-2.5s-0.5-4.1-2.5-4.7s-4.1,0.5-4.7,2.5
						C1972.8,249.6,1974,251.7,1975.9,252.2z"/>
					<path class="st5" d="M1940,278.6c2,0.6,4.1-0.5,4.7-2.5s-0.5-4.1-2.5-4.7s-4.1,0.5-4.7,2.5S1938,278,1940,278.6z"/>
					<path class="st5" d="M1927.8,158.1c2.8,0.8,5.7-0.8,6.5-3.5c0.8-2.8-0.8-5.7-3.5-6.5c-2.8-0.8-5.7,0.8-6.5,3.5
						C1923.4,154.4,1925,157.3,1927.8,158.1z"/>
					<path class="st5" d="M1950.9,141.4c2,0.6,4.1-0.5,4.7-2.5s-0.5-4.1-2.5-4.7c-2-0.6-4.1,0.5-4.7,2.5
						C1947.7,138.8,1948.9,140.9,1950.9,141.4z"/>
					<path class="st5" d="M1953.4,234.2c2.8,0.8,5.7-0.8,6.5-3.5c0.8-2.8-0.8-5.7-3.5-6.5c-2.8-0.8-5.7,0.8-6.5,3.5
						C1949,230.4,1950.6,233.4,1953.4,234.2z"/>
					<path class="st5" d="M2019.8,149.1c2,0.6,4.1-0.5,4.7-2.5s-0.5-4.1-2.5-4.7c-2-0.6-4.1,0.5-4.7,2.5
						C2016.7,146.4,2017.9,148.5,2019.8,149.1z"/>
					<path class="st5" d="M1871.9,207.3c2,0.6,4.1-0.5,4.7-2.5s-0.5-4.1-2.5-4.7c-2-0.6-4.1,0.5-4.7,2.5
						C1868.7,204.6,1869.9,206.7,1871.9,207.3z"/>
					<path class="st5" d="M1828.6,229.8c2.8,0.8,5.7-0.8,6.5-3.5c0.8-2.8-0.8-5.7-3.5-6.5c-2.8-0.8-5.7,0.8-6.5,3.5
						C1824.2,226,1825.8,228.9,1828.6,229.8z"/>
					<path class="st5" d="M1837.1,190.1c2,0.6,4.1-0.5,4.7-2.5s-0.5-4.1-2.5-4.7c-2-0.6-4.1,0.5-4.7,2.5S1835.1,189.5,1837.1,190.1z
						"/>
					<path class="st5" d="M2026.6,87.9c2.8,0.8,5.7-0.8,6.5-3.5c0.8-2.8-0.8-5.7-3.5-6.5c-2.8-0.8-5.7,0.8-6.5,3.5
						C2022.2,84.1,2023.8,87,2026.6,87.9z"/>
					<path class="st5" d="M1995.3,190c2.8,0.8,5.7-0.8,6.5-3.5c0.8-2.8-0.8-5.7-3.5-6.5c-2.8-0.8-5.7,0.8-6.5,3.5
						C1990.9,186.3,1992.5,189.2,1995.3,190z"/>
					<path class="st5" d="M2001.9,232.6c0.8,0.2,1.6-0.2,1.9-1c0.2-0.8-0.2-1.6-1-1.9c-0.8-0.2-1.6,0.2-1.9,1
						S2001.1,232.4,2001.9,232.6z"/>
					<path class="st5" d="M1970.8,62.6c2.8,0.8,5.7-0.8,6.5-3.5c0.8-2.8-0.8-5.7-3.5-6.5c-2.8-0.8-5.7,0.8-6.5,3.5
						S1968,61.7,1970.8,62.6z"/>
					<path class="st5" d="M1982.6,208.1c0.8,0.2,1.6-0.2,1.9-1c0.2-0.8-0.2-1.6-1-1.9c-0.8-0.2-1.6,0.2-1.9,1
						S1981.8,207.9,1982.6,208.1z"/>
					<path class="st5" d="M1906.3,106.3c0.8,0.2,1.6-0.2,1.9-1c0.2-0.8-0.2-1.6-1-1.9c-0.8-0.2-1.6,0.2-1.9,1
						C1905.1,105.2,1905.5,106,1906.3,106.3z"/>
					<path class="st5" d="M1979.2,130.6c0.8,0.2,1.6-0.2,1.9-1c0.2-0.8-0.2-1.6-1-1.9c-0.8-0.2-1.6,0.2-1.9,1
						C1978,129.6,1978.4,130.4,1979.2,130.6z"/>
					<path class="st5" d="M1857.4,238.9c0.8,0.2,1.6-0.2,1.9-1s-0.2-1.6-1-1.9c-0.8-0.2-1.6,0.2-1.9,1
						C1856.2,237.8,1856.6,238.7,1857.4,238.9z"/>
					<path class="st5" d="M1879.6,87.5c1.6,0.5,3.3-0.4,3.7-2c0.5-1.6-0.4-3.3-2-3.7c-1.6-0.5-3.3,0.4-3.7,2
						C1877.1,85.4,1878,87,1879.6,87.5z"/>
					<path class="st5" d="M1982.6,71.5c0.8,0.2,1.6-0.2,1.9-1c0.2-0.8-0.2-1.6-1-1.9c-0.8-0.2-1.6,0.2-1.9,1
						C1981.4,70.4,1981.8,71.3,1982.6,71.5z"/>
					<path class="st5" d="M2031.4,129.6c0.8,0.2,1.6-0.2,1.9-1c0.2-0.8-0.2-1.6-1-1.9c-0.8-0.2-1.6,0.2-1.9,1
						C2030.2,128.5,2030.7,129.3,2031.4,129.6z"/>
					<path class="st5" d="M1926.1,204c0.8,0.2,1.6-0.2,1.9-1c0.2-0.8-0.2-1.6-1-1.9c-0.8-0.2-1.6,0.2-1.9,1
						C1924.8,203,1925.3,203.8,1926.1,204z"/>
					<path class="st5" d="M2034.2,147.7c0.8,0.2,1.6-0.2,1.9-1c0.2-0.8-0.2-1.6-1-1.9c-0.8-0.2-1.6,0.2-1.9,1
						S2033.4,147.5,2034.2,147.7z"/>
					<path class="st5" d="M1820.9,141.8c1.6,0.5,3.3-0.4,3.7-2c0.5-1.6-0.4-3.3-2-3.7c-1.6-0.5-3.3,0.4-3.7,2
						C1818.4,139.6,1819.3,141.3,1820.9,141.8z"/>
					<path class="st5" d="M1872.6,246.7c1.6,0.5,3.3-0.4,3.7-2c0.5-1.6-0.4-3.3-2-3.7c-1.6-0.5-3.3,0.4-3.7,2
						C1870.1,244.6,1871,246.3,1872.6,246.7z"/>
					<path class="st5" d="M1915.4,266.1c1.6,0.5,3.3-0.4,3.7-2c0.5-1.6-0.4-3.3-2-3.7c-1.6-0.5-3.3,0.4-3.7,2
						C1913,264,1913.9,265.7,1915.4,266.1z"/>
					<path class="st5" d="M2009.6,185c1.6,0.5,3.3-0.4,3.7-2c0.5-1.6-0.4-3.3-2-3.7c-1.6-0.5-3.3,0.4-3.7,2
						C2007.1,182.8,2008,184.5,2009.6,185z"/>
					<path class="st5" d="M2028.3,100.3c2,0.6,4.1-0.5,4.7-2.5s-0.5-4.1-2.5-4.7s-4.1,0.5-4.7,2.5
						C2025.2,97.6,2026.3,99.7,2028.3,100.3z"/>
					<path class="st5" d="M1861.4,74.6c1.6,0.5,3.3-0.4,3.7-2c0.5-1.6-0.4-3.3-2-3.7c-1.6-0.5-3.3,0.4-3.7,2
						C1858.9,72.5,1859.8,74.2,1861.4,74.6z"/>
					<path class="st5" d="M1996.1,71.4c1.6,0.5,3.3-0.4,3.7-2c0.5-1.6-0.4-3.3-2-3.7c-1.6-0.5-3.3,0.4-3.7,2
						C1993.6,69.3,1994.5,70.9,1996.1,71.4z"/>
					<path class="st5" d="M1987.7,152.3c1.6,0.5,3.3-0.4,3.7-2c0.5-1.6-0.4-3.3-2-3.7c-1.6-0.5-3.3,0.4-3.7,2
						C1985.3,150.2,1986.2,151.8,1987.7,152.3z"/>
					<path class="st5" d="M1912.2,78.1c1.6,0.5,3.3-0.4,3.7-2c0.5-1.6-0.4-3.3-2-3.7c-1.6-0.5-3.3,0.4-3.7,2
						C1909.7,76,1910.6,77.6,1912.2,78.1z"/>
					<path class="st5" d="M2001.3,177.4c1.2,0.4,2.4-0.3,2.8-1.5s-0.3-2.4-1.5-2.8c-1.2-0.4-2.4,0.3-2.8,1.5
						C1999.4,175.8,2000.1,177.1,2001.3,177.4z"/>
					<path class="st5" d="M1880.5,60.8c1.6,0.5,3.3-0.4,3.7-2c0.5-1.6-0.4-3.3-2-3.7c-1.6-0.5-3.3,0.4-3.7,2
						C1878,58.7,1878.9,60.4,1880.5,60.8z"/>
					<path class="st5" d="M1899.5,144.6c2,0.6,4.1-0.5,4.7-2.5s-0.5-4.1-2.5-4.7c-2-0.6-4.1,0.5-4.7,2.5
						C1896.4,142,1897.5,144,1899.5,144.6z"/>
					<path class="st5" d="M1856.9,94.7c2,0.6,4.1-0.5,4.7-2.5s-0.5-4.1-2.5-4.7s-4.1,0.5-4.7,2.5S1854.9,94.1,1856.9,94.7z"/>
					<path class="st5" d="M1849.1,134.3c1.2,0.4,2.4-0.3,2.8-1.5s-0.3-2.4-1.5-2.8c-1.2-0.4-2.4,0.3-2.8,1.5
						S1847.9,133.9,1849.1,134.3z"/>
					<path class="st5" d="M1817.1,107.1c2,0.6,4.1-0.5,4.7-2.5s-0.5-4.1-2.5-4.7s-4.1,0.5-4.7,2.5
						C1814,104.5,1815.1,106.6,1817.1,107.1z"/>
					<path class="st5" d="M1973.4,158.3c1.6,0.5,3.3-0.4,3.7-2c0.5-1.6-0.4-3.3-2-3.7c-1.6-0.5-3.3,0.4-3.7,2
						C1970.9,156.2,1971.8,157.8,1973.4,158.3z"/>
					<ellipse class="st5" cx="1940" cy="43.2" rx="3" ry="3"/>
					<path class="st5" d="M1882.4,188.6c1.2,0.4,2.4-0.3,2.8-1.5s-0.3-2.4-1.5-2.8c-1.2-0.4-2.4,0.3-2.8,1.5
						S1881.2,188.2,1882.4,188.6z"/>
					<path class="st5" d="M1960.2,200.8c2.8,0.8,5.7-0.8,6.5-3.5c0.8-2.8-0.8-5.7-3.5-6.5c-2.8-0.8-5.7,0.8-6.5,3.5
						C1955.8,197.1,1957.4,200,1960.2,200.8z"/>
					<path class="st5" d="M1915.6,37.6c2.8,0.8,5.7-0.8,6.5-3.5c0.8-2.8-0.8-5.7-3.5-6.5c-2.8-0.8-5.7,0.8-6.5,3.5
						C1911.3,33.9,1912.8,36.8,1915.6,37.6z"/>
				</g>
			</g>
		</g>
	</g>
</g>
</svg>
