<?xml version="1.0" encoding="utf-8"?>
<!-- Generator: Adobe Illustrator 25.2.1, SVG Export Plug-In . SVG Version: 6.00 Build 0)  -->
<svg version="1.1" id="Layer_1" xmlns="http://www.w3.org/2000/svg" xmlns:xlink="http://www.w3.org/1999/xlink" x="0px" y="0px"
	 viewBox="0 0 8192 10648.8" style="enable-background:new 0 0 8192 10648.8;" xml:space="preserve">
<style type="text/css">
	.st0{fill:#FFFFFF;}
	.st1{fill:#DC5356;}
	.st2{fill:#EE7F26;}
	.st3{fill:#F3C220;}
	.st4{fill:#1F9CA9;}
	.st5{fill:#619746;}
	.st6{fill:none;stroke:#2A4A83;stroke-miterlimit:10;}
	.st7{fill:#2A4A83;}
</style>
<path class="st0" d="M7856,2462.4H336c-185.5,0-336-150.4-336-335.9V465.5C0,280,150.4,129.6,336,129.6H7856
	c185.5,0,336,150.4,336,335.9v1660.9C8192,2312,8041.6,2462.4,7856,2462.4z"/>
<g>
	<g>
		<circle class="st1" cx="1015.7" cy="3856.3" r="492.6"/>
		<g>
			<g>
				<path class="st0" d="M759.4,3625.8h512.7c12.8,0,23.4,3.9,31.8,11.6c4.6,4.4,7.6,8.1,8.9,10.9c4,7.7,6,14.2,6,19.5v78.1h-247.3
					v340.9h-76.8c-10.8,0-21-4.3-30.5-12.9c-0.2-0.2-0.4-0.5-0.7-1c-0.7-0.7-1.5-1.7-2.6-3c-6.4-8.4-9.6-17-9.6-25.8v-298.2H712.7
					V3685c0-15.7,0.4-23.6,1.3-23.8c2-8.8,5.4-15.9,10.3-21.2c5.3-4.6,9.1-7.5,11.6-8.6C741.4,3627.6,749.2,3625.8,759.4,3625.8z"/>
			</g>
		</g>
	</g>
	<g>
		<circle class="st2" cx="1015.7" cy="5316.8" r="492.6"/>
		<g>
			<g>
				<path class="st0" d="M897,5086.3h237.3c39.9,0,77.2,12,111.9,36.1c5.7,3.5,12.9,9.3,21.5,17.2c1.3,1.1,2.8,2.3,4.3,3.6
					c10.8,12.4,18.7,21.8,23.5,28.5c23.2,34.2,34.8,71.9,34.8,113.2v63.9c0,48.8-15.8,92.1-47.3,130.1
					c-9.9,10.8-18.1,18.5-24.5,23.2c-11,9.3-22.4,16.9-34.1,22.8c-28.7,15-58.9,22.5-90.7,22.5h-236c-42.6,0-81.9-13.1-117.8-39.4
					c-6-4.6-14.4-12.2-25.2-22.8c-10.8-11.7-18.2-21.2-22.2-28.5c-21-32.4-31.4-68-31.4-106.6v-66.5c0-45.2,14.4-86.3,43.4-123.1
					c4.2-4.8,11-12.4,20.5-22.5c9.5-8.2,17.7-14.2,24.5-18.2C823.2,5097.4,859.1,5086.3,897,5086.3z M820.6,5286.6v60.2
					c0,16.3,3.4,29.9,10.3,40.7c1.3,4,5.3,9.6,11.9,16.9c15.7,15.9,34.6,23.8,56.9,23.8h232c25.8,0,46.8-10.5,62.9-31.4
					c4.6-6,8.3-12,10.9-18.2c3.5-8.6,5.3-19.6,5.3-33.1v-56.3c0-14.4-1.5-25-4.6-32.1c-6.8-17.4-18.3-30.9-34.4-40.4
					c-12.1-7.3-25.3-10.9-39.4-10.9H899c-25.6,0-46.8,10.8-63.6,32.4c-4.6,6.6-7.8,12.5-9.6,17.5
					C822.4,5263.9,820.6,5274.2,820.6,5286.6z"/>
			</g>
		</g>
	</g>
	<g>
		<circle class="st3" cx="1015.7" cy="6777.4" r="492.6"/>
		<g>
			<g>
				<path class="st0" d="M1240.1,6546.8c14.4,0,26,5.4,35.1,16.2c4.2,4.6,7.2,10.8,8.9,18.5c0.7,2.6,1,6.4,1,11.3v67.9H865.8v66.5
					h418v100H866.4l-0.3,0.3v70.5h418.7c0.2,0,0.3,0.1,0.3,0.3v66.5c0,10.1-3.8,19.6-11.3,28.5c-4.6,4.6-7.9,7.4-9.9,8.3
					c-6.6,4.2-14.8,6.3-24.5,6.3H788.3c-3.1,0-7.3-0.9-12.6-2.6c-11.3-4.2-19.6-11.7-25.2-22.5c-2.6-6.2-4-12.8-4-19.9v-232.7
					c-0.2-11.3-0.3-47.9-0.3-109.9v-30.5c0-7.3,2.3-14.9,7-22.8c4.8-7.1,10.6-12.2,17.2-15.6c4.8-2.2,8.5-3.4,10.9-3.6
					c1.3-0.4,3.3-0.8,6-1H1240.1z"/>
			</g>
		</g>
	</g>
	<g>
		<circle class="st4" cx="1015.7" cy="8237.9" r="492.6"/>
		<g>
			<g>
				<path class="st0" d="M844.9,8007.4h420.4c11.5,0,22.3,3.9,32.4,11.6c13,11.3,19.5,25.7,19.5,43.4v64.5h-0.7
					c-30.9,0.4-96.2,0.7-195.9,0.7c-78.6,0.4-139.5,0.7-182.7,0.7c-45.2,0.4-76,0.7-92.3,0.7c-3.3,0-6.3,1.1-8.9,3.3
					c-2.2,2.2-3.3,5.4-3.3,9.6v25.2c0,6,2.5,10,7.6,12.2c0.7,0.2,1.2,0.4,1.7,0.5s1,0.2,1.7,0.2c100.2-0.4,157.3-0.7,171.5-0.7
					c3.5,0,9.9-0.1,19.2-0.3c26-0.4,75.5-0.7,148.3-0.7h2.6c9.5,0,22.2,1.2,38.1,3.6c11.5,2,21,4.4,28.5,7.3
					c23.8,9.3,40.9,23.9,51.3,44c9.1,17.7,13.6,39.4,13.6,65.2v47.3c0,46.8-13.8,79.8-41.4,99c-22.3,15.9-55.5,23.8-99.6,23.8H766.8
					c-15.4,0-28.9-6.5-40.4-19.5c-8.2-9.7-12.2-21.1-12.2-34.1v-65.5h466.4c5.3,0,8.8-2.5,10.6-7.6c0.4-0.7,0.7-1.3,0.8-2
					c0.1-0.7,0.2-1.1,0.2-1.3v-34.8c0-4.6-2.5-7.9-7.6-9.9c-1.3-0.4-2.6-0.7-4-0.7h-335c-53,0-89.4-13.1-109.2-39.4
					c-4-4.8-6.8-9.4-8.6-13.6c-2.2-4.2-4.3-9.4-6.3-15.6c-1.8-5.7-3.3-12.8-4.6-21.2c-1.3-9.1-2-22.4-2-40.1v-2.6
					c0-42.6,3.6-71.9,10.9-88c3.8-10.8,10-21,18.9-30.5c4.8-5.5,9.1-9.4,12.9-11.6c12.8-8.8,27.3-14.9,43.4-18.2
					C814.6,8009,829.2,8007.4,844.9,8007.4z"/>
			</g>
		</g>
	</g>
	<g>
		<circle class="st5" cx="1015.7" cy="9698.4" r="492.6"/>
		<g>
			<g>
				<path class="st0" d="M759.4,9467.9h512.7c12.8,0,23.4,3.9,31.8,11.6c4.6,4.4,7.6,8.1,8.9,10.9c4,7.7,6,14.2,6,19.5v78.1h-247.3
					V9929h-76.8c-10.8,0-21-4.3-30.5-12.9c-0.2-0.2-0.4-0.5-0.7-1c-0.7-0.7-1.5-1.7-2.6-3c-6.4-8.4-9.6-17-9.6-25.8v-298.2H712.7
					v-60.9c0-15.7,0.4-23.6,1.3-23.8c2-8.8,5.4-15.9,10.3-21.2c5.3-4.6,9.1-7.5,11.6-8.6C741.4,9469.8,749.2,9467.9,759.4,9467.9z"
					/>
			</g>
		</g>
	</g>
	<g>
		<g>
			<path class="st0" d="M2275.7,3581.6h113.3v20.5h-44.9v138.7h-23.6v-138.7h-44.9V3581.6z"/>
			<path class="st0" d="M2411,3690.9c0.8,21.3,9.1,33.9,28.2,33.9c14.2,0,22.7-6.9,24.4-18.1h23c-3.7,23-20.1,36.8-47.3,36.8
				c-34.1,0-50.8-21.5-50.8-59.5c0-37.8,16.7-59.5,50.4-59.5c33.5,0,50.2,21.7,50.2,59.5c0,2.4,0,4.7-0.2,6.9H2411z M2411.2,3673.8
				h55c-1.6-19.1-9.5-30.7-27.4-30.7C2420.5,3643.2,2412.8,3654.8,2411.2,3673.8z"/>
			<path class="st0" d="M2596,3657.8v2.6h-22.3v-2.8c0-8.3-6.9-15.2-20.1-15.2c-13.4,0-20.3,6.9-20.3,15c0,12.4,10.2,12.6,31.3,17.1
				c24.6,4.5,35.7,15,35.7,34.7c0,19.5-17.5,34.3-44.9,34.3c-27.2,0-45.1-14.4-45.1-34.3v-3.2h22.3v3.2c0,10.4,9.1,16.5,22.7,16.5
				c13.4,0,22.5-6.3,22.5-15.8c0-13.2-10.6-14.6-31.1-18.9c-24.6-4.3-35.7-14.2-35.7-33.1c0-19.5,15.6-33.3,42.5-33.3
				C2580.2,3624.5,2596,3637.9,2596,3657.8z"/>
			<path class="st0" d="M2652.1,3706.3c0,14.2,5.3,17.7,19.5,17.7h11.4v17.9c-3.7,0.6-10.4,0.6-15.2,0.6c-26.6,0-38-7.7-38-32.1
				v-64.8h-16.5v-18.5h16.5v-32.3h22.3v32.3h30.9v18.5h-30.9V3706.3z"/>
			<path class="st0" d="M2704.1,3657h69.5v19.7h-69.5V3657z"/>
			<path class="st0" d="M2784.7,3581.6H2898v20.5h-44.9v138.7h-23.6v-138.7h-44.9V3581.6z"/>
			<path class="st0" d="M2939.7,3743.5c-26.4,0-43.1-13-43.1-36.2c0-23,16.7-36.2,43.1-36.2c15.6,0,28,5.3,32.1,14.6v-18.5
				c0-15.4-8.1-24.4-24.6-24.4c-14.6,0-22.1,6.3-23.8,17.9h-22.5c1.6-22.5,17.3-36.4,46.3-36.4c31.7,0,47.1,16.9,47.1,42.9v57.9
				c0,5.7,1,11.8,2.6,15.6h-23c-1.4-3-2.2-7.3-2.2-12.2C2968.1,3737.6,2956.5,3743.5,2939.7,3743.5z M2972,3707.4
				c0-11.8-9.1-18.1-26.6-18.1c-17.3,0-26.4,6.3-26.4,18.1c0,12,9.1,18.1,26.4,18.1C2962.8,3725.4,2972,3719.3,2972,3707.4z"/>
			<path class="st0" d="M3022.5,3740.9v-159.2h22.3v91h11.6l31.1-45.5h25l-37.8,54.6l43.1,59.1H3092l-36-50.4h-11.2v50.4H3022.5z"/>
			<path class="st0" d="M3135.9,3605.6v-24h22.5v24H3135.9z M3135.9,3740.9v-113.7h22.5v113.7H3135.9z"/>
			<path class="st0" d="M3283.9,3740.9h-22.5v-69.5c0-19.7-7.9-28.4-22.5-28.4c-16.2,0-28.6,12.8-28.6,36.4v61.5h-22.1v-113.7h22.1
				v19.1c5.3-13.2,16.9-21.7,34.1-21.7c25.4,0,39.6,16.2,39.6,45.3V3740.9z"/>
			<path class="st0" d="M3408.8,3627.1v118c0,27.4-14,48.5-48.1,48.5c-27.2,0-43.9-13.2-46.9-34.9h23c1.6,11.2,10.2,17.1,24,17.1
				c17.7,0,25.6-10.4,25.6-28.8v-23.8c-4.3,12.4-16.2,20.3-32.5,20.3c-28,0-45.5-18.7-45.5-59.5c0-40.8,17.5-59.5,45.5-59.5
				c16.2,0,28.2,7.9,32.5,20.3v-17.7H3408.8z M3358.7,3643.2c-21.1,0-28,15.8-28,40.8c0,25.2,6.9,40.8,28,40.8
				c20.9,0,27.6-15.6,27.6-40.8C3386.3,3659,3379.6,3643.2,3358.7,3643.2z"/>
			<path class="st0" d="M2337.7,3978.1v10.8c-23.8,0-33.5,13.6-33.5,91.4c0,77.8,9.7,91.4,33.5,91.4v10.8
				c-31.7,0-45.9-15.6-45.9-102.2C2291.8,3994,2306,3978.1,2337.7,3978.1z"/>
			<path class="st0" d="M2413,4100c-5.9,25.6-27,46.9-52.2,56.5v-11.4c23.4-10.6,45.9-32.1,45.9-81.6v-72.3h12.4v72.3
				c0,49.6,22.7,70.3,45.9,81.6v11.4C2440.2,4146.3,2418.9,4125.6,2413,4100z M2508.7,3988.9v77.4h30.3v10.6h-30.3v92h-12.4v-180
				H2508.7z"/>
			<path class="st0" d="M2568,3991.3h90.6v10.8h-39.2v26c0,29.9,21.1,47.1,42.2,52.4v11.2c-21.9-5.1-40.4-19.1-48.1-37
				c-7.3,18.3-25.8,34.5-48.3,39.6V4083c21.9-4.9,41.8-24.2,41.8-54.8v-26h-39V3991.3z M2716.5,4169.9h-136.7v-57.1h12.4v46.3h124.3
				V4169.9z M2712.8,4114h-12.4v-69.5h-42.2v-10.8h42.2v-44.9h12.4V4114z"/>
			<path class="st0" d="M2829.8,3991.3h90.6v10.8h-39.2v26c0,29.9,21.1,47.1,42.2,52.4v11.2c-21.9-5.1-40.4-19.1-48.1-37
				c-7.3,18.3-25.8,34.5-48.3,39.6V4083c21.9-4.9,41.8-24.2,41.8-54.8v-26h-39V3991.3z M2978.3,4169.9h-136.7v-57.1h12.4v46.3h124.3
				V4169.9z M2974.6,4114h-12.4v-125.1h12.4V4114z"/>
			<path class="st0" d="M3109,4085.4h-82.7v-94.2h85.1v11h-72.7v72.7h72.5c19.3,0,34.5-3.5,44.9-11v-74.9h12.4v52.4h28.4v10.8h-28.4
				v61.9h-12.4v-39.8C3146.2,4082.3,3130,4085.4,3109,4085.4z M3049.7,4112.8v46.3H3172v10.8h-134.7v-57.1H3049.7z"/>
			<path class="st0" d="M3280.3,4079.5h41v-42.9h11.8v42.9h40.8v10.6h-40.8v42.9h-11.8v-42.9h-41V4079.5z"/>
			<path class="st0" d="M3556.3,4062.6h12.4v87.5h61.7v10.4h-160.3v-10.4h36.4v-87.5h12.4v87.5h37.4V4062.6z M3608.1,4055.1v-51.6
				h-129v-11.2h141.4v60.7c0,20.7-1.6,43.5-4.7,59.5h-12.4C3606.4,4097,3608.1,4074.4,3608.1,4055.1z"/>
			<path class="st0" d="M3814,3988.9v77.4h30.3v10.6H3814v91.8h-12.4v-23.4c-9.7,8.7-27,12.8-46.9,12.8h-84.9v-10.4h30.3v-87.9h12.4
				v87.9h43.9c19.1,0,35.3-4.5,45.3-12.8v-146H3814z M3752.1,4059.4v-55.9h-75.2v-11.2h87.5v65.4c0,18.3-1.8,38.8-4.7,51.6h-12.4
				C3750.4,4096.6,3752.1,4076.7,3752.1,4059.4z"/>
			<path class="st0" d="M3936.1,4074.8v-83.5h84.9v83.5H3936.1z M4013.9,4143.9c-10,16-38,26.6-71.9,27.2v-10.6
				c33.1-0.2,65.6-13.4,65.6-34.1v-3.5h-60.1v-10.6h60.1v-21.5h12.4v21.5h60.9v10.6H4020v3.5c0,20.7,32.7,33.7,66.4,34.1v10.6
				C4051.8,4170.5,4024,4159.9,4013.9,4143.9z M4008.8,4002.1h-60.3v61.9h60.3V4002.1z M4080.9,4089.5h-12.4v-100.5h12.4V4089.5z"/>
			<path class="st0" d="M4211.9,4060.4h60.1v-68h12.4v163.7h-84.7v-163.7h12.2V4060.4z M4272,4145.7v-74.5h-60.1v74.5H4272z
				 M4329.5,4168.7v-179.8h12.4v179.8H4329.5z"/>
			<path class="st0" d="M4477.9,4062.6h12.4v87.5h61.7v10.4h-160.3v-10.4h36.4v-87.5h12.4v87.5h37.4V4062.6z M4529.7,4055.1v-51.6
				h-129v-11.2h141.4v60.7c0,20.7-1.6,43.5-4.7,59.5h-12.4C4528.1,4097,4529.7,4074.4,4529.7,4055.1z"/>
			<path class="st0" d="M4735.7,3988.9v77.4h30.3v10.6h-30.3v91.8h-12.4v-23.4c-9.7,8.7-27,12.8-46.9,12.8h-84.9v-10.4h30.3v-87.9
				h12.4v87.9h43.9c19.1,0,35.3-4.5,45.3-12.8v-146H4735.7z M4673.7,4059.4v-55.9h-75.2v-11.2h87.5v65.4c0,18.3-1.8,38.8-4.7,51.6
				h-12.4C4672.1,4096.6,4673.7,4076.7,4673.7,4059.4z"/>
			<path class="st0" d="M4855.3,4036c0-15.8,5.3-28.6,14.4-37c7.7-7.3,18.9-11.2,31.9-11.2s24.2,3.9,31.9,11.2
				c3.5,3.2,6.5,6.9,8.7,11.4h47.9v-21.5h12.4v103h-12.4v-31.1h-47.5c-2.4,4.9-5.5,8.9-9.1,12.4c-7.7,7.1-18.9,11.4-31.9,11.4
				s-24.2-4.3-31.9-11.4C4860.6,4064.7,4855.3,4052.1,4855.3,4036z M4990.2,4172.1v-51.4h-123.1V4110h135.5v62.2H4990.2z
				 M4867.5,4036c0,12.4,3.7,22.3,10.4,28.8c5.9,5.5,14,8.7,23.8,8.7s17.9-3.2,23.8-8.7c6.7-6.5,10.4-16.5,10.4-28.8
				s-3.7-22.3-10.4-28.8c-5.9-5.5-14-8.5-23.8-8.5s-17.9,3-23.8,8.5C4871.1,4013.7,4867.5,4023.6,4867.5,4036z M4946.1,4021
				c1.2,4.7,1.8,9.7,1.8,15c0,5.1-0.6,9.7-1.6,14.2h43.9V4021H4946.1z"/>
			<path class="st0" d="M5137,4086.6h-82.7v-53.4h71.5v-31.5h-71.5v-10.6h83.9v52.8h-71.5v32.3h72.5c19.3,0,34.5-3.2,44.9-11.2
				v-76.2h12.4v25.6h27.4v11h-27.4v30.1h27.4v11h-27.4v31.9h-12.4v-23.2C5174.2,4083.6,5157.9,4086.6,5137,4086.6z M5062.9,4141
				c0-9.1,4.5-16.2,12.8-21.5c12-7.5,31.3-11.2,56.5-11.2c25,0,44.5,3.7,56.5,11.2c8.3,5.3,12.6,12.4,12.6,21.5
				c0,9.1-4.3,16.2-12.6,21.7c-12,7.3-31.5,10.8-56.5,10.8c-25.2,0-44.5-3.5-56.5-10.8C5067.3,4157.3,5062.9,4150.2,5062.9,4141z
				 M5075.3,4141c0,5.1,2.6,9.5,7.7,13c9.1,6.1,26.4,8.9,49.2,8.9c22.7,0,39.8-2.8,49-8.9c5.3-3.5,7.7-7.9,7.7-13s-2.4-9.5-7.7-12.8
				c-9.1-6.1-26.2-9.1-49-9.1c-22.7,0-40,3-49.2,9.1C5077.9,4131.5,5075.3,4136,5075.3,4141z"/>
			<path class="st0" d="M5358.6,4156.3h-39.2v-164.1h62.4v11.2h-50.2v64.6h45.5v11h-45.5v66.6h27.4c13.4,0,26-1,35.3-5.5v10.6
				C5385.4,4155.1,5372.6,4156.3,5358.6,4156.3z M5426,4166.8h-11.8v-90.4h-26.8v-10.8h26.8v-75.8h11.8V4166.8z M5465.4,4168.9
				h-12.2v-180h12.2V4168.9z"/>
			<path class="st0" d="M5512.5,4160.5v-10.4h160.3v10.4H5512.5z M5592.6,4041.1c-10.6,25.4-35.1,47.9-77,56.5v-11.4
				c41.8-9.1,70.7-37.2,70.7-76.6v-18.5h12.4v18.5c0,39.4,30.3,67.4,70.9,76.6v11.4C5628.3,4088.6,5603.1,4066.5,5592.6,4041.1z"/>
			<path class="st0" d="M5711.6,4160.5v-10.4h160.3v10.4H5711.6z M5861.9,4003.3h-128v40.8h125.5v10.8h-125.5v40.6h130.2v11h-142.6
				v-114.1h140.3V4003.3z"/>
			<path class="st0" d="M5898.2,4182.5v-10.8c23.8,0,33.5-13.6,33.5-91.4c0-77.8-9.7-91.4-33.5-91.4v-10.8
				c31.7,0,45.9,15.8,45.9,102.2C5944.1,4166.8,5929.9,4182.5,5898.2,4182.5z"/>
		</g>
	</g>
	<g>
		<g>
			<line class="st6" x1="1015.7" y1="4467" x2="1015.7" y2="4699"/>
			<g>
				<polygon class="st7" points="1015.7,4706.1 1011.6,4696.2 1015.7,4698.5 1019.8,4696.2 				"/>
			</g>
		</g>
	</g>
	<g>
		<g>
			<line class="st6" x1="1015.7" y1="5927.6" x2="1015.7" y2="6159.6"/>
			<g>
				<polygon class="st7" points="1015.7,6166.6 1011.6,6156.7 1015.7,6159 1019.8,6156.7 				"/>
			</g>
		</g>
	</g>
	<g>
		<g>
			<line class="st6" x1="1015.7" y1="7388.1" x2="1015.7" y2="7620.1"/>
			<g>
				<polygon class="st7" points="1015.7,7627.2 1011.6,7617.2 1015.7,7619.6 1019.8,7617.2 				"/>
			</g>
		</g>
	</g>
	<g>
		<g>
			<line class="st6" x1="1015.7" y1="8848.6" x2="1015.7" y2="9080.6"/>
			<g>
				<polygon class="st7" points="1015.7,9087.7 1011.6,9077.8 1015.7,9080.1 1019.8,9077.8 				"/>
			</g>
		</g>
	</g>
	<g>
		<g>
			<path class="st0" d="M2384.4,5201.4l-11.2-35.3h-63l-11.2,35.3h-24.4l53-159.2h27.8l53.2,159.2H2384.4z M2341.7,5065.5l-25.2,80
				h50.2L2341.7,5065.5z"/>
			<path class="st0" d="M2523.3,5201.4h-22.5v-69.5c0-19.7-7.9-28.4-22.5-28.4c-16.2,0-28.6,12.8-28.6,36.4v61.5h-22.1v-113.7h22.1
				v19.1c5.3-13.2,16.9-21.7,34.1-21.7c25.4,0,39.6,16.2,39.6,45.3V5201.4z"/>
			<path class="st0" d="M2589.9,5204c-26.4,0-43.1-13-43.1-36.2c0-23,16.7-36.2,43.1-36.2c15.6,0,28,5.3,32.1,14.6v-18.5
				c0-15.4-8.1-24.4-24.6-24.4c-14.6,0-22.1,6.3-23.8,17.9h-22.5c1.6-22.5,17.3-36.4,46.3-36.4c31.7,0,47.1,16.9,47.1,42.9v57.9
				c0,5.7,1,11.8,2.6,15.6h-23c-1.4-3-2.2-7.3-2.2-12.2C2618.4,5198.1,2606.8,5204,2589.9,5204z M2622.2,5167.9
				c0-11.8-9.1-18.1-26.6-18.1c-17.3,0-26.4,6.3-26.4,18.1c0,12,9.1,18.1,26.4,18.1C2613.1,5186,2622.2,5179.9,2622.2,5167.9z"/>
			<path class="st0" d="M2673.8,5201.4v-159.2h22.3v159.2H2673.8z"/>
			<path class="st0" d="M2760.3,5201.8l-43.7-114.1h23.4l31.7,86.1l30.9-86.1h23.4l-51.8,138.9c-7.5,20.1-17.7,24.4-34.5,24.4
				c-3,0-6.7,0-9.3-0.2v-18.3h7.5c7.3,0,12.4-2.4,16-12.8L2760.3,5201.8z"/>
			<path class="st0" d="M2925.4,5104.3l-56.9,78.6h58.5v18.5h-86.3v-16.7l56.9-78.6h-55v-18.5h82.9V5104.3z"/>
			<path class="st0" d="M2951.4,5066.1v-24h22.5v24H2951.4z M2951.4,5201.4v-113.7h22.5v113.7H2951.4z"/>
			<path class="st0" d="M3099.5,5201.4H3077v-69.5c0-19.7-7.9-28.4-22.5-28.4c-16.2,0-28.6,12.8-28.6,36.4v61.5h-22.1v-113.7h22.1
				v19.1c5.3-13.2,16.9-21.7,34.1-21.7c25.4,0,39.6,16.2,39.6,45.3V5201.4z"/>
			<path class="st0" d="M3224.4,5087.6v118c0,27.4-14,48.5-48.1,48.5c-27.2,0-43.9-13.2-46.9-34.9h23c1.6,11.2,10.2,17.1,24,17.1
				c17.7,0,25.6-10.4,25.6-28.8v-23.8c-4.3,12.4-16.2,20.3-32.5,20.3c-28,0-45.5-18.7-45.5-59.5c0-40.8,17.5-59.5,45.5-59.5
				c16.2,0,28.2,7.9,32.5,20.3v-17.7H3224.4z M3174.2,5103.7c-21.1,0-28,15.8-28,40.8c0,25.2,6.9,40.8,28,40.8
				c20.9,0,27.6-15.6,27.6-40.8C3201.9,5119.5,3195.2,5103.7,3174.2,5103.7z"/>
			<path class="st0" d="M2337.7,5438.7v10.8c-23.8,0-33.5,13.6-33.5,91.4s9.7,91.4,33.5,91.4v10.8c-31.7,0-45.9-15.6-45.9-102.2
				C2291.8,5454.5,2306,5438.7,2337.7,5438.7z"/>
			<path class="st0" d="M2420.5,5461l57.3,157.8H2464l-14-39.4h-73.3l-13.8,39.4H2349l57.1-157.8H2420.5z M2380.7,5568h65.2
				l-32.5-92.2L2380.7,5568z"/>
			<path class="st0" d="M2514,5618.8h-13V5461h13V5618.8z"/>
			<path class="st0" d="M2613.9,5561.3v-10.6h162.3v10.6h-72.7v34.7h-12.4v-34.7H2613.9z M2638.9,5476.4h112.3v-24.6h12.4v74.7
				h-137.1v-74.7h12.4V5476.4z M2638.9,5583.9v35.7h128.4v10.8h-140.8v-46.5H2638.9z M2751.2,5515.8V5487h-112.3v28.8H2751.2z"/>
			<path class="st0" d="M2869,5450.6v28c0,30.3,21.5,49.6,44.7,56.9v11.4c-24-7.1-43.5-23.2-51-40.8c-6.3,18.1-25.4,35.5-51,43.1
				v-11.6c24-7.5,44.9-28.6,44.9-58.9v-28H2869z M2951.4,5632.6v-51.4h-123.1v-10.8h135.5v62.2H2951.4z M2963.8,5552.4h-12.4v-57.1
				h-44.7v-11h44.7v-34.9h12.4V5552.4z"/>
			<path class="st0" d="M3012,5535.3v-10.6h162.3v10.6H3012z M3021.1,5477.1c0-7.3,2.8-12.6,8.9-17.1c10.8-7.3,31.5-10.6,63.4-10.6
				c31.9,0,52.6,3.2,63.2,10.6c6.3,4.5,9.1,9.7,9.1,17.1c0,6.9-2.8,12.4-9.1,16.7c-10.6,7.5-31.3,10.8-63.2,10.8
				c-31.9,0-52.6-3.2-63.4-10.8C3023.9,5489.4,3021.1,5484,3021.1,5477.1z M3036.9,5600.1v21.3h129.4v10.2h-141.8V5590h124.7v-21.7
				h-124.7v-10.2h137.1v42H3036.9z M3033.5,5477.1c0,3.7,1.6,6.9,5.5,9.3c7.9,5.5,25.6,7.7,54.4,7.7c28.8,0,46.5-2.2,54.6-7.7
				c3.7-2.4,5.3-5.7,5.3-9.3c0-3.9-1.6-7.3-5.3-9.7c-8.1-5.3-25.8-7.7-54.6-7.7c-28.8,0-46.5,2.4-54.4,7.7
				C3035.1,5469.7,3033.5,5473.2,3033.5,5477.1z"/>
			<path class="st0" d="M3281.1,5501.8c0-5.3,2.6-9.5,7.5-12.8c7.5-5.5,21.1-8.3,38.4-8.3c17.5,0,30.9,2.8,38.6,8.3
				c4.7,3.2,7.3,7.5,7.3,12.8c0,5.5-2.6,9.7-7.3,13c-6.7,4.9-18.1,7.5-32.5,8.1v16.5h31.9c18.3,0,33.1-3.7,42.2-9.7v-80.2h12.4v48.9
				h28.6v10.8h-28.6v45.3h-12.4V5539c-9.5,6.9-24.4,10-44.9,10h-89v-9.5h47.3V5523c-14.2-0.6-25.6-3.2-32.1-8.1
				C3283.7,5511.6,3281.1,5507.3,3281.1,5501.8z M3321.1,5443.5h12.4v15.4h44.3v9.5h-101.1v-9.5h44.5V5443.5z M3300.8,5604v18.5
				H3422v9.1h-133.6v-36.8h118.8V5577h-118.8v-9.5h131.2v36.6H3300.8z M3293.1,5501.8c0,2.6,1.2,4.5,3.7,6.5
				c5.7,3.9,16.7,5.9,30.3,5.9s24.8-2,30.3-5.9c2.6-2,3.9-3.9,3.9-6.5c0-2.6-1.2-4.7-3.9-6.3c-5.5-4.1-16.7-5.9-30.3-5.9
				s-24.6,1.8-30.3,5.9C3294.3,5497.2,3293.1,5499.2,3293.1,5501.8z"/>
			<path class="st0" d="M3481.9,5481.3c0-8.5,3.7-15.2,11-20.1c12-8.3,33.3-11.8,61.3-11.8c27.8,0,49.4,3.5,61.3,11.8
				c7.1,4.9,11,11.6,11,20.1c0,8.5-3.9,15.2-11,20.1c-5.3,3.5-12.2,6.3-20.7,8.1v28h40.2v11h-162.3v-11h41v-28
				c-8.7-1.8-15.6-4.5-20.9-8.1C3485.6,5496.5,3481.9,5489.8,3481.9,5481.3z M3481.9,5603.2c0-8.9,4.1-16,12.6-20.9
				c12.2-7.5,32.3-11.4,59.7-11.4c27.4,0,47.5,3.9,59.5,11.4c8.5,4.9,12.8,12,12.8,20.9c0,8.9-4.3,16-12.8,21.1
				c-12,7.5-32.1,10.8-59.5,10.8c-27.4,0-47.5-3.2-59.7-10.8C3486,5619.2,3481.9,5612.1,3481.9,5603.2z M3494.3,5481.3
				c0,4.9,2.4,8.9,7.1,12c9.3,6.3,27.6,9.3,52.8,9.3c25.2,0,43.5-3,52.8-9.3c4.9-3,7.1-7.1,7.1-12c0-4.9-2.2-8.9-7.1-12
				c-9.3-6.5-27.6-9.3-52.8-9.3c-25.2,0-43.5,2.8-52.8,9.3C3496.8,5472.4,3494.3,5476.4,3494.3,5481.3z M3494.3,5603.2
				c0,4.9,2.4,9.1,7.5,12.2c9.3,6.1,27.2,9.1,52.4,9.1c25.2,0,43.1-3,52.4-9.1c5.3-3,7.5-7.3,7.5-12.2c0-4.9-2.2-8.9-7.5-12.6
				c-9.3-5.7-27.2-8.7-52.4-8.7c-25.2,0-43.1,3-52.4,8.7C3496.8,5594.2,3494.3,5598.3,3494.3,5603.2z M3582.7,5511.6
				c-8.5,1-18.1,1.6-28.4,1.6c-10.4,0-19.9-0.4-28.2-1.6v26h56.7V5511.6z"/>
			<path class="st0" d="M3771.2,5476.4H3669v-10.6h45.1v-22.3h12.2v22.3h44.9V5476.4z M3674.7,5529.2c0-10.2,4.5-18.7,12-24.6
				c8.1-6.5,20.1-10.4,33.3-10.4c13.4,0,25.2,3.9,33.5,10.4c7.5,5.9,12,14.4,12,24.6c0,10.2-4.5,18.7-12,24.6
				c-8.3,6.7-20.1,10.2-33.5,10.2c-13.2,0-25.2-3.5-33.3-10.2C3679.1,5547.9,3674.7,5539.4,3674.7,5529.2z M3698.8,5580.2v39.4
				h122.3v10.8h-134.7v-50.2H3698.8z M3686.9,5529.2c0,6.9,2.8,12.4,7.7,16.5c6.3,5.3,15.4,8.1,25.4,8.1c10.2,0,19.3-2.8,25.6-8.1
				c4.9-4.1,7.7-9.5,7.7-16.5s-2.8-12.2-7.7-16.5c-6.3-5.1-15.4-8.1-25.6-8.1c-10,0-19.1,3-25.4,8.1
				C3689.7,5517.1,3686.9,5522.3,3686.9,5529.2z M3817.7,5449.4v54.4h28.4v11.2h-28.4v65h-12.4v-130.6H3817.7z"/>
			<path class="st0" d="M3989.7,5450.6v24.4c0,30.9,21.7,49.6,44.7,57.1v11.2c-24-6.9-43.5-23-51-40.8c-6.3,18.1-25.4,35.5-51,43.1
				v-11.4c24-7.7,44.9-28.6,44.9-59.1v-24.4H3989.7z M3951.5,5631.6v-65.2h133v65.2H3951.5z M4072.2,5577.2h-108.3v43.9h108.3
				V5577.2z M4084.5,5549.6h-12.4v-100.1h12.4V5549.6z"/>
			<path class="st0" d="M4132.7,5552.4v-10.8H4295v10.8H4132.7z M4141.8,5604.6c0-9.1,4.7-16,13.8-20.9c12.4-6.9,32.5-10,58.5-10
				c25.8,0,46.1,3,58.5,10c8.9,4.9,13.8,11.8,13.8,20.9c0,9.1-4.9,16-13.8,20.9c-12.4,6.7-32.7,9.5-58.5,9.5
				c-26,0-46.1-2.8-58.5-9.5C4146.5,5620.6,4141.8,5613.7,4141.8,5604.6z M4145.3,5472.4v-10.6h62.2v-19.3h12.4v19.3h62.6v10.6
				h-62.6c1.4,20.7,37.8,35.3,65,37.4v10.8c-29.2-2.2-59.9-15-71.1-32.5c-12,17.7-42.9,30.7-71.5,32.5v-10.8
				c27-1.4,63.8-16.9,65.2-37.4H4145.3z M4154.2,5604.6c0,4.7,2.6,8.5,7.9,11.8c9.5,5.3,27.4,8.3,52,8.3c24.4,0,42.2-3,51.8-8.3
				c5.7-3.2,8.1-7.1,8.1-11.8c0-4.9-2.4-8.7-8.1-11.8c-9.5-5.7-27.4-8.5-51.8-8.5c-24.6,0-42.4,2.8-52,8.5
				C4156.8,5595.9,4154.2,5599.7,4154.2,5604.6z"/>
			<path class="st0" d="M4337.8,5451.9h90.6v10.8h-39.2v19.1c0,29.9,21.1,47.3,42.2,52.4v11.4c-21.9-5.3-40.4-19.3-48.1-37.2
				c-7.3,18.3-25.8,34.7-48.3,39.6v-11.4c21.9-5.1,41.8-24.2,41.8-54.8v-19.1h-39V5451.9z M4470.2,5632.6v-51.4h-123.1v-10.8h135.5
				v62.2H4470.2z M4482.6,5552.4h-12.4v-51.6h-42.5V5490h42.5v-40.6h12.4V5552.4z"/>
			<path class="st0" d="M4536.6,5534.5c0-34.5,4.3-59.7,16.9-73.3c6.9-7.7,16.9-11.8,28.8-11.8s21.7,4.1,28.8,11.8
				c12.8,13.6,17.1,38.8,17.1,73.3s-4.3,59.9-17.1,73.5c-7.1,7.9-16.9,11.2-28.8,11.2s-21.9-3.2-28.8-11.2
				C4540.9,5594.4,4536.6,5569.1,4536.6,5534.5z M4615.8,5534.5c0-31.7-3.5-54.4-13.6-65.8c-4.9-5.5-11.6-8.5-19.9-8.5
				c-8.1,0-14.8,3-19.9,8.5c-10,11.4-13.4,34.1-13.4,65.8c0,31.9,3.5,54.8,13.4,66.2c5.1,5.3,11.8,8.1,19.9,8.1
				c8.3,0,15-2.8,19.9-8.1C4612.4,5589.4,4615.8,5566.4,4615.8,5534.5z M4668.5,5629.2v-179.8h12.4v179.8H4668.5z"/>
			<path class="st0" d="M4730.8,5621.1v-10.4h58.3v-90h12.4v90h89.6v10.4H4730.8z M4868.7,5515.6v-51.6h-129v-11.2h141.4v60.7
				c0,20.7-1.6,43.5-4.7,59.5H4864C4867.1,5557.5,4868.7,5534.9,4868.7,5515.6z"/>
			<path class="st0" d="M4997.7,5451.9h90.6v10.8h-39.2v26c0,29.9,21.1,47.1,42.2,52.4v11.2c-21.9-5.1-40.4-19.1-48.1-37
				c-7.3,18.3-25.8,34.5-48.3,39.6v-11.4c21.9-4.9,41.8-24.2,41.8-54.8v-26h-39V5451.9z M5146.1,5630.4h-136.7v-57.1h12.4v46.3
				h124.3V5630.4z M5142.5,5574.5h-12.4v-69.5h-42.2v-10.8h42.2v-44.9h12.4V5574.5z"/>
			<path class="st0" d="M5196.7,5546.1v-94.2h84.7v20.5h47.7v-23h12.4v125.1h-12.4V5527h-47.7v19.1H5196.7z M5345.2,5630.4h-136.7
				v-57.1h12.4v46.3h124.3V5630.4z M5269,5462.6h-59.9v72.9h59.9V5462.6z M5281.4,5483.1v33.1h47.7v-33.1H5281.4z"/>
			<path class="st0" d="M5395.8,5451.9h90.6v10.8h-39.2v19.1c0,29.9,21.1,47.3,42.2,52.4v11.4c-21.9-5.3-40.4-19.3-48.1-37.2
				c-7.3,18.3-25.8,34.7-48.3,39.6v-11.4c21.9-5.1,41.8-24.2,41.8-54.8v-19.1h-39V5451.9z M5528.2,5632.6v-51.4h-123.1v-10.8h135.5
				v62.2H5528.2z M5540.6,5552.4h-12.4v-51.6h-42.5V5490h42.5v-40.6h12.4V5552.4z"/>
			<path class="st0" d="M5592.4,5499.4c0-17.3,5.5-30.9,14.8-39.8c7.7-7.3,18.7-11.2,31.7-11.2s23.8,3.9,31.5,11.2
				c9.5,8.9,14.8,22.5,14.8,39.8c0,17.5-5.3,31.1-14.8,40c-7.7,7.3-18.5,11.4-31.5,11.4s-24-4.1-31.7-11.4
				C5597.8,5530.5,5592.4,5516.9,5592.4,5499.4z M5604.5,5499.4c0,13.6,3.7,24.6,10.8,31.5c5.7,5.9,13.8,9.1,23.6,9.1
				s17.7-3.2,23.6-9.1c6.9-6.9,10.6-17.9,10.6-31.5c0-13.4-3.7-24.4-10.6-31.3c-5.9-5.9-13.8-8.9-23.6-8.9s-17.9,3-23.6,8.9
				C5608.2,5475,5604.5,5486,5604.5,5499.4z M5743.3,5630.4h-136.7v-57.1h12.4v46.3h124.3V5630.4z M5739.6,5574.5h-12.4v-125.1h12.4
				V5574.5z"/>
			<path class="st0" d="M5901.7,5560.5c-5.9,25.6-26.8,46.9-52,56.5v-11.4c23.2-10.6,45.7-32.1,45.7-81.6v-72.3h12.4v72.3
				c0,49.6,23,70.3,45.9,81.6v11.4C5928.9,5606.8,5907.6,5586.1,5901.7,5560.5z M5988.2,5629.2v-179.8h12.4v179.8H5988.2z"/>
			<path class="st0" d="M6151.1,5474.2h-102.2v-10.4h45.1v-20.3h12.2v20.3h44.9V5474.2z M6054.4,5521.1c0-9.3,4.3-16.9,11.4-22.1
				c8.3-6.3,20.3-9.5,34.1-9.5c14,0,25.8,3.2,34.1,9.5c7.1,5.3,11.4,12.8,11.4,22.1c0,9.3-4.3,16.9-11.4,22.3
				c-8.3,6.1-20.1,9.5-34.1,9.5c-13.8,0-25.8-3.5-34.1-9.5C6058.7,5538,6054.4,5530.5,6054.4,5521.1z M6066.6,5521.1
				c0,5.9,2.8,11,7.5,14.4c5.9,4.9,15.4,7.5,25.8,7.5s20.1-2.6,25.8-7.5c4.7-3.5,7.5-8.5,7.5-14.4s-2.8-10.6-7.5-14.2
				c-5.7-4.9-15.4-7.5-25.8-7.5s-19.9,2.6-25.8,7.5C6069.4,5510.6,6066.6,5515.2,6066.6,5521.1z M6067.4,5631.6v-57.7h133v57.7
				H6067.4z M6188.1,5584.5h-108.3v36.6h108.3V5584.5z M6200.4,5557.1h-12.4v-40.2h-35.5v-11h35.5v-56.5h12.4V5557.1z"/>
			<path class="st0" d="M6389.1,5462.8h-71.5v-11h83.9v7.5c0,49.4-36.2,71.3-88.8,76v-11C6357.8,5520.7,6389.1,5500.6,6389.1,5462.8
				z M6341.6,5596.9v24.6h123.1v10.2h-135.5v-44.9h120.6V5562h-120.6v-10.2h133v45.1H6341.6z M6408.4,5479.7v-10.8h41.4v-19.5h12.4
				v86.9h-12.4v-23.6H6406v-10.6h43.9v-22.5H6408.4z"/>
			<path class="st0" d="M6656.2,5449.4v77.4h30.3v10.6h-30.3v91.8h-12.4v-23.4c-9.7,8.7-27,12.8-46.9,12.8H6512v-10.4h30.3v-87.9
				h12.4v87.9h43.9c19.1,0,35.3-4.5,45.3-12.8v-146H6656.2z M6594.3,5519.9v-55.9h-75.2v-11.2h87.5v65.4c0,18.3-1.8,38.8-4.7,51.6
				h-12.4C6592.6,5557.1,6594.3,5537.2,6594.3,5519.9z"/>
			<path class="st0" d="M6772.2,5561.3v-10.6h162.3v10.6h-72.7v34.7h-12.4v-34.7H6772.2z M6797.1,5476.4h112.3v-24.6h12.4v74.7
				h-137.1v-74.7h12.4V5476.4z M6797.1,5583.9v35.7h128.4v10.8h-140.8v-46.5H6797.1z M6909.5,5515.8V5487h-112.3v28.8H6909.5z"/>
			<path class="st0" d="M7027.3,5450.6v28c0,30.3,21.5,49.6,44.7,56.9v11.4c-24-7.1-43.5-23.2-51-40.8c-6.3,18.1-25.4,35.5-51,43.1
				v-11.6c24-7.5,44.9-28.6,44.9-58.9v-28H7027.3z M7109.7,5632.6v-51.4h-123.1v-10.8h135.5v62.2H7109.7z M7122.1,5552.4h-12.4
				v-57.1H7065v-11h44.7v-34.9h12.4V5552.4z"/>
			<path class="st0" d="M7158.9,5643v-10.8c23.8,0,33.5-13.6,33.5-91.4s-9.8-91.4-33.5-91.4v-10.8c31.7,0,45.9,15.8,45.9,102.2
				C7204.8,5627.4,7190.6,5643,7158.9,5643z"/>
		</g>
	</g>
	<g>
		<g>
			<path class="st0" d="M2344.8,6644.1c22.5,0,35.1-13.4,36.6-34.9h23.6c-1.8,32.9-23.4,55.4-60.1,55.4c-50.4,0-61.9-39.6-61.9-82.3
				c0-42.5,11.8-82.3,61.9-82.3c36.8,0,58.3,22.7,60.1,55.7h-23.6c-1.4-21.5-14-34.9-36.6-34.9c-30.3,0-38.4,23.8-38.4,61.5
				C2306.4,6620.7,2314.7,6644.1,2344.8,6644.1z"/>
			<path class="st0" d="M2429.9,6548.2h22.3v69.5c0,19.7,7.9,28.4,22.5,28.4c16.5,0,28.6-12.8,28.6-36.4v-61.5h22.3v113.7h-22.3
				v-19.1c-5.3,13.2-16.9,21.7-34.1,21.7c-25.2,0-39.4-16.2-39.4-45.3V6548.2z"/>
			<path class="st0" d="M2576.7,6603.6v58.3h-22.1v-113.7h22.1v19.1c4.9-14.4,14-21.7,31.5-21.7c3.5,0,7.3,0.2,9.3,0.8l-0.4,18.3
				c-1.8-0.2-5.5-0.4-9.5-0.4C2588.5,6564.2,2576.7,6577.6,2576.7,6603.6z"/>
			<path class="st0" d="M2674.4,6664.6c-26.4,0-43.1-13-43.1-36.2c0-23,16.7-36.2,43.1-36.2c15.6,0,28,5.3,32.1,14.6v-18.5
				c0-15.4-8.1-24.4-24.6-24.4c-14.6,0-22.1,6.3-23.8,17.9h-22.5c1.6-22.5,17.3-36.4,46.3-36.4c31.7,0,47.1,16.9,47.1,42.9v57.9
				c0,5.7,1,11.8,2.6,15.6h-23c-1.4-3-2.2-7.3-2.2-12.2C2702.8,6658.7,2691.3,6664.6,2674.4,6664.6z M2706.7,6628.4
				c0-11.8-9.1-18.1-26.6-18.1c-17.3,0-26.4,6.3-26.4,18.1c0,12,9.1,18.1,26.4,18.1C2697.6,6646.5,2706.7,6640.4,2706.7,6628.4z"/>
			<path class="st0" d="M2786.9,6627.4c0,14.2,5.3,17.7,19.5,17.7h11.4v17.9c-3.7,0.6-10.4,0.6-15.2,0.6c-26.6,0-38-7.7-38-32.1
				v-64.8h-16.5v-18.5h16.5v-32.3h22.3v32.3h30.9v18.5h-30.9V6627.4z"/>
			<path class="st0" d="M2841.8,6526.7v-24h22.5v24H2841.8z M2841.8,6661.9v-113.7h22.5v113.7H2841.8z"/>
			<path class="st0" d="M2989.8,6661.9h-22.5v-69.5c0-19.7-7.9-28.4-22.5-28.4c-16.2,0-28.6,12.8-28.6,36.4v61.5H2894v-113.7h22.1
				v19.1c5.3-13.2,16.9-21.7,34.1-21.7c25.4,0,39.6,16.2,39.6,45.3V6661.9z"/>
			<path class="st0" d="M3114.7,6548.2v118c0,27.4-14,48.5-48.1,48.5c-27.2,0-43.9-13.2-46.9-34.9h23c1.6,11.2,10.2,17.1,24,17.1
				c17.7,0,25.6-10.4,25.6-28.8v-23.8c-4.3,12.4-16.2,20.3-32.5,20.3c-28,0-45.5-18.7-45.5-59.5c0-40.8,17.5-59.5,45.5-59.5
				c16.2,0,28.2,7.9,32.5,20.3v-17.7H3114.7z M3064.6,6564.2c-21.1,0-28,15.8-28,40.8c0,25.2,6.9,40.8,28,40.8
				c20.9,0,27.6-15.6,27.6-40.8C3092.2,6580.1,3085.5,6564.2,3064.6,6564.2z"/>
			<path class="st0" d="M2337.7,6899.2v10.8c-23.8,0-33.5,13.6-33.5,91.4s9.7,91.4,33.5,91.4v10.8c-31.7,0-45.9-15.6-45.9-102.2
				C2291.8,6915,2306,6899.2,2337.7,6899.2z"/>
			<path class="st0" d="M2420.5,6921.5l57.3,157.8H2464l-14-39.4h-73.3l-13.8,39.4H2349l57.1-157.8H2420.5z M2380.7,7028.6h65.2
				l-32.5-92.2L2380.7,7028.6z"/>
			<path class="st0" d="M2514,7079.4h-13v-157.8h13V7079.4z"/>
			<path class="st0" d="M2614.9,7043.2v-11h160.3v11H2701v50h-12.4v-50H2614.9z M2624.8,6937.6v-11h63.8v-23.6h12.4v23.6h64.2v11
				H2701v0.4c0,32.5,33.1,52.6,65.8,58.1v11c-33.5-5.7-60.3-21.3-71.9-44.3c-11.6,23-39.8,38.6-72.1,44.3v-11
				c31.5-5.3,65.8-25.6,65.8-58.1v-0.4H2624.8z"/>
			<path class="st0" d="M2819,6930.1h39v-25.8h12.4v25.8h39.2v11h-39.2v11.6c0,30.3,21.1,47.1,42.2,52.2v11.4
				c-21.9-4.9-40.4-19.1-48.1-37c-7.3,18.1-25.8,34.5-48.3,39.4v-11.2c21.9-4.9,41.8-24,41.8-54.8V6941h-39V6930.1z M2967.5,7090.9
				h-136.7v-54.6h12.4v43.9h124.3V7090.9z M2963.8,7036.7h-12.4v-62.4H2910v-11h41.4V6910h12.4V7036.7z"/>
			<path class="st0" d="M3012,6995.9v-10.6h162.3v10.6H3012z M3021.1,6937.6c0-7.3,2.8-12.6,8.9-17.1c10.8-7.3,31.5-10.6,63.4-10.6
				c31.9,0,52.6,3.2,63.2,10.6c6.3,4.5,9.1,9.8,9.1,17.1c0,6.9-2.8,12.4-9.1,16.7c-10.6,7.5-31.3,10.8-63.2,10.8
				c-31.9,0-52.6-3.2-63.4-10.8C3023.9,6950,3021.1,6944.5,3021.1,6937.6z M3036.9,7060.7v21.3h129.4v10.2h-141.8v-41.6h124.7v-21.7
				h-124.7v-10.2h137.1v42H3036.9z M3033.5,6937.6c0,3.7,1.6,6.9,5.5,9.3c7.9,5.5,25.6,7.7,54.4,7.7c28.8,0,46.5-2.2,54.6-7.7
				c3.7-2.4,5.3-5.7,5.3-9.3c0-3.9-1.6-7.3-5.3-9.7c-8.1-5.3-25.8-7.7-54.6-7.7c-28.8,0-46.5,2.4-54.4,7.7
				C3035.1,6930.3,3033.5,6933.7,3033.5,6937.6z"/>
			<path class="st0" d="M3281.1,6962.4c0-5.3,2.6-9.5,7.5-12.8c7.5-5.5,21.1-8.3,38.4-8.3c17.5,0,30.9,2.8,38.6,8.3
				c4.7,3.2,7.3,7.5,7.3,12.8c0,5.5-2.6,9.7-7.3,13c-6.7,4.9-18.1,7.5-32.5,8.1v16.5h31.9c18.3,0,33.1-3.7,42.2-9.7V6910h12.4v48.9
				h28.6v10.8h-28.6v45.3h-12.4v-15.4c-9.5,6.9-24.4,10-44.9,10h-89v-9.5h47.3v-16.5c-14.2-0.6-25.6-3.2-32.1-8.1
				C3283.7,6972.1,3281.1,6967.9,3281.1,6962.4z M3321.1,6904.1h12.4v15.4h44.3v9.5h-101.1v-9.5h44.5V6904.1z M3300.8,7064.5v18.5
				H3422v9.1h-133.6v-36.8h118.8v-17.9h-118.8v-9.5h131.2v36.6H3300.8z M3293.1,6962.4c0,2.6,1.2,4.5,3.7,6.5
				c5.7,3.9,16.7,5.9,30.3,5.9s24.8-2,30.3-5.9c2.6-2,3.9-3.9,3.9-6.5s-1.2-4.7-3.9-6.3c-5.5-4.1-16.7-5.9-30.3-5.9
				s-24.6,1.8-30.3,5.9C3294.3,6957.7,3293.1,6959.7,3293.1,6962.4z"/>
			<path class="st0" d="M3481.9,6941.9c0-8.5,3.7-15.2,11-20.1c12-8.3,33.3-11.8,61.3-11.8c27.8,0,49.4,3.5,61.3,11.8
				c7.1,4.9,11,11.6,11,20.1c0,8.5-3.9,15.2-11,20.1c-5.3,3.5-12.2,6.3-20.7,8.1v28h40.2v11h-162.3v-11h41v-28
				c-8.7-1.8-15.6-4.5-20.9-8.1C3485.6,6957.1,3481.9,6950.4,3481.9,6941.9z M3481.9,7063.7c0-8.9,4.1-16,12.6-20.9
				c12.2-7.5,32.3-11.4,59.7-11.4c27.4,0,47.5,3.9,59.5,11.4c8.5,4.9,12.8,12,12.8,20.9c0,8.9-4.3,16-12.8,21.1
				c-12,7.5-32.1,10.8-59.5,10.8c-27.4,0-47.5-3.2-59.7-10.8C3486,7079.8,3481.9,7072.7,3481.9,7063.7z M3494.3,6941.9
				c0,4.9,2.4,8.9,7.1,12c9.3,6.3,27.6,9.3,52.8,9.3c25.2,0,43.5-3,52.8-9.3c4.9-3,7.1-7.1,7.1-12c0-4.9-2.2-8.9-7.1-12
				c-9.3-6.5-27.6-9.3-52.8-9.3c-25.2,0-43.5,2.8-52.8,9.3C3496.8,6932.9,3494.3,6937,3494.3,6941.9z M3494.3,7063.7
				c0,4.9,2.4,9.1,7.5,12.2c9.3,6.1,27.2,9.1,52.4,9.1c25.2,0,43.1-3,52.4-9.1c5.3-3,7.5-7.3,7.5-12.2c0-4.9-2.2-8.9-7.5-12.6
				c-9.3-5.7-27.2-8.7-52.4-8.7c-25.2,0-43.1,3-52.4,8.7C3496.8,7054.8,3494.3,7058.8,3494.3,7063.7z M3582.7,6972.1
				c-8.5,1-18.1,1.6-28.4,1.6c-10.4,0-19.9-0.4-28.2-1.6v26h56.7V6972.1z"/>
			<path class="st0" d="M3771.2,6937H3669v-10.6h45.1v-22.3h12.2v22.3h44.9V6937z M3674.7,6989.8c0-10.2,4.5-18.7,12-24.6
				c8.1-6.5,20.1-10.4,33.3-10.4c13.4,0,25.2,3.9,33.5,10.4c7.5,5.9,12,14.4,12,24.6s-4.5,18.7-12,24.6
				c-8.3,6.7-20.1,10.2-33.5,10.2c-13.2,0-25.2-3.5-33.3-10.2C3679.1,7008.5,3674.7,6999.9,3674.7,6989.8z M3698.8,7040.8v39.4
				h122.3v10.8h-134.7v-50.2H3698.8z M3686.9,6989.8c0,6.9,2.8,12.4,7.7,16.5c6.3,5.3,15.4,8.1,25.4,8.1c10.2,0,19.3-2.8,25.6-8.1
				c4.9-4.1,7.7-9.5,7.7-16.5c0-6.9-2.8-12.2-7.7-16.5c-6.3-5.1-15.4-8.1-25.6-8.1c-10,0-19.1,3-25.4,8.1
				C3689.7,6977.6,3686.9,6982.9,3686.9,6989.8z M3817.7,6910v54.4h28.4v11.2h-28.4v65h-12.4V6910H3817.7z"/>
			<path class="st0" d="M3989.7,6911.2v24.4c0,30.9,21.7,49.6,44.7,57.1v11.2c-24-6.9-43.5-23-51-40.8c-6.3,18.1-25.4,35.5-51,43.1
				v-11.4c24-7.7,44.9-28.6,44.9-59.1v-24.4H3989.7z M4018.5,7094.6c-23,0-43.1-3.5-55.9-11.8c-8.9-5.9-14.2-14-14.2-24.8
				s5.3-18.7,14.2-24.8c12.8-8.3,32.9-12,55.9-12s43.1,3.7,55.9,12c8.9,6.1,14.4,14,14.4,24.8s-5.5,18.9-14.4,24.8
				C4061.6,7091.1,4041.5,7094.6,4018.5,7094.6z M4018.5,7031.8c-20.3,0-38.2,3.5-48.3,10.2c-5.9,4.1-9.3,9.3-9.3,16
				c0,6.5,3.5,11.8,9.3,15.8c10.2,6.9,28,10.2,48.3,10.2c20.3,0,38-3.2,48.3-10.2c6.1-4.1,9.5-9.3,9.5-15.8c0-6.7-3.5-12-9.5-16
				C4056.5,7035.3,4038.8,7031.8,4018.5,7031.8z M4084.5,7012.3h-12.4v-55.4h-44.7v-10.8h44.7V6910h12.4V7012.3z"/>
			<path class="st0" d="M4138.8,6912.4h90.6v10.8h-39.2v19.1c0,29.9,21.1,47.3,42.2,52.4v11.4c-21.9-5.3-40.4-19.3-48.1-37.2
				c-7.3,18.3-25.8,34.7-48.3,39.6v-11.4c21.9-5.1,41.8-24.2,41.8-54.8v-19.1h-39V6912.4z M4271.2,7093.2v-51.4h-123.1V7031h135.5
				v62.2H4271.2z M4283.6,7012.9h-12.4v-51.6h-42.5v-10.8h42.5V6910h12.4V7012.9z"/>
			<path class="st0" d="M4477.5,6910v77.4h30.3v10.6h-30.3v91.8h-12.4v-23.4c-9.7,8.7-27,12.8-46.9,12.8h-84.9v-10.4h30.3v-87.9
				h12.4v87.9h43.9c19.1,0,35.3-4.5,45.3-12.8v-146H4477.5z M4415.6,6980.4v-55.9h-75.2v-11.2h87.5v65.4c0,18.3-1.8,38.8-4.7,51.6
				h-12.4C4414,7017.6,4415.6,6997.7,4415.6,6980.4z"/>
			<path class="st0" d="M4597.2,6957.1c0-15.8,5.3-28.6,14.4-37c7.7-7.3,18.9-11.2,31.9-11.2s24.2,3.9,31.9,11.2
				c3.5,3.2,6.5,6.9,8.7,11.4h47.9V6910h12.4v103H4732v-31.1h-47.5c-2.4,4.9-5.5,8.9-9.1,12.4c-7.7,7.1-18.9,11.4-31.9,11.4
				s-24.2-4.3-31.9-11.4C4602.4,6985.7,4597.2,6973.1,4597.2,6957.1z M4732,7093.2v-51.4h-123.1V7031h135.5v62.2H4732z
				 M4609.3,6957.1c0,12.4,3.7,22.3,10.4,28.8c5.9,5.5,14,8.7,23.8,8.7s17.9-3.2,23.8-8.7c6.7-6.5,10.4-16.5,10.4-28.8
				c0-12.4-3.7-22.3-10.4-28.8c-5.9-5.5-14-8.5-23.8-8.5s-17.9,3-23.8,8.5C4613,6934.7,4609.3,6944.7,4609.3,6957.1z M4687.9,6942.1
				c1.2,4.7,1.8,9.7,1.8,15c0,5.1-0.6,9.8-1.6,14.2h43.9v-29.2H4687.9z"/>
			<path class="st0" d="M4878.9,7007.7h-82.7v-53.4h71.5v-31.5h-71.5v-10.6h83.9v52.8h-71.5v32.3h72.5c19.3,0,34.5-3.2,44.9-11.2
				V6910h12.4v25.6h27.4v11h-27.4v30.1h27.4v11h-27.4v31.9H4926v-23.2C4916,7004.6,4899.8,7007.7,4878.9,7007.7z M4804.7,7062.1
				c0-9.1,4.5-16.2,12.8-21.5c12-7.5,31.3-11.2,56.5-11.2c25,0,44.5,3.7,56.5,11.2c8.3,5.3,12.6,12.4,12.6,21.5
				c0,9.1-4.3,16.2-12.6,21.7c-12,7.3-31.5,10.8-56.5,10.8c-25.2,0-44.5-3.5-56.5-10.8C4809.2,7078.3,4804.7,7071.2,4804.7,7062.1z
				 M4817.1,7062.1c0,5.1,2.6,9.5,7.7,13c9.1,6.1,26.4,8.9,49.2,8.9c22.7,0,39.8-2.8,49-8.9c5.3-3.5,7.7-7.9,7.7-13
				c0-5.1-2.4-9.5-7.7-12.8c-9.1-6.1-26.2-9.1-49-9.1c-22.7,0-40,3-49.2,9.1C4819.8,7052.5,4817.1,7057,4817.1,7062.1z"/>
			<path class="st0" d="M4991.6,6995.9v-10.6h162.3v10.6H4991.6z M5000.7,6937.6c0-7.3,2.8-12.6,8.9-17.1
				c10.8-7.3,31.5-10.6,63.4-10.6c31.9,0,52.6,3.2,63.2,10.6c6.3,4.5,9.1,9.8,9.1,17.1c0,6.9-2.8,12.4-9.1,16.7
				c-10.6,7.5-31.3,10.8-63.2,10.8c-31.9,0-52.6-3.2-63.4-10.8C5003.6,6950,5000.7,6944.5,5000.7,6937.6z M5016.6,7060.7v21.3h129.4
				v10.2h-141.8v-41.6h124.7v-21.7h-124.7v-10.2h137.1v42H5016.6z M5013.1,6937.6c0,3.7,1.6,6.9,5.5,9.3c7.9,5.5,25.6,7.7,54.4,7.7
				c28.8,0,46.5-2.2,54.6-7.7c3.7-2.4,5.3-5.7,5.3-9.3c0-3.9-1.6-7.3-5.3-9.7c-8.1-5.3-25.8-7.7-54.6-7.7c-28.8,0-46.5,2.4-54.4,7.7
				C5014.7,6930.3,5013.1,6933.7,5013.1,6937.6z"/>
			<path class="st0" d="M5352.7,6934.7h-102.2v-10.4h45.1v-20.3h12.2v20.3h44.9V6934.7z M5256.2,6981.7c0-9.3,4.1-16.9,11.2-22.1
				c8.3-6.3,20.3-9.5,34.1-9.5c14,0,26,3.2,34.1,9.5c7.3,5.3,11.4,12.8,11.4,22.1c0,9.3-4.1,16.9-11.4,22.3
				c-8.1,6.1-20.1,9.5-34.1,9.5c-13.8,0-25.8-3.5-34.1-9.5C5260.3,6998.5,5256.2,6991,5256.2,6981.7z M5265.6,7062.5
				c0-9.7,5.1-17.1,14.2-22.1c12-6.9,31.7-10,55-10c23.6,0,42.9,3,55,10c8.9,5.1,14,12.4,14,22.1c0,9.8-5.1,17.3-14,22.1
				c-12.2,6.9-31.5,10-55,10c-23.4,0-43.1-3-55-10C5270.6,7079.8,5265.6,7072.2,5265.6,7062.5z M5268.4,6981.7
				c0,5.9,2.8,11,7.3,14.4c5.9,4.9,15.4,7.5,25.8,7.5c10.6,0,20.1-2.6,26-7.5c4.5-3.5,7.3-8.5,7.3-14.4c0-5.9-2.8-10.6-7.3-14.2
				c-5.9-4.9-15.4-7.5-26-7.5c-10.4,0-19.9,2.6-25.8,7.5C5271.2,6971.1,5268.4,6975.8,5268.4,6981.7z M5278,7062.5
				c0,5.5,3,9.8,8.3,13c9.7,5.9,27,8.5,48.5,8.5c21.5,0,38.8-2.6,48.5-8.5c5.3-3.2,8.1-7.5,8.1-13c0-5.5-2.8-9.5-8.1-13
				c-9.7-5.7-27-8.5-48.5-8.5c-21.5,0-38.8,2.8-48.5,8.5C5281,7053,5278,7057,5278,7062.5z M5399.2,6939.6h27.4v11h-27.4v30.3h27.4
				v10.8h-27.4v28.2h-12.4V6910h12.4V6939.6z"/>
			<path class="st0" d="M5506.2,6911.2v24.4c0,30.9,21.7,49.6,44.9,57.1v11.2c-24.2-6.9-43.5-23-51.2-40.8
				c-6.3,18.1-25.4,35.5-50.8,43.1v-11.4c23.8-7.7,44.7-28.6,44.7-59.1v-24.4H5506.2z M5464.6,7058c0-10.2,4.9-18.1,13.4-24.2
				c12.2-8.5,31.9-12.6,55.9-12.6c24,0,43.7,4.1,55.9,12.6c8.5,6.1,13.2,14,13.2,24.2c0,10.2-4.7,18.1-13.2,24
				c-12.2,8.7-31.9,12.6-55.9,12.6c-24,0-43.7-3.9-55.9-12.6C5469.5,7076.1,5464.6,7068.2,5464.6,7058z M5477,7058
				c0,6.3,3.2,11.8,9.5,16c9.3,6.5,25.8,10,47.3,10c21.3,0,37.8-3.5,47.3-10c6.3-4.3,9.3-9.7,9.3-16c0-6.3-3-12-9.3-16.2
				c-9.5-6.3-26-10-47.3-10c-21.5,0-38,3.7-47.3,10C5480.2,7046,5477,7051.7,5477,7058z M5598.2,6910v43.3h28.4v10.8h-28.4v48.3
				h-12.4V6910H5598.2z"/>
			<path class="st0" d="M5702.6,7021.1c-5.9,25.6-26.8,46.9-52,56.5v-11.4c23.2-10.6,45.7-32.1,45.7-81.7v-72.3h12.4v72.3
				c0,49.6,23,70.3,45.9,81.7v11.4C5729.9,7067.4,5708.5,7046.7,5702.6,7021.1z M5789.2,7089.7V6910h12.4v179.8H5789.2z"/>
			<path class="st0" d="M5886.4,6994.7h-29.2v-10.8h29.7c15.6,0,31.1-2,40.6-5.5c1.2-8.5,1.8-17.7,1.8-27.4v-26.6h-70.9v-11h83.1
				v36.6c0,68-27.2,113.1-84.3,128.2v-11c37-11.4,59.9-37.8,68.4-77.6C5915.9,6992.8,5901.5,6994.7,5886.4,6994.7z M5988.2,7089.7
				V6910h12.4v179.8H5988.2z"/>
			<path class="st0" d="M6128.3,6951.2v-26.6h-70.9v-11.2h83.3v36.6c0,68.2-27.2,113.3-84.5,128.4v-11.2
				C6104,7052.8,6128.3,7012.5,6128.3,6951.2z M6187.2,7089.7V6910h12.4v179.8H6187.2z"/>
			<path class="st0" d="M6451.3,6910h12.4v180h-12.4v-68.4c-10.2,8.5-27,13-47.3,13h-32.3v55.7h-12.4v-55.7H6313v-11.2h93.2
				c18.1,0,34.1-3.9,45.1-12.4V6910z M6321.1,6955.7c0-14.6,5.3-26,14.2-33.5c8.1-7.1,20.1-11.2,33.7-11.2
				c13.8,0,25.8,4.1,33.9,11.2c8.9,7.5,14.2,18.9,14.2,33.5c0,14.2-5.3,25.8-14.2,33.3c-8.1,7.3-20.1,11-33.9,11
				c-13.6,0-25.6-3.7-33.7-11C6326.4,6981.5,6321.1,6969.9,6321.1,6955.7z M6333.5,6955.7c0,10.4,3.5,18.7,9.5,24.2
				c6.3,5.9,15.2,9.1,26,9.1c11,0,19.9-3.2,26.2-9.1c6.1-5.5,9.5-13.8,9.5-24.2c0-10.8-3.5-18.7-9.5-24.6
				c-6.3-5.9-15.2-8.9-26.2-8.9c-10.8,0-19.7,3-26,8.9C6336.9,6937,6333.5,6944.9,6333.5,6955.7z"/>
			<path class="st0" d="M6609.7,6937h-102.2v-10.6h45.1v-22.3h12.2v22.3h44.9V6937z M6513.2,6989.8c0-10.2,4.5-18.7,12-24.6
				c8.1-6.5,20.1-10.4,33.3-10.4c13.4,0,25.2,3.9,33.5,10.4c7.5,5.9,12,14.4,12,24.6s-4.5,18.7-12,24.6
				c-8.3,6.7-20.1,10.2-33.5,10.2c-13.2,0-25.2-3.5-33.3-10.2C6517.7,7008.5,6513.2,6999.9,6513.2,6989.8z M6537.4,7040.8v39.4
				h122.3v10.8H6525v-50.2H6537.4z M6525.4,6989.8c0,6.9,2.8,12.4,7.7,16.5c6.3,5.3,15.4,8.1,25.4,8.1c10.2,0,19.3-2.8,25.6-8.1
				c4.9-4.1,7.7-9.5,7.7-16.5c0-6.9-2.8-12.2-7.7-16.5c-6.3-5.1-15.4-8.1-25.6-8.1c-10,0-19.1,3-25.4,8.1
				C6528.2,6977.6,6525.4,6982.9,6525.4,6989.8z M6656.2,6910v54.4h28.4v11.2h-28.4v65h-12.4V6910H6656.2z"/>
			<path class="st0" d="M6772.2,7021.5v-11h59.3v-33.1h12.4v33.1h90.6v11H6772.2z M6909.7,6948.6v-25.4h-124.9v-11h137.3v33.5
				c0,14.4-1.4,32.5-4.5,44.3h-12.2c2.2-8.5,3.7-20.3,4.1-31.1c-14.6,3.7-37.4,4.7-58.3,4.7h-66.4v-10.8h66.4
				C6871.5,6952.8,6895,6952,6909.7,6948.6z M6797.1,7041.2v39h128.4v10.8h-140.8v-49.8H6797.1z"/>
			<path class="st0" d="M7022.8,7016.6h-46.7v-104.4h63.4v10.6h-51.2v36.2h46.5v10.4h-46.5v37h35.1c10.8,0,23.4-1.8,32.3-5.3v10.4
				C7047,7015,7034.4,7016.6,7022.8,7016.6z M7128.6,7090.9h-138.5v-52.2h12.4v41.4h126.1V7090.9z M7047.2,6967.9v-11.2h25.2V6911
				h12v125.3h-12v-68.4H7047.2z M7112.8,7039.8V6910h12.2v129.8H7112.8z"/>
			<path class="st0" d="M7171.3,7081.6v-10.4h160.3v10.4H7171.3z M7251.3,6975c-11.4,25-39.6,42.2-72.1,48.3v-11
				c32.5-6.5,65.8-28,65.8-64.2v-7.5h-63.8v-11.2h63.8v-26.4h12.4v26.4h64.2v11.2h-64.2v7.5c0,36.2,32.3,57.7,65.8,64.2v11
				C7289.5,7017.2,7262.5,6999.5,7251.3,6975z"/>
			<path class="st0" d="M7433.1,7043.2v-11h160.3v11h-74.1v50h-12.4v-50H7433.1z M7443,6937.6v-11h63.8v-23.6h12.4v23.6h64.2v11
				h-64.2v0.4c0,32.5,33.1,52.6,65.8,58.1v11c-33.5-5.7-60.3-21.3-71.9-44.3c-11.6,23-39.8,38.6-72.1,44.3v-11
				c31.5-5.3,65.8-25.6,65.8-58.1v-0.4H7443z"/>
			<path class="st0" d="M7637.2,6930.1h39v-25.8h12.4v25.8h39.2v11h-39.2v11.6c0,30.3,21.1,47.1,42.2,52.2v11.4
				c-21.9-4.9-40.4-19.1-48.1-37c-7.3,18.1-25.8,34.5-48.3,39.4v-11.2c21.9-4.9,41.8-24,41.8-54.8V6941h-39V6930.1z M7785.6,7090.9
				h-136.7v-54.6h12.4v43.9h124.3V7090.9z M7782,7036.7h-12.4v-62.4h-41.4v-11h41.4V6910h12.4V7036.7z"/>
			<path class="st0" d="M7818.7,7103.5v-10.8c23.8,0,33.5-13.6,33.5-91.4s-9.8-91.4-33.5-91.4v-10.8c31.7,0,45.9,15.8,45.9,102.2
				C7864.6,7087.9,7850.4,7103.5,7818.7,7103.5z"/>
		</g>
	</g>
	<g>
		<g>
			<path class="st0" d="M2286.9,7963.2h94.2v20.5h-70.7v46.9h62.6v20.5h-62.6v50.8h71.9v20.5h-95.5V7963.2z"/>
			<path class="st0" d="M2481.7,7963.2h22.5v159.2h-22.5v-17.7c-4.3,12.4-16.2,20.3-32.5,20.3c-28,0-45.5-18.7-45.5-59.5
				c0-40.8,17.5-59.5,45.5-59.5c16.2,0,28.2,7.9,32.5,20.3V7963.2z M2454,8024.8c-21.1,0-28,15.8-28,40.8c0,25.2,6.9,40.8,28,40.8
				c20.7,0,27.6-15.6,27.6-40.8C2481.7,8040.6,2474.8,8024.8,2454,8024.8z"/>
			<path class="st0" d="M2532.2,8008.7h22.3v69.5c0,19.7,7.9,28.4,22.5,28.4c16.5,0,28.6-12.8,28.6-36.4v-61.5h22.3v113.7h-22.3
				v-19.1c-5.3,13.2-16.9,21.7-34.1,21.7c-25.2,0-39.4-16.2-39.4-45.3V8008.7z"/>
			<path class="st0" d="M2703.5,8006.1c28,0,45.7,14.2,48.5,40h-22.7c-1.4-13.4-10.6-21.5-25.8-21.5c-20.9,0-27.8,15.8-27.8,41
				s6.9,41,27.8,41c15.2,0,24.4-8.1,25.8-21.5h22.7c-2.8,25.8-20.5,40-48.5,40c-33.7,0-50.4-21.5-50.4-59.5
				S2669.7,8006.1,2703.5,8006.1z"/>
			<path class="st0" d="M2814.3,8125.1c-26.4,0-43.1-13-43.1-36.2c0-23,16.7-36.2,43.1-36.2c15.6,0,28,5.3,32.1,14.6V8049
				c0-15.4-8.1-24.4-24.6-24.4c-14.6,0-22.1,6.3-23.8,17.9h-22.5c1.6-22.5,17.3-36.4,46.3-36.4c31.7,0,47.1,16.9,47.1,42.9v57.9
				c0,5.7,1,11.8,2.6,15.6h-23c-1.4-3-2.2-7.3-2.2-12.2C2842.8,8119.2,2831.2,8125.1,2814.3,8125.1z M2846.6,8089
				c0-11.8-9.1-18.1-26.6-18.1c-17.3,0-26.4,6.3-26.4,18.1c0,12,9.1,18.1,26.4,18.1C2837.5,8107,2846.6,8100.9,2846.6,8089z"/>
			<path class="st0" d="M2926.9,8087.9c0,14.2,5.3,17.7,19.5,17.7h11.4v17.9c-3.7,0.6-10.4,0.6-15.2,0.6c-26.6,0-38-7.7-38-32.1
				v-64.8h-16.5v-18.5h16.5v-32.3h22.3v32.3h30.9v18.5h-30.9V8087.9z"/>
			<path class="st0" d="M2981.7,7987.2v-24h22.5v24H2981.7z M2981.7,8122.5v-113.7h22.5v113.7H2981.7z"/>
			<path class="st0" d="M3129.8,8122.5h-22.5V8053c0-19.7-7.9-28.4-22.5-28.4c-16.2,0-28.6,12.8-28.6,36.4v61.5h-22.1v-113.7h22.1
				v19.1c5.3-13.2,16.9-21.7,34.1-21.7c25.4,0,39.6,16.2,39.6,45.3V8122.5z"/>
			<path class="st0" d="M3254.7,8008.7v118c0,27.4-14,48.5-48.1,48.5c-27.2,0-43.9-13.2-46.9-34.9h23c1.6,11.2,10.2,17.1,24,17.1
				c17.7,0,25.6-10.4,25.6-28.8v-23.8c-4.3,12.4-16.2,20.3-32.5,20.3c-28,0-45.5-18.7-45.5-59.5c0-40.8,17.5-59.5,45.5-59.5
				c16.2,0,28.2,7.9,32.5,20.3v-17.7H3254.7z M3204.5,8024.8c-21.1,0-28,15.8-28,40.8c0,25.2,6.9,40.8,28,40.8
				c20.9,0,27.6-15.6,27.6-40.8C3232.1,8040.6,3225.4,8024.8,3204.5,8024.8z"/>
			<path class="st0" d="M2337.7,8359.7v10.8c-23.8,0-33.5,13.6-33.5,91.4s9.7,91.4,33.5,91.4v10.8c-31.7,0-45.9-15.6-45.9-102.2
				C2291.8,8375.6,2306,8359.7,2337.7,8359.7z"/>
			<path class="st0" d="M2372,8406.1c0-10.4,4.3-18.1,12.8-23.8c12.4-8.3,33.1-11.8,59.5-11.8c26.6,0,47.1,3.5,59.3,11.8
				c8.7,5.7,13,13.4,13,23.8c0,10.4-4.3,18.3-13,24c-11.4,7.7-29.9,11.2-53.6,11.8v28h75.2v10.6h-162.3v-10.6h74.7v-28
				c-23.2-0.6-41.4-4.3-52.8-11.8C2376.3,8424.3,2372,8416.4,2372,8406.1z M2387.8,8501.7v39h128.4v10.8h-140.8v-49.8H2387.8z
				 M2384.4,8406.1c0,6.5,2.8,12,9.3,16.2c9.3,6.1,26.2,8.7,50.6,8.7c24.2,0,41.2-2.6,50.6-8.7c6.3-4.3,9.3-9.7,9.3-16.2
				c0-6.7-3-12.2-9.3-16c-9.3-6.1-26.4-9.1-50.6-9.1c-24.4,0-41.2,3-50.6,9.1C2387.2,8393.9,2384.4,8399.4,2384.4,8406.1z"/>
			<path class="st0" d="M2645.6,8537.9h-77.4v-88.4h69.1v-64.6h-69.1v-11.2h81.4v86.9h-69.1v66.4h66.6c19.9,0,37.8-5.7,48.1-15.6
				v-141h12.4v77.4h30.3v10.6h-30.3v92h-12.4V8522C2685.8,8532.4,2666.5,8537.9,2645.6,8537.9z"/>
			<path class="st0" d="M2764.6,8420.5c0-17.3,5.5-30.9,14.8-39.8c7.7-7.3,18.7-11.2,31.7-11.2s23.8,3.9,31.5,11.2
				c9.5,8.9,14.8,22.5,14.8,39.8c0,17.5-5.3,31.1-14.8,40c-7.7,7.3-18.5,11.4-31.5,11.4s-24-4.1-31.7-11.4
				C2770.1,8451.6,2764.6,8437.9,2764.6,8420.5z M2776.8,8420.5c0,13.6,3.7,24.6,10.8,31.5c5.7,5.9,13.8,9.1,23.6,9.1
				s17.7-3.2,23.6-9.1c6.9-6.9,10.6-17.9,10.6-31.5c0-13.4-3.7-24.4-10.6-31.3c-5.9-5.9-13.8-8.9-23.6-8.9s-17.9,3-23.6,8.9
				C2780.4,8396.1,2776.8,8407.1,2776.8,8420.5z M2915.5,8551.5h-136.7v-57.1h12.4v46.3h124.3V8551.5z M2911.8,8495.6h-12.4v-125.1
				h12.4V8495.6z"/>
			<path class="st0" d="M3022.7,8482v-11h59.3v-33.1h12.4v33.1h90.6v11H3022.7z M3160.2,8409.1v-25.4h-124.9v-11h137.3v33.5
				c0,14.4-1.4,32.5-4.5,44.3H3156c2.2-8.5,3.7-20.3,4.1-31.1c-14.6,3.7-37.4,4.7-58.3,4.7h-66.4v-10.8h66.4
				C3122,8413.4,3145.6,8412.6,3160.2,8409.1z M3047.7,8501.7v39h128.4v10.8h-140.8v-49.8H3047.7z"/>
			<path class="st0" d="M3273.4,8477.1h-46.7v-104.4h63.4v10.6h-51.2v36.2h46.5v10.4h-46.5v37h35.1c10.8,0,23.4-1.8,32.3-5.3v10.4
				C3297.5,8475.5,3284.9,8477.1,3273.4,8477.1z M3379.2,8551.5h-138.5v-52.2h12.4v41.4h126.1V8551.5z M3297.7,8428.4v-11.2h25.2
				v-45.7h12v125.3h-12v-68.4H3297.7z M3363.3,8500.3v-129.8h12.2v129.8H3363.3z"/>
			<path class="st0" d="M3421.8,8542.1v-10.4h160.3v10.4H3421.8z M3501.8,8435.5c-11.4,25-39.6,42.2-72.1,48.3v-11
				c32.5-6.5,65.8-28,65.8-64.2v-7.5h-63.8V8390h63.8v-26.4h12.4v26.4h64.2v11.2h-64.2v7.5c0,36.2,32.3,57.7,65.8,64.2v11
				C3540,8477.8,3513,8460.1,3501.8,8435.5z"/>
			<path class="st0" d="M3626.5,8423.9c0-17.9,5.9-32.5,16-41.6c7.9-6.7,18.9-10.8,31.5-10.8s23.6,4.1,31.5,10.8
				c10.4,9.1,16,23.8,16,41.6c0,18.1-5.7,32.9-16,41.8c-6.7,5.9-15.6,9.3-25.8,10.4v53h28.2c19.1,0,35.3-4.3,45.5-12.8v-146h12.4
				v77.4h30.1v10.8h-30.1v92h-12.4v-23.6c-10,8.7-27.2,13.2-47.1,13.2h-84.9v-11h45.9v-53.2c-9.7-1-18.3-4.5-24.8-10.2
				C3632.4,8456.8,3626.5,8442,3626.5,8423.9z M3638.9,8423.9c0,14,3.9,25.8,11.6,33.1c5.9,5.7,13.8,8.7,23.6,8.7
				c9.5,0,17.9-3,23.8-8.7c7.5-7.3,11.4-19.1,11.4-33.1c0-13.8-3.9-25.6-11.4-32.7c-5.9-5.7-14.2-8.5-23.8-8.5
				c-9.8,0-17.7,2.8-23.6,8.5C3642.8,8398.3,3638.9,8410.1,3638.9,8423.9z"/>
			<path class="st0" d="M3951.1,8539.9l-56.1-129.6v129.6h-13v-157.8h14.4l61.9,143.2l61.7-143.2h14.4v157.8h-13v-129.6l-56.1,129.6
				H3951.1z"/>
			<path class="st0" d="M4167,8539.9c-1.4-3.5-2-8.3-2.4-14.2l-1.6-22.3c-1.4-19.5-10-27.6-34.9-27.6h-42.9v64.2h-13v-157.8h58.3
				c33.1,0,48.7,17.9,48.7,46.1c0,21.5-9.1,36.2-28,41.6c15.8,3,23.4,12.6,25,33.3l1.4,22.3c0.6,6.1,1.4,10.8,2.8,14.4H4167z
				 M4129.2,8463.9c24.2,0,37-12,37-34.9c0-23.2-12.8-35.1-37-35.1h-44.1v70.1H4129.2z"/>
			<path class="st0" d="M4268.5,8426.6v-41.4h-50.4V8374h62.6v52c0,6.7-0.2,13.2-0.8,19.3h31.9v-73.7h12v176.9h-12V8456h-33.1
				c-6.3,43.7-27.2,72.1-63,82.9v-11.6C4249.1,8515.9,4268.5,8481.6,4268.5,8426.6z M4364.2,8550.3H4352v-179.8h12.2V8550.3z"/>
			<path class="st0" d="M4414,8415.4c0-15.4,5.1-27.2,14.2-35.1c7.7-7.1,19.1-10.8,32.3-10.8c13,0,24.2,3.7,32.1,10.8
				c9.1,7.9,14.2,19.7,14.2,35.1c0,15.4-5.1,27.6-14.2,35.5c-7.9,6.9-19.1,10.8-32.1,10.8c-13.2,0-24.6-3.9-32.3-10.8
				C4419,8443,4414,8430.8,4414,8415.4z M4426.2,8415.4c0,11.6,3.7,20.7,10,26.8c5.9,5.5,14.2,8.7,24.4,8.7c9.7,0,18.3-3.2,24.2-8.7
				c6.5-6.1,10-15.2,10-26.8c0-11.2-3.5-20.3-10-26.4c-5.9-5.9-14.4-8.7-24.2-8.7c-10.2,0-18.5,2.8-24.4,8.7
				C4429.8,8395.1,4426.2,8404.2,4426.2,8415.4z M4428.2,8552.7v-65.2h133v65.2H4428.2z M4548.8,8498.3h-108.3v43.9h108.3V8498.3z
				 M4561.2,8470.6h-12.4v-100.1h12.4V8470.6z"/>
			<path class="st0" d="M4609.4,8456.4v-10.6h162.3v10.6H4609.4z M4618.5,8398.1c0-7.3,2.8-12.6,8.9-17.1
				c10.8-7.3,31.5-10.6,63.4-10.6c31.9,0,52.6,3.2,63.2,10.6c6.3,4.5,9.1,9.8,9.1,17.1c0,6.9-2.8,12.4-9.1,16.7
				c-10.6,7.5-31.3,10.8-63.2,10.8c-31.9,0-52.6-3.2-63.4-10.8C4621.3,8410.5,4618.5,8405,4618.5,8398.1z M4634.3,8521.2v21.3h129.4
				v10.2h-141.8v-41.6h124.7v-21.7h-124.7v-10.2H4759v42H4634.3z M4630.9,8398.1c0,3.7,1.6,6.9,5.5,9.3c7.9,5.5,25.6,7.7,54.4,7.7
				c28.8,0,46.5-2.2,54.6-7.7c3.7-2.4,5.3-5.7,5.3-9.3c0-3.9-1.6-7.3-5.3-9.7c-8.1-5.3-25.8-7.7-54.6-7.7c-28.8,0-46.5,2.4-54.4,7.7
				C4632.5,8390.8,4630.9,8394.3,4630.9,8398.1z"/>
			<path class="st0" d="M4878.5,8422.9c0-5.3,2.6-9.5,7.5-12.8c7.5-5.5,21.1-8.3,38.4-8.3c17.5,0,30.9,2.8,38.6,8.3
				c4.7,3.2,7.3,7.5,7.3,12.8c0,5.5-2.6,9.7-7.3,13c-6.7,4.9-18.1,7.5-32.5,8.1v16.5h31.9c18.3,0,33.1-3.7,42.2-9.7v-80.2h12.4v48.9
				h28.6v10.8H5017v45.3h-12.4v-15.4c-9.5,6.9-24.4,10-44.9,10h-89v-9.5h47.3V8444c-14.2-0.6-25.6-3.2-32.1-8.1
				C4881.1,8432.7,4878.5,8428.4,4878.5,8422.9z M4918.5,8364.6h12.4v15.4h44.3v9.5H4874v-9.5h44.5V8364.6z M4898.2,8525.1v18.5
				h121.3v9.1h-133.6v-36.8h118.8v-17.9h-118.8v-9.5H5017v36.6H4898.2z M4890.4,8422.9c0,2.6,1.2,4.5,3.7,6.5
				c5.7,3.9,16.7,5.9,30.3,5.9s24.8-2,30.3-5.9c2.6-2,3.9-3.9,3.9-6.5s-1.2-4.7-3.9-6.3c-5.5-4.1-16.7-5.9-30.3-5.9
				s-24.6,1.8-30.3,5.9C4891.7,8418.2,4890.4,8420.3,4890.4,8422.9z"/>
			<path class="st0" d="M5079.3,8402.4c0-8.5,3.7-15.2,11-20.1c12-8.3,33.3-11.8,61.3-11.8c27.8,0,49.4,3.5,61.3,11.8
				c7.1,4.9,11,11.6,11,20.1c0,8.5-3.9,15.2-11,20.1c-5.3,3.5-12.2,6.3-20.7,8.1v28h40.2v11h-162.3v-11h41v-28
				c-8.7-1.8-15.6-4.5-20.9-8.1C5083,8417.6,5079.3,8410.9,5079.3,8402.4z M5079.3,8524.3c0-8.9,4.1-16,12.6-20.9
				c12.2-7.5,32.3-11.4,59.7-11.4c27.4,0,47.5,3.9,59.5,11.4c8.5,4.9,12.8,12,12.8,20.9c0,8.9-4.3,16-12.8,21.1
				c-12,7.5-32.1,10.8-59.5,10.8c-27.4,0-47.5-3.2-59.7-10.8C5083.4,8540.3,5079.3,8533.2,5079.3,8524.3z M5091.7,8402.4
				c0,4.9,2.4,8.9,7.1,12c9.3,6.3,27.6,9.3,52.8,9.3c25.2,0,43.5-3,52.8-9.3c4.9-3,7.1-7.1,7.1-12c0-4.9-2.2-8.9-7.1-12
				c-9.3-6.5-27.6-9.3-52.8-9.3c-25.2,0-43.5,2.8-52.8,9.3C5094.2,8393.5,5091.7,8397.5,5091.7,8402.4z M5091.7,8524.3
				c0,4.9,2.4,9.1,7.5,12.2c9.3,6.1,27.2,9.1,52.4,9.1c25.2,0,43.1-3,52.4-9.1c5.3-3,7.5-7.3,7.5-12.2c0-4.9-2.2-8.9-7.5-12.6
				c-9.3-5.7-27.2-8.7-52.4-8.7c-25.2,0-43.1,3-52.4,8.7C5094.2,8515.3,5091.7,8519.4,5091.7,8524.3z M5180.1,8432.7
				c-8.5,1-18.1,1.6-28.4,1.6c-10.4,0-19.9-0.4-28.2-1.6v26h56.7V8432.7z"/>
			<path class="st0" d="M5368.5,8397.5h-102.2V8387h45.1v-22.3h12.2v22.3h44.9V8397.5z M5272.1,8450.3c0-10.2,4.5-18.7,12-24.6
				c8.1-6.5,20.1-10.4,33.3-10.4c13.4,0,25.2,3.9,33.5,10.4c7.5,5.9,12,14.4,12,24.6s-4.5,18.7-12,24.6
				c-8.3,6.7-20.1,10.2-33.5,10.2c-13.2,0-25.2-3.5-33.3-10.2C5276.5,8469,5272.1,8460.5,5272.1,8450.3z M5296.2,8501.3v39.4h122.3
				v10.8h-134.7v-50.2H5296.2z M5284.3,8450.3c0,6.9,2.8,12.4,7.7,16.5c6.3,5.3,15.4,8.1,25.4,8.1c10.2,0,19.3-2.8,25.6-8.1
				c4.9-4.1,7.7-9.5,7.7-16.5c0-6.9-2.8-12.2-7.7-16.5c-6.3-5.1-15.4-8.1-25.6-8.1c-10,0-19.1,3-25.4,8.1
				C5287.1,8438.1,5284.3,8443.4,5284.3,8450.3z M5415.1,8370.5v54.4h28.4v11.2h-28.4v65h-12.4v-130.6H5415.1z"/>
			<path class="st0" d="M5582.2,8481.6c-5.9,25.6-26.8,46.9-52,56.5v-11.4c23.2-10.6,45.7-32.1,45.7-81.7v-72.3h12.4v72.3
				c0,49.6,23,70.3,45.9,81.7v11.4C5609.4,8527.9,5588.1,8507.2,5582.2,8481.6z M5668.7,8550.3v-179.8h12.4v179.8H5668.7z"/>
			<path class="st0" d="M5810.9,8537.9h-74.5v-165.1h12.4v154.4h63.6c20.9,0,39.8-6.1,51.2-16.9v-139.7h12.4v77.4h30.3v10.6h-30.3
				v92h-12.4v-29.9C5853.1,8531.8,5832.8,8537.9,5810.9,8537.9z"/>
			<path class="st0" d="M6016.8,8537.9H5937v-88.4h68.2v-64.6H5937v-11.2h80.4v86.9h-68v66.4h69.3c19.7,0,37.6-5.7,48.1-15.6v-141
				h12.4v179.8h-12.4V8522C6057.3,8532.4,6038,8537.9,6016.8,8537.9z"/>
			<path class="st0" d="M6135,8424.3c0-15.4,6.1-27.8,17.1-36.8c12.8-10.6,32.5-15.8,57.3-15.8c24.8,0,44.5,5.3,57.3,15.8
				c11,8.9,17.1,21.3,17.1,36.8s-6.1,27.8-17.1,36.8c-11.6,9.7-29,15-50.8,15.8v54.8h73.5v10.4h-160.3v-10.4h74.3v-54.8
				c-21.9-0.6-39.6-5.9-51.4-15.8C6141.1,8452.2,6135,8439.8,6135,8424.3z M6147.4,8424.3c0,12,4.9,21.3,13.2,28.4
				c10.8,8.9,27.6,13.4,48.7,13.4c21.1,0,38-4.5,49-13.4c8.3-7.1,13-16.5,13-28.4c0-11.8-4.7-21.3-13-28.4
				c-11-8.9-27.8-13.2-49-13.2c-21.1,0-38,4.3-48.7,13.2C6152.3,8403,6147.4,8412.6,6147.4,8424.3z"/>
			<path class="st0" d="M6468.7,8411.7v-26.6h-70.9V8374h83.3v36.6c0,68.2-27.2,113.3-84.5,128.4v-11.2
				C6444.4,8513.3,6468.7,8473.1,6468.7,8411.7z M6527.6,8550.3v-179.8h12.4v179.8H6527.6z"/>
			<path class="st0" d="M6604.8,8410.5h60.5V8373h12.4v99.1h-85.1V8373h12.2V8410.5z M6616,8496.8v43.9h122.3v10.8h-134.7v-54.6
				H6616z M6665.3,8461.3v-40.2h-60.5v40.2H6665.3z M6734.8,8370.5v53h28.4v10.8h-28.4v63h-12.4v-126.7H6734.8z"/>
			<path class="st0" d="M6937.9,8444.2h12.4v87.5h61.7v10.4h-160.3v-10.4h36.4v-87.5h12.4v87.5h37.4V8444.2z M6989.7,8436.7v-51.6
				h-129V8374h141.4v60.7c0,20.7-1.6,43.5-4.7,59.5H6985C6988.1,8478.6,6989.7,8456,6989.7,8436.7z"/>
			<path class="st0" d="M7090,8502.1v-32.5h-40.2v-10.8h162.3v10.8h-40.4v32.5h27.8v51.6h-12.4v-40.6H7061v-11H7090z M7058.9,8403.6
				c0-8.9,3.7-16.2,11-21.1c11.6-8.3,32.5-12,61.3-12s49.8,3.7,61.3,12c7.1,4.9,11,12.2,11,21.1c0,8.7-3.9,15.8-11,20.9
				c-11.6,8.3-32.5,12-61.3,12s-49.8-3.7-61.3-12C7062.6,8419.5,7058.9,8412.4,7058.9,8403.6z M7071.3,8403.6c0,5.3,2.4,10,7.3,13.2
				c9.3,6.3,27.2,9.1,52.6,9.1c25.2,0,43.3-2.8,52.6-9.1c4.9-3.2,7.3-7.9,7.3-13.2c0-5.5-2.4-10.2-7.3-13.4
				c-9.3-6.3-27.4-9.3-52.6-9.3c-25.4,0-43.3,3-52.6,9.3C7073.8,8393.5,7071.3,8398.1,7071.3,8403.6z M7159.5,8502.1v-32.5h-57.3
				v32.5H7159.5z"/>
			<path class="st0" d="M7237.5,8564.1v-10.8c23.8,0,33.5-13.6,33.5-91.4s-9.8-91.4-33.5-91.4v-10.8c31.7,0,45.9,15.8,45.9,102.2
				C7283.4,8548.4,7269.2,8564.1,7237.5,8564.1z"/>
		</g>
	</g>
	<g>
		<g>
			<path class="st0" d="M2354.7,9583l-44.5-111.3V9583h-23.4v-159.2h26l53,132.4l53-132.4h26.2V9583h-23.6v-111.3l-44.3,111.3
				H2354.7z"/>
			<path class="st0" d="M2494.3,9533c0.8,21.3,9.1,33.9,28.2,33.9c14.2,0,22.7-6.9,24.4-18.1h23c-3.7,23-20.1,36.8-47.3,36.8
				c-34.1,0-50.8-21.5-50.8-59.5c0-37.8,16.7-59.5,50.4-59.5c33.5,0,50.2,21.7,50.2,59.5c0,2.4,0,4.7-0.2,6.9H2494.3z M2494.5,9516
				h55c-1.6-19.1-9.5-30.7-27.4-30.7C2503.8,9485.3,2496.1,9496.9,2494.5,9516z"/>
			<path class="st0" d="M2693.1,9583h-22.5v-69.5c0-19.7-7.9-28.4-22.5-28.4c-16.2,0-28.6,12.8-28.6,36.4v61.5h-22.1v-113.7h22.1
				v19.1c5.3-13.2,16.9-21.7,34.1-21.7c25.4,0,39.6,16.2,39.6,45.3V9583z"/>
			<path class="st0" d="M2751.4,9548.5c0,14.2,5.3,17.7,19.5,17.7h11.4v17.9c-3.7,0.6-10.4,0.6-15.2,0.6c-26.6,0-38-7.7-38-32.1
				v-64.8h-16.5v-18.5h16.5V9437h22.3v32.3h30.9v18.5h-30.9V9548.5z"/>
			<path class="st0" d="M2901.9,9526.1c0,38-16.7,59.5-50.2,59.5c-33.7,0-50.4-21.5-50.4-59.5s16.7-59.5,50.4-59.5
				C2885.2,9466.6,2901.9,9488.1,2901.9,9526.1z M2879.5,9526.1c0-25.2-6.9-41-27.8-41c-20.9,0-27.8,15.8-27.8,41s6.9,41,27.8,41
				C2872.6,9567.1,2879.5,9551.3,2879.5,9526.1z"/>
			<path class="st0" d="M2949,9524.7v58.3h-22.1v-113.7h22.1v19.1c4.9-14.4,14-21.7,31.5-21.7c3.5,0,7.3,0.2,9.3,0.8l-0.4,18.3
				c-1.8-0.2-5.5-0.4-9.5-0.4C2960.8,9485.3,2949,9498.7,2949,9524.7z"/>
			<path class="st0" d="M3009.9,9447.7v-24h22.5v24H3009.9z M3009.9,9583v-113.7h22.5V9583H3009.9z"/>
			<path class="st0" d="M3158,9583h-22.5v-69.5c0-19.7-7.9-28.4-22.5-28.4c-16.2,0-28.6,12.8-28.6,36.4v61.5h-22.1v-113.7h22.1v19.1
				c5.3-13.2,16.9-21.7,34.1-21.7c25.4,0,39.6,16.2,39.6,45.3V9583z"/>
			<path class="st0" d="M3282.9,9469.2v118c0,27.4-14,48.5-48.1,48.5c-27.2,0-43.9-13.2-46.9-34.9h23c1.6,11.2,10.2,17.1,24,17.1
				c17.7,0,25.6-10.4,25.6-28.8v-23.8c-4.3,12.4-16.2,20.3-32.5,20.3c-28,0-45.5-18.7-45.5-59.5c0-40.8,17.5-59.5,45.5-59.5
				c16.2,0,28.2,7.9,32.5,20.3v-17.7H3282.9z M3232.7,9485.3c-21.1,0-28,15.8-28,40.8c0,25.2,6.9,40.8,28,40.8
				c20.9,0,27.6-15.6,27.6-40.8C3260.4,9501.1,3253.7,9485.3,3232.7,9485.3z"/>
			<path class="st0" d="M2337.7,9820.3v10.8c-23.8,0-33.5,13.6-33.5,91.4s9.7,91.4,33.5,91.4v10.8c-31.7,0-45.9-15.6-45.9-102.2
				C2291.8,9836.1,2306,9820.3,2337.7,9820.3z"/>
			<path class="st0" d="M2420.5,9842.6l57.3,157.8H2464l-14-39.4h-73.3l-13.8,39.4H2349l57.1-157.8H2420.5z M2380.7,9949.6h65.2
				l-32.5-92.2L2380.7,9949.6z"/>
			<path class="st0" d="M2514,10000.4h-13v-157.8h13V10000.4z"/>
			<path class="st0" d="M2685.6,9998.2h-64.8v-163.7h64.8V9998.2z M2673.4,9987.8v-142.4h-40.6v142.4H2673.4z M2766.8,10011h-12.2
				v-92.8h-30.9v90.8h-12.2V9832h12.2v74.9h30.9v-76h12.2V10011z"/>
			<path class="st0" d="M2819,9848.5h39v-23.2h12.4v23.2h39.2v10.8h-39.2v6.5c0,30.1,21.1,47.1,42.2,52.2v11.6
				c-21.9-5.3-40.4-19.5-48.1-37.2c-7.3,18.3-25.8,34.7-48.3,39.4v-11.2c21.9-5.1,41.8-24.4,41.8-54.8v-6.5h-39V9848.5z
				 M2827.7,9980.9c0-10.6,5.5-18.5,15-24.2c12.8-7.3,32.3-10.8,55-10.8c23,0,42.2,3.5,55,10.8c9.3,5.7,15.2,13.6,15.2,24.2
				c0,10.6-5.9,18.5-15.2,24.2c-12.8,7.3-32.1,10.6-55,10.6c-22.7,0-42.2-3.2-55-10.6C2833.2,9999.4,2827.7,9991.5,2827.7,9980.9z
				 M2840.1,9980.9c0,6.1,3.5,11.2,9.7,15c10,6.1,26.8,9.1,47.9,9.1c21.1,0,38-3,48.1-9.1c6.3-3.9,9.7-8.9,9.7-15
				c0-6.3-3.5-11-9.7-15c-10.2-6.1-27-9.1-48.1-9.1c-21.1,0-38,3-47.9,9.1C2843.6,9970,2840.1,9974.6,2840.1,9980.9z M2963.8,9935.6
				h-12.4V9831h12.4V9935.6z"/>
			<path class="st0" d="M3012,9916.9v-10.6h162.3v10.6H3012z M3021.1,9858.7c0-7.3,2.8-12.6,8.9-17.1c10.8-7.3,31.5-10.6,63.4-10.6
				c31.9,0,52.6,3.2,63.2,10.6c6.3,4.5,9.1,9.8,9.1,17.1c0,6.9-2.8,12.4-9.1,16.7c-10.6,7.5-31.3,10.8-63.2,10.8
				c-31.9,0-52.6-3.2-63.4-10.8C3023.9,9871,3021.1,9865.6,3021.1,9858.7z M3036.9,9981.7v21.3h129.4v10.2h-141.8v-41.6h124.7v-21.7
				h-124.7v-10.2h137.1v42H3036.9z M3033.5,9858.7c0,3.7,1.6,6.9,5.5,9.3c7.9,5.5,25.6,7.7,54.4,7.7c28.8,0,46.5-2.2,54.6-7.7
				c3.7-2.4,5.3-5.7,5.3-9.3c0-3.9-1.6-7.3-5.3-9.7c-8.1-5.3-25.8-7.7-54.6-7.7c-28.8,0-46.5,2.4-54.4,7.7
				C3035.1,9851.3,3033.5,9854.8,3033.5,9858.7z"/>
			<path class="st0" d="M3281.1,9883.4c0-5.3,2.6-9.5,7.5-12.8c7.5-5.5,21.1-8.3,38.4-8.3c17.5,0,30.9,2.8,38.6,8.3
				c4.7,3.2,7.3,7.5,7.3,12.8c0,5.5-2.6,9.7-7.3,13c-6.7,4.9-18.1,7.5-32.5,8.1v16.5h31.9c18.3,0,33.1-3.7,42.2-9.7V9831h12.4v48.9
				h28.6v10.8h-28.6v45.3h-12.4v-15.4c-9.5,6.9-24.4,10-44.9,10h-89v-9.5h47.3v-16.5c-14.2-0.6-25.6-3.2-32.1-8.1
				C3283.7,9893.2,3281.1,9888.9,3281.1,9883.4z M3321.1,9825.1h12.4v15.4h44.3v9.5h-101.1v-9.5h44.5V9825.1z M3300.8,9985.6v18.5
				H3422v9.1h-133.6v-36.8h118.8v-17.9h-118.8v-9.5h131.2v36.6H3300.8z M3293.1,9883.4c0,2.6,1.2,4.5,3.7,6.5
				c5.7,3.9,16.7,5.9,30.3,5.9s24.8-2,30.3-5.9c2.6-2,3.9-3.9,3.9-6.5s-1.2-4.7-3.9-6.3c-5.5-4.1-16.7-5.9-30.3-5.9
				s-24.6,1.8-30.3,5.9C3294.3,9878.8,3293.1,9880.8,3293.1,9883.4z"/>
			<path class="st0" d="M3481.9,9862.9c0-8.5,3.7-15.2,11-20.1c12-8.3,33.3-11.8,61.3-11.8c27.8,0,49.4,3.5,61.3,11.8
				c7.1,4.9,11,11.6,11,20.1c0,8.5-3.9,15.2-11,20.1c-5.3,3.5-12.2,6.3-20.7,8.1v28h40.2v11h-162.3v-11h41v-28
				c-8.7-1.8-15.6-4.5-20.9-8.1C3485.6,9878.1,3481.9,9871.4,3481.9,9862.9z M3481.9,9984.8c0-8.9,4.1-16,12.6-20.9
				c12.2-7.5,32.3-11.4,59.7-11.4c27.4,0,47.5,3.9,59.5,11.4c8.5,4.9,12.8,12,12.8,20.9c0,8.9-4.3,16-12.8,21.1
				c-12,7.5-32.1,10.8-59.5,10.8c-27.4,0-47.5-3.2-59.7-10.8C3486,10000.8,3481.9,9993.7,3481.9,9984.8z M3494.3,9862.9
				c0,4.9,2.4,8.9,7.1,12c9.3,6.3,27.6,9.3,52.8,9.3c25.2,0,43.5-3,52.8-9.3c4.9-3,7.1-7.1,7.1-12c0-4.9-2.2-8.9-7.1-12
				c-9.3-6.5-27.6-9.3-52.8-9.3c-25.2,0-43.5,2.8-52.8,9.3C3496.8,9854,3494.3,9858,3494.3,9862.9z M3494.3,9984.8
				c0,4.9,2.4,9.1,7.5,12.2c9.3,6.1,27.2,9.1,52.4,9.1c25.2,0,43.1-3,52.4-9.1c5.3-3,7.5-7.3,7.5-12.2c0-4.9-2.2-8.9-7.5-12.6
				c-9.3-5.7-27.2-8.7-52.4-8.7c-25.2,0-43.1,3-52.4,8.7C3496.8,9975.8,3494.3,9979.9,3494.3,9984.8z M3582.7,9893.2
				c-8.5,1-18.1,1.6-28.4,1.6c-10.4,0-19.9-0.4-28.2-1.6v26h56.7V9893.2z"/>
			<path class="st0" d="M3771.2,9858H3669v-10.6h45.1v-22.3h12.2v22.3h44.9V9858z M3674.7,9910.9c0-10.2,4.5-18.7,12-24.6
				c8.1-6.5,20.1-10.4,33.3-10.4c13.4,0,25.2,3.9,33.5,10.4c7.5,5.9,12,14.4,12,24.6s-4.5,18.7-12,24.6
				c-8.3,6.7-20.1,10.2-33.5,10.2c-13.2,0-25.2-3.5-33.3-10.2C3679.1,9929.5,3674.7,9921,3674.7,9910.9z M3698.8,9961.8v39.4h122.3
				v10.8h-134.7v-50.2H3698.8z M3686.9,9910.9c0,6.9,2.8,12.4,7.7,16.5c6.3,5.3,15.4,8.1,25.4,8.1c10.2,0,19.3-2.8,25.6-8.1
				c4.9-4.1,7.7-9.5,7.7-16.5c0-6.9-2.8-12.2-7.7-16.5c-6.3-5.1-15.4-8.1-25.6-8.1c-10,0-19.1,3-25.4,8.1
				C3689.7,9898.7,3686.9,9903.9,3686.9,9910.9z M3817.7,9831v54.4h28.4v11.2h-28.4v65h-12.4V9831H3817.7z"/>
			<path class="st0" d="M4083.7,10011h-12.4v-23.6c-10.6,9.1-29.7,12.8-52.2,12.8h-83.9v-10.4h47.9v-48.5h12.4v48.5h27.6
				c18.9,0,36.6-3.2,48.1-12.8v-146h12.4V10011z M3941.6,9861.9v-11h41.4v-25.6h12.4v25.6h40.2v11h-40.2v10.4
				c0,29.2,21.3,48.1,43.5,56.1v11.4c-23.4-7.3-42.9-23.6-49.6-40.2c-6.7,17.5-25.4,34.3-50,42.5v-11.6
				c22.5-8.3,43.7-28.6,43.7-58.1v-10.4H3941.6z"/>
			<path class="st0" d="M4138.8,9833.5h90.6v10.8h-39.2v19.1c0,29.9,21.1,47.3,42.2,52.4v11.4c-21.9-5.3-40.4-19.3-48.1-37.2
				c-7.3,18.3-25.8,34.7-48.3,39.6v-11.4c21.9-5.1,41.8-24.2,41.8-54.8v-19.1h-39V9833.5z M4271.2,10014.2v-51.4h-123.1v-10.8h135.5
				v62.2H4271.2z M4283.6,9934h-12.4v-51.6h-42.5v-10.8h42.5V9831h12.4V9934z"/>
			<path class="st0" d="M4481.8,10011h-12.4v-23.6c-10.6,9.3-29.5,12.8-52.2,12.8h-83.9v-10.4h87.9c18.3,0,37.2-3.7,48.1-13V9831
				h12.4V10011z M4340.2,9887.3c0-19.1,5.3-34.1,16.2-43.9c7.9-7.1,19.1-11.4,32.1-11.4s24.2,4.3,32.3,11.4
				c10.8,9.7,16.5,24.8,16.5,43.9c0,18.7-5.7,33.9-16.5,43.7c-8.1,7.1-19.3,11.2-32.3,11.2s-24.2-4.1-32.1-11.2
				C4345.5,9921.2,4340.2,9906,4340.2,9887.3z M4352.6,9887.3c0,15,3.9,27.8,11.8,35.3c6.1,5.5,14.2,8.7,24.2,8.7
				c10,0,18.3-3.2,24.2-8.7c8.1-7.5,12.2-20.3,12.2-35.3c0-15.2-4.1-27.8-12.2-35.3c-5.9-5.9-14.2-8.7-24.2-8.7
				c-10,0-18.1,2.8-24.2,8.7C4356.5,9859.5,4352.6,9872.1,4352.6,9887.3z"/>
			<path class="st0" d="M4666.2,9928.3h-67.8v-94.9h67.8v41.2h29.2V9832h12v120.9h-12v-67.4h-29.2V9928.3z M4654.4,9917.8v-73.5
				h-44.3v73.5H4654.4z M4750.9,10012h-138.5v-57.1h12.4v46.3h126.1V10012z M4735.1,9956.3V9831h12.2v125.3H4735.1z"/>
			<path class="st0" d="M4943.9,9845.4h-128v39.4h125.5v10.8h-125.5v39.4h130.2v10.8h-65.8v46.5h73.5v10.4h-160.3v-10.4h74.3v-46.5
				h-64.4v-111.3h140.3V9845.4z"/>
			<path class="st0" d="M5055.4,10002.7v-10.4h73.7V9933h12.4v59.3h74.1v10.4H5055.4z M5135.4,9881c-10.6,25.4-35.1,47.9-77,56.5
				v-11.2c41.8-9.1,70.7-37.2,70.7-76.8v-16.2h12.4v16.2c0,39.6,30.3,67.6,70.9,76.8v11.2C5171.1,9928.5,5145.9,9906.4,5135.4,9881z
				"/>
			<path class="st0" d="M5310.7,9887.1v-41.4h-50.4v-11.2h62.6v52c0,60.5-21.5,99.9-65,112.9v-11.6
				C5291.2,9976.5,5310.7,9942.1,5310.7,9887.1z M5406.3,10011h-12.2v-92.8h-30.9v90.8h-12.2V9832h12.2v74.9h30.9v-76h12.2V10011z"
				/>
			<path class="st0" d="M5456.5,10018.7c6.5-1.6,9.8-5.7,9.8-14.4v-3.7h-6.9v-21.9h15v24.4c0,14-5.3,20.9-17.9,23.4V10018.7z"/>
			<path class="st0" d="M5568,9842.6H5676v11.8h-47.5v146h-13v-146H5568V9842.6z"/>
			<path class="st0" d="M5723.4,10003.1c-32.3,0-47.7-22.1-47.7-58.9c0-37,15.4-59.1,47.7-59.1c32.3,0,47.5,22.1,47.5,59.1
				C5770.9,9980.9,5755.6,10003.1,5723.4,10003.1z M5723.4,9992.3c24.6,0,35.1-17.5,35.1-48.1c0-30.9-10.6-48.3-35.1-48.3
				c-24.8,0-35.3,17.5-35.3,48.3C5688,9974.8,5698.6,9992.3,5723.4,9992.3z"/>
			<path class="st0" d="M5811.9,10049.6h-12.4v-161.9h12.4v19.1c5.1-13,17.3-21.7,36.6-21.7c30.1,0,46.3,20.5,46.3,59.1
				s-16.2,58.9-46.3,58.9c-19.3,0-31.5-8.7-36.6-21.5V10049.6z M5847.2,9992.3c24.6,0,35.1-17.5,35.1-48.1
				c0-30.9-10.6-48.3-35.1-48.3c-24.8,0-35.3,17.5-35.3,48.3C5811.9,9974.8,5822.5,9992.3,5847.2,9992.3z"/>
			<path class="st0" d="M6033.9,9922h-15.4v-11h16.2c19.5,0,29.5-14.2,29.5-30.1c0-17.5-12.6-29.9-31.5-29.9
				c-19.5,0-31.5,12.4-31.5,29.9v2.8h-12.6v-3.7c0-22.5,16.7-40.2,44.1-40.2s44.1,17.7,44.1,40.2c0,18.3-9.1,31.9-25.4,36.4
				c17.7,4.1,30.1,18.1,30.1,40.8c0,28.2-19.7,45.7-48.7,45.7c-29,0-48.9-18.3-48.9-47.3v-1.4h12.8v1c0,23,15.2,36.8,36.2,36.8
				c20.9,0,36.2-13.6,36.2-34.9C6068.8,9936,6055.6,9922,6033.9,9922z"/>
			<path class="st0" d="M6195.6,9988.2c-7.7,9.7-19.7,14.8-35.3,14.8s-27.4-5.1-35.3-14.8c-10-12.6-14.8-30.3-14.8-66.8
				c0-36.2,4.9-54,14.8-66.4c7.9-9.7,19.7-15,35.3-15s27.6,5.3,35.3,15c10,12.4,14.8,30.3,14.8,66.4
				C6210.4,9958,6205.5,9975.6,6195.6,9988.2z M6186.6,9862.9c-5.9-7.5-14.8-11.8-26.4-11.8s-20.5,4.3-26.4,11.8
				c-7.5,9.5-11.2,25.8-11.2,58.5c0,32.9,3.7,49.2,11.2,58.7c5.9,7.5,14.8,12,26.4,12s20.5-4.5,26.4-12c7.5-9.5,11.2-25.8,11.2-58.7
				C6197.8,9888.7,6194.1,9872.5,6186.6,9862.9z"/>
			<path class="st0" d="M6322.7,9988.2c-7.7,9.7-19.7,14.8-35.3,14.8s-27.4-5.1-35.3-14.8c-10-12.6-14.8-30.3-14.8-66.8
				c0-36.2,4.9-54,14.8-66.4c7.9-9.7,19.7-15,35.3-15s27.6,5.3,35.3,15c10,12.4,14.8,30.3,14.8,66.4
				C6337.5,9958,6332.7,9975.6,6322.7,9988.2z M6313.8,9862.9c-5.9-7.5-14.8-11.8-26.4-11.8s-20.5,4.3-26.4,11.8
				c-7.5,9.5-11.2,25.8-11.2,58.5c0,32.9,3.7,49.2,11.2,58.7c5.9,7.5,14.8,12,26.4,12s20.5-4.5,26.4-12c7.5-9.5,11.2-25.8,11.2-58.7
				C6324.9,9888.7,6321.3,9872.5,6313.8,9862.9z"/>
			<path class="st0" d="M6431.3,9942.3v-99.7h13v98.1c0,32.5,12.6,51,42.9,51c30.7,0,43.1-18.5,43.1-51v-98.1h13v99.7
				c0,36.2-16.7,60.7-56.1,60.7C6448,10003.1,6431.3,9978.5,6431.3,9942.3z"/>
			<path class="st0" d="M6668.4,10000.4H6656v-65.6c0-27.2-10.4-39-29.9-39c-20.7,0-35.7,17.5-36.2,47.7v56.9h-12.4v-112.7h12.4
				v21.9c5.7-14.4,18.3-24.6,38.6-24.6c25.8,0,39.8,17.1,39.8,45.7V10000.4z"/>
			<path class="st0" d="M6701.9,9863.3v-20.7h12.6v20.7H6701.9z M6701.9,10000.4v-112.7h12.6v112.7H6701.9z"/>
			<path class="st0" d="M6751.2,9887.7l38.4,98.1l38.4-98.1h13.2l-44.5,112.7h-14.2l-44.5-112.7H6751.2z"/>
			<path class="st0" d="M6869.6,9947.8c0.6,28.6,11.6,44.5,35.5,44.5c18.3,0,28.8-8.9,32.1-24.6h12.8c-4.3,22.3-19.5,35.3-45.1,35.3
				c-32.3,0-47.7-21.9-47.7-58.9c0-37,15.4-59.1,47.7-59.1s47.5,22.1,47.5,59.1v3.7H6869.6z M6870,9937.5h69.9
				c-1.2-26.4-12.2-41.6-34.9-41.6C6882,9895.8,6871.1,9911.1,6870,9937.5z"/>
			<path class="st0" d="M6993.5,9943.6v56.9h-12.4v-112.7h12.4v21.7c4.9-15.6,15.6-24.4,33.7-24.4c3.2,0,6.3,0.2,8.3,0.8l-0.2,10.6
				c-1.8-0.2-5.1-0.4-8.3-0.4C7006.7,9896,6993.5,9911.7,6993.5,9943.6z"/>
			<path class="st0" d="M7087.8,9946.8c-24.2-4.9-33.7-14-33.7-30.7c0-17.3,14.4-31.1,40-31.1c25,0,40,13.2,40,31.1v3.5h-12.6v-3.5
				c0-11.6-10-20.3-27.4-20.3c-17.7,0-27.4,8.7-27.4,20.3c0,10.6,6.9,16.2,24,19.7l13.8,2.8c24,5.1,33.7,14,33.7,32.1
				c0,19.1-16.5,32.3-42.4,32.3c-25.4,0-42.4-12.8-42.4-32.3v-4.1h12.4v4.1c0,13.2,12.6,21.5,30.1,21.5s30.1-8.3,30.1-21.5
				c0-11.6-6.7-17.7-24.2-21.1L7087.8,9946.8z"/>
			<path class="st0" d="M7166.8,9863.3v-20.7h12.6v20.7H7166.8z M7166.8,10000.4v-112.7h12.6v112.7H7166.8z"/>
			<path class="st0" d="M7233.8,9969.1c0,17.9,7.7,22.1,23.4,22.1h11.2v10.6c-4.3,0.2-8.9,0.2-12.8,0.2c-23.6,0-34.1-7.3-34.1-30.9
				v-72.7h-17.1v-10.8h17.1v-32.1h12.4v32.1h34.5v10.8h-34.5V9969.1z"/>
			<path class="st0" d="M7331.3,10000.6l-45.3-112.9h13.2l38.6,97.3l38.2-97.3h13.4l-56.3,141c-6.9,17.5-15,20.9-29.5,20.9
				c-2.2,0-3.9,0-5.7-0.2v-10.6h4.7c9.5,0,14.4-2.2,18.9-13.8L7331.3,10000.6z"/>
			<path class="st0" d="M7402.4,10024.6v-10.8c23.8,0,33.5-13.6,33.5-91.4s-9.8-91.4-33.5-91.4v-10.8c31.7,0,45.9,15.8,45.9,102.2
				C7448.3,10009,7434.1,10024.6,7402.4,10024.6z"/>
		</g>
	</g>
</g>
<g>
	<g>
		<circle class="st6" cx="848.7" cy="934.3" r="610.4"/>
		<g>
			<path class="st7" d="M1000.5,968.6c-3.4-3.4-9-3.4-12.4,0l-140.8,140.8c-3.4,3.4-3.4,9,0,12.4l50.3,50.3c3.4,3.4,9,3.4,12.4,0
				l140.8-140.8c3.4-3.4,3.4-9,0-12.4L1000.5,968.6z"/>
			<path class="st7" d="M815.5,1153.6c-3.4-3.4-8.9-3.5-12.3,0c-5.7,5.7-13.9,13.9-17.8,17.8c-1.5,1.5-2.3,3.4-2.5,5.4l-4.4,56.7
				c-0.4,5.5,4.3,10,9.7,9.4l54.5-6.3c2-0.2,3.8-1.1,5.2-2.5l17.8-17.8c3.4-3.4,3.4-9,0-12.4L815.5,1153.6z"/>
			<path class="st7" d="M1012.9,660.8c0-19.4-15.7-35.1-35.1-35.1h-6.8h-12.3H627.2h-2.5h-14.8c-19.4,0-35.1,15.7-35.1,35.1v455.7
				c0,19.4,15.7,35.1,35.1,35.1H746c2.3-4,4.9-7.8,8.2-11.2c6.3-6.4,24.1-24,24.1-24l234.6-234.6V660.8z M811.4,912.8H688.7
				c-12.1,0-21.9-9.8-21.9-21.9c0-12.1,9.8-21.9,21.9-21.9h122.7c12.1,0,21.9,9.8,21.9,21.9C833.3,903,823.5,912.8,811.4,912.8z
				 M899,825.2H688.7c-12.1,0-21.9-9.8-21.9-21.9c0-12.1,9.8-21.9,21.9-21.9H899c12.1,0,21.9,9.8,21.9,21.9
				C920.9,815.3,911.1,825.2,899,825.2z M941.3,695.9H644.7c-4.8,0-8.8-3.9-8.8-8.8v-33.2h314.1v33.2
				C950.1,691.9,946.1,695.9,941.3,695.9z"/>
			<path class="st7" d="M1120,949.6l-50.3-50.3c-3.4-3.4-9-3.4-12.4,0l-26.4,26.4c-3.4,3.4-3.4,9,0,12.4l50.3,50.3
				c3.4,3.4,9,3.4,12.4,0L1120,962C1123.4,958.6,1123.4,953,1120,949.6z"/>
		</g>
	</g>
	<g>
		<circle class="st6" cx="2998.1" cy="934.3" r="610.4"/>
		<g>
			<g>
				<path class="st7" d="M3319.3,625.7h-642.5c-18.7,0-33.8,15.1-33.8,33.8v422.7c0,18.7,15.1,33.8,33.8,33.8H2929l-12.7,76.1h-62
					c-14,0-25.4,11.4-25.4,25.4s11.4,25.4,25.4,25.4h287.4c14,0,25.4-11.4,25.4-25.4s-11.4-25.4-25.4-25.4h-62l-12.7-76.1h252.2
					c18.7,0,33.8-15.1,33.8-33.8V659.6C3353.1,640.9,3338,625.7,3319.3,625.7z M2998.1,1090.7c-14,0-25.4-11.4-25.4-25.4
					s11.4-25.4,25.4-25.4c14,0,25.4,11.4,25.4,25.4S3012.1,1090.7,2998.1,1090.7z M3285.5,997.7h-574.9V693.4h574.9V997.7z"/>
			</g>
		</g>
	</g>
	<g>
		<circle class="st6" cx="5147.5" cy="934.3" r="610.4"/>
		<g>
			<g>
				<g>
					<path class="st7" d="M5468.7,625.7h-642.5c-18.7,0-33.8,15.1-33.8,33.8v422.7c0,18.7,15.1,33.8,33.8,33.8h252.2l-12.7,76.1h-62
						c-14,0-25.4,11.4-25.4,25.4s11.4,25.4,25.4,25.4h287.4c14,0,25.4-11.4,25.4-25.4s-11.4-25.4-25.4-25.4h-62l-12.7-76.1h252.2
						c18.7,0,33.8-15.1,33.8-33.8V659.6C5502.5,640.9,5487.4,625.7,5468.7,625.7z M5147.5,1090.7c-14,0-25.4-11.4-25.4-25.4
						s11.4-25.4,25.4-25.4c14,0,25.4,11.4,25.4,25.4S5161.5,1090.7,5147.5,1090.7z M5434.9,997.7H4860V693.4h574.9V997.7z"/>
				</g>
			</g>
			<g>
				<g>
					<path class="st7" d="M5147.4,719.7h-9.7v251.7h9.7c69.4,0,125.9-56.8,125.9-126.6C5273.3,775.8,5216.8,719.7,5147.4,719.7z
						 M5242.1,796.4h-32c-4.2-18.8-10.7-35.2-19-47.9C5213.1,758.3,5231.1,775.3,5242.1,796.4z M5157.1,741.5
						c13.5,6.5,26.2,26.2,33.2,54.9h-33.2V741.5z M5157.1,815.8h36.8c1.2,9.1,1.9,18.8,1.9,29c0,10.2-0.7,19.9-2,29h-36.8V815.8z
						 M5157.1,949.5v-56.2h33.2C5183.3,922.3,5170.4,942.6,5157.1,949.5z M5191,942.6c8.4-13,15.1-29.9,19.3-49.3h32.2
						C5231.4,915.1,5213.2,932.5,5191,942.6z M5213.4,873.9c1.1-9.3,1.8-19,1.8-29c0-10.1-0.7-19.7-1.8-29h36.4
						c2.7,9.2,4.1,19,4.1,29c0,10.1-1.4,19.8-4,29H5213.4z"/>
					<path class="st7" d="M5032.9,823.1c0.9,0.2,1.7,0.4,2.6,0.4c4.2,0,8.1-2.8,9.3-7.1c1.1-4,2.5-8,4.1-11.9
						c2-4.9-0.3-10.6-5.3-12.6c-4.9-2-10.6,0.3-12.6,5.3c-1.9,4.6-3.5,9.3-4.8,14.1C5024.7,816.4,5027.7,821.7,5032.9,823.1z
						 M5057.5,781.2c2.8,0,5.6-1.2,7.5-3.5c2.7-3.2,5.5-6.3,8.6-9.2c3.9-3.7,4-9.8,0.3-13.7c-3.7-3.9-9.8-4-13.7-0.3
						c-3.6,3.4-7,7.1-10.1,10.9c-3.4,4.1-2.8,10.2,1.3,13.6C5053.2,780.5,5055.4,781.2,5057.5,781.2z M5103.6,879.4l-58.4,19
						c-5.3,1.7-6.1,8.9-1.3,11.7l14.3,8.5l-33.2,33.2c-2.5,2.5-2.5,6.6,0,9.1l4.9,4.9c2.5,2.5,6.6,2.5,9.1,0l33.5-33.5l8.3,14.3
						c2.8,4.8,10,4.1,11.7-1.2l19.2-57.9C5113.4,882.6,5108.7,877.8,5103.6,879.4z M5031.6,863.9c0.3,0,0.5,0,0.8,0
						c5.3-0.4,9.3-5.1,8.9-10.4c-0.2-1.9-0.3-3.9-0.3-5.9c-0.1-5.3-4.6-9.6-9.9-9.5c-5.3,0.1-9.6,4.6-9.5,9.9c0.1,2.3,0.2,4.7,0.4,7
						C5022.4,860,5026.6,863.9,5031.6,863.9z M5116.5,733c-1.8-5-7.4-7.6-12.4-5.8c-4.6,1.7-9.2,3.7-13.6,5.9
						c-4.8,2.4-6.7,8.2-4.3,13c1.7,3.4,5.1,5.3,8.7,5.3c1.5,0,3-0.3,4.3-1c3.7-1.9,7.6-3.5,11.5-5
						C5115.8,743.6,5118.3,738.1,5116.5,733z"/>
				</g>
			</g>
		</g>
	</g>
	<g>
		<circle class="st6" cx="7296.9" cy="934.3" r="610.4"/>
		<path class="st7" d="M7706.7,625.7h-642.5c-18.7,0-33.8,15.1-33.8,33.8v42.3h-120.3c-31.5,0-57,25.5-57,57V1186
			c0,31.5,25.5,57,57,57h227.8c31.5,0,57-25.5,57-57v-69.9h121.5l-12.7,76.1h-62c-14,0-25.4,11.4-25.4,25.4s11.4,25.4,25.4,25.4
			h287.4c14,0,25.4-11.4,25.4-25.4s-11.4-25.4-25.4-25.4h-62l-12.7-76.1h252.2c18.7,0,33.8-15.1,33.8-33.8V659.6
			C7740.6,640.9,7725.4,625.7,7706.7,625.7z M6910.1,1100.5v-299c0-7.9,6.4-14.2,14.2-14.2h106h67.6h27.9c6.7,0,12,5.4,12,12v198.4
			v102.8c0,7.9-6.4,14.2-14.2,14.2h-68.4h-130.9C6916.5,1114.8,6910.1,1108.4,6910.1,1100.5z M7040.2,1207.3H7013
			c-12.4,0-24.5-7.3-28.2-19.2c-6.2-19.7,8.3-37.8,27-37.8h27.3c12.4,0,24.4,7.3,28.2,19.2C7073.5,1189.2,7059,1207.3,7040.2,1207.3
			z M7385.5,1090.7c-14,0-25.4-11.4-25.4-25.4s11.4-25.4,25.4-25.4c14,0,25.4,11.4,25.4,25.4S7399.5,1090.7,7385.5,1090.7z
			 M7672.9,997.7h-478V787.3v-35.6v-7.1c0-23.6-19.1-42.7-42.7-42.7H7098v-8.5h574.9V997.7z"/>
	</g>
	<g>
		<polygon class="st7" points="1770.3,1133.9 2076.4,934.3 1770.3,734.8 1937.7,934.3 		"/>
	</g>
	<g>
		<polygon class="st7" points="6069.1,1133.9 6375.2,934.3 6069.1,734.8 6236.5,934.3 		"/>
	</g>
	<g>
		<polygon class="st7" points="3919.7,1133.9 4225.8,934.3 3919.7,734.8 4087.1,934.3 		"/>
	</g>
	<g>
		<path class="st7" d="M510.7,1738.1h61.4v9.5h-25.3v8.7c0,20.4,12.9,31.1,27.5,34.5v9.7c-14.6-3.1-27.1-11.8-32.6-23.1
			c-5.5,11.6-18,21.9-33,24.8v-9.7c15-3.4,27.3-15.4,27.3-36.1v-8.7h-25.3V1738.1z M563.6,1860.7c-14.7,0-28.4-2-37.2-7.8
			c-6.2-3.9-10-9.6-10-17.2c0-7.6,3.8-13.3,10-17.3c8.8-5.7,22.5-8,37.2-8c14.7,0,28.5,2.3,37.3,8c6.1,4.1,10,9.7,10,17.3
			c0,7.6-3.9,13.3-10,17.2C592.1,1858.7,578.3,1860.7,563.6,1860.7z M563.6,1819.9c-12.6,0-23.9,1.9-30.6,6.1
			c-3.5,2.4-5.7,5.7-5.7,9.7c0,3.9,2.2,7.2,5.7,9.6c6.6,4.2,18,6.1,30.6,6.1c12.6,0,24.1-1.9,30.6-6.1c3.8-2.4,6-5.7,6-9.6
			c0-4.1-2.2-7.3-6-9.7C587.6,1821.8,576.1,1819.9,563.6,1819.9z M608.2,1805.6h-10.8v-33h-27.2v-9.5h27.2v-26.4h10.8V1805.6z"/>
		<path class="st7" d="M640.8,1761.1v-9.5h20.7v-18.7h11v18.7h20v9.5H640.8z M643.5,1812.2c0-17.6,3.4-29.5,10.7-35.3
			c3.5-2.7,7.8-4.2,12.9-4.2c5.1,0,9.5,1.5,12.9,4.2c7.3,5.8,10.8,17.7,10.8,35.3c0,17.7-3.5,29.5-10.8,35.3
			c-3.4,2.8-7.7,4.1-12.9,4.1c-5,0-9.3-1.2-12.9-4.1C646.9,1841.7,643.5,1829.9,643.5,1812.2z M653.9,1812.2
			c0,14.6,2.2,23.3,6.2,27.3c1.9,2,4.2,3,6.9,3c2.7,0,5.1-0.9,6.9-3c4.1-4.1,6.2-12.7,6.2-27.3c0-14.6-2.2-23.3-6.2-27.3
			c-1.8-2-4.2-2.8-6.9-2.8c-2.7,0-5,0.8-6.9,2.8C656.1,1788.9,653.9,1797.6,653.9,1812.2z M742.1,1857.8h-10.4v-61.7h-16.2v60.3
			h-10.3v-119h10.3v49.2h16.2v-49.9h10.4V1857.8z"/>
		<path class="st7" d="M775.8,1738.1h61.4v9.5h-25.3v14.7c0,20.6,12.9,31.1,27.5,34.6v9.6c-14.6-3-27.1-11.6-32.6-23
			c-5.5,11.5-18,21.8-33,24.6v-9.6c15-3.4,27.3-15.4,27.3-36.3v-14.7h-25.3V1738.1z M875.6,1858.3h-92.3v-39.6h11v30.3h81.3V1858.3z
			 M873.3,1821h-10.8v-84.3h10.8V1821z"/>
		<path class="st7" d="M948.8,1738.1h61.5v9.5h-25.4v8.7c0,20.4,13,31.1,27.6,34.5v9.7c-14.6-3.1-27.1-11.8-32.7-23.1
			c-5.5,11.6-18,21.9-33,24.8v-9.7c15-3.4,27.3-15.4,27.3-36.1v-8.7h-25.3V1738.1z M954.2,1835.7c0-7,3.4-12.6,9.1-16.5
			c8.4-6,21.8-8.8,37.7-8.8s29.4,2.8,37.6,8.8c5.7,3.9,9.1,9.5,9.1,16.5s-3.4,12.6-9.1,16.6c-8.3,5.8-21.6,8.4-37.6,8.4
			s-29.4-2.6-37.7-8.4C957.6,1848.3,954.2,1842.8,954.2,1835.7z M965.2,1835.7c0,3.8,2,7.2,5.8,9.7c5.8,4.1,16.4,6,30,6
			c13.5,0,24.1-1.9,30.2-6c3.7-2.6,5.5-6,5.5-9.7c0-3.9-1.9-7.3-5.5-9.7c-6.1-4.1-16.6-6.1-30.2-6.1c-13.7,0-24.2,2-30,6.1
			C967.2,1828.4,965.2,1831.8,965.2,1835.7z M1044.6,1736.7v28.1h18.5v9.6h-18.5v31.1h-10.8v-68.9H1044.6z"/>
		<path class="st7" d="M1079.6,1852.4v-9.5h48.2v-38.6h11v38.6h48.6v9.5H1079.6z M1133.3,1772.8c-7.6,16-24.3,30.4-51.7,35.7v-9.6
			c27.9-6.2,46.1-24.5,46.1-51v-9.9h11v9.9c0,26.5,18.9,44.8,46.3,51v9.6C1157.9,1803.1,1140.9,1788.8,1133.3,1772.8z"/>
		<path class="st7" d="M527.6,1973.2v-9.3h48.8v-18.4h11v18.4h49.2v9.3H527.6z M533.5,2008.5c0-6.6,3.1-11.5,9.1-15
			c8.3-4.9,21.8-7.2,39.8-7.2s31.4,2.3,39.6,7.2c6,3.5,9.2,8.4,9.2,15c0,6.5-3.2,11.5-9.2,15.2c-8.3,4.9-21.6,6.9-39.6,6.9
			s-31.5-2-39.8-6.9C536.6,2020,533.5,2015,533.5,2008.5z M535.9,1916.5v-9.3h92.5v9.3h-41v0.7c0,13.8,23.4,22.2,42.5,23.7v9.3
			c-19.2-1.6-39.4-8.8-47.9-19.7c-8.7,11.1-28.9,18.4-48,19.7v-9.3c18.9-1.2,42.5-10,42.5-23.7v-0.7H535.9z M544.4,2008.5
			c0,3.1,1.6,5.7,4.7,7.6c6,3.7,17,5.4,33.1,5.4s27.2-1.8,33.1-5.4c3.2-1.9,4.7-4.5,4.7-7.6c0-3-1.5-5.5-4.7-7.6
			c-6-3.7-17-5.4-33.1-5.4s-27.2,1.8-33.1,5.4C546,2002.9,544.4,2005.5,544.4,2008.5z"/>
		<path class="st7" d="M663.9,1963c0-22.7,2.7-39.5,10.8-48.7c4.7-5.5,11.6-8.5,20.2-8.5c8.4,0,15.4,3,20.2,8.5
			c8.3,9.2,10.8,26,10.8,48.7c0,22.6-2.6,39.4-10.8,48.7c-4.7,5.7-11.8,8.3-20.2,8.3c-8.5,0-15.4-2.6-20.2-8.3
			C666.6,2002.4,663.9,1985.6,663.9,1963z M715,1963c0-20.6-1.9-35.3-8-42.3c-2.8-3.5-7-5.4-12.2-5.4c-5,0-9.2,1.9-12.3,5.4
			c-5.8,7-7.8,21.8-7.8,42.3c0,20.4,2,35.3,7.8,42.5c3.1,3.5,7.3,5.3,12.3,5.3c5.1,0,9.3-1.8,12.2-5.3
			C713.1,1998.3,715,1983.4,715,1963z M761.4,1905.8v120.9h-11v-120.9H761.4z"/>
		<path class="st7" d="M869.2,1983.6c-4.5,16-18.7,28.9-35,34.9v-10c15.3-6.9,29.6-20.6,29.6-54v-47.3h10.8v47.3
			c0,33.4,14.5,46.7,29.5,54v10C888,2012.2,873.9,1999.4,869.2,1983.6z M936,1905.8v120.9h-11v-120.9H936z"/>
		<path class="st7" d="M966.9,1923.8v-8.9h29.4V1902h10.7v12.9h28.8v8.9H966.9z M970.7,1954.2c0-6.2,2.6-11.2,7.2-14.9
			c5.4-4.5,13.8-6.9,23.5-6.9c9.7,0,18.1,2.4,23.5,6.9c4.6,3.7,7.2,8.7,7.2,14.9c0,6.2-2.6,11.4-7.2,14.9c-5.4,4.5-13.8,7-23.5,7
			c-9.7,0-18.1-2.6-23.5-7C973.2,1965.6,970.7,1960.4,970.7,1954.2z M979,2028.2v-40.4h90v40.4H979z M981.2,1954.2
			c0,3.4,1.5,6.1,3.8,8.1c3.7,3.4,9.7,5,16.4,5c6.6,0,12.7-1.6,16.4-5c2.3-2,3.8-4.7,3.8-8.1c0-3.4-1.5-6.1-3.8-8.1
			c-3.7-3.2-9.7-5-16.4-5c-6.6,0-12.7,1.8-16.4,5C982.7,1948.1,981.2,1950.8,981.2,1954.2z M1058.2,1997.2H990v21.6h68.2V1997.2z
			 M1069,1978.3h-10.8v-25.8h-21.9v-9.3h21.9v-37.3h10.8V1978.3z"/>
		<path class="st7" d="M1103.6,1908h65.1v9.5h-27.2v38.1c0,31,13.9,46,28.1,52.9v10c-15.4-6.1-28.4-19.3-33.7-34
			c-5,14.6-18.5,28.1-33.7,34v-10c13.8-6.6,28.3-21.9,28.3-52.9v-38.1h-26.9V1908z M1201.2,1905.8v120.9h-11v-120.9H1201.2z"/>
		<path class="st7" d="M734.1,2067.6v9.7c-14.6,0-21,8.1-21,58.8c0,51,6.4,59,21,59v9.7c-21.9,0-32.2-10.7-32.2-68.7
			C701.9,2078.3,712.2,2067.6,734.1,2067.6z"/>
		<path class="st7" d="M761.9,2148.1v40.6h-11.8v-106.1h39.9c21.5,0,33.3,12.4,33.3,32.7s-11.8,32.7-33.3,32.7H761.9z M788.9,2137.8
			c15,0,22.7-8.5,22.7-22.5c0-14.1-7.7-22.5-22.7-22.5h-26.9v44.9H788.9z"/>
		<path class="st7" d="M840.8,2188.6v-106.1h38.7c20.8,0,31.4,9.9,31.4,27.6c0,12.9-6.6,21.2-16.8,23.5
			c12.9,2.3,19.9,11.9,19.9,25.7c0,19.5-11,29.2-32.7,29.2H840.8z M876.9,2129c15,0,22.3-5.7,22.3-18c0-12.4-7.3-18.1-22.3-18.1
			h-24.3v36.1H876.9z M878.5,2139.3h-26v39.2h26c17,0,23.7-6.6,23.7-19.6C902.2,2145.8,895.6,2139.3,878.5,2139.3z"/>
		<path class="st7" d="M920.9,2082.6h73.7v10.3h-31v95.8h-11.8v-95.8h-31V2082.6z"/>
		<path class="st7" d="M1002.7,2204.9v-9.7c14.6,0,20.8-8,20.8-59c0-50.7-6.2-58.8-20.8-58.8v-9.7c21.8,0,32.1,10.7,32.1,68.6
			C1034.8,2194.2,1024.5,2204.9,1002.7,2204.9z"/>
	</g>
	<g>
		<path class="st7" d="M2667.7,1738.1h61.4v9.5h-25.3v8.7c0,20.4,12.9,31.1,27.5,34.5v9.7c-14.6-3.1-27.1-11.8-32.6-23.1
			c-5.5,11.6-18,21.9-33,24.8v-9.7c15-3.4,27.3-15.4,27.3-36.1v-8.7h-25.3V1738.1z M2720.5,1860.7c-14.7,0-28.4-2-37.2-7.8
			c-6.2-3.9-10-9.6-10-17.2c0-7.6,3.8-13.3,10-17.3c8.8-5.7,22.5-8,37.2-8c14.7,0,28.5,2.3,37.3,8c6.1,4.1,10,9.7,10,17.3
			c0,7.6-3.9,13.3-10,17.2C2749.1,1858.7,2735.3,1860.7,2720.5,1860.7z M2720.5,1819.9c-12.6,0-23.9,1.9-30.6,6.1
			c-3.5,2.4-5.7,5.7-5.7,9.7c0,3.9,2.2,7.2,5.7,9.6c6.6,4.2,18,6.1,30.6,6.1c12.6,0,24.1-1.9,30.6-6.1c3.8-2.4,6-5.7,6-9.6
			c0-4.1-2.2-7.3-6-9.7C2744.6,1821.8,2733.1,1819.9,2720.5,1819.9z M2765.2,1805.6h-10.8v-33h-27.2v-9.5h27.2v-26.4h10.8V1805.6z"
			/>
		<path class="st7" d="M2797.8,1761.1v-9.5h20.7v-18.7h11v18.7h20v9.5H2797.8z M2800.5,1812.2c0-17.6,3.4-29.5,10.7-35.3
			c3.5-2.7,7.8-4.2,12.9-4.2c5.1,0,9.5,1.5,12.9,4.2c7.3,5.8,10.8,17.7,10.8,35.3c0,17.7-3.5,29.5-10.8,35.3
			c-3.4,2.8-7.7,4.1-12.9,4.1c-5,0-9.3-1.2-12.9-4.1C2803.9,1841.7,2800.5,1829.9,2800.5,1812.2z M2810.9,1812.2
			c0,14.6,2.2,23.3,6.2,27.3c1.9,2,4.2,3,6.9,3c2.7,0,5.1-0.9,6.9-3c4.1-4.1,6.2-12.7,6.2-27.3c0-14.6-2.2-23.3-6.2-27.3
			c-1.8-2-4.2-2.8-6.9-2.8c-2.7,0-5,0.8-6.9,2.8C2813.1,1788.9,2810.9,1797.6,2810.9,1812.2z M2899.1,1857.8h-10.4v-61.7h-16.2v60.3
			h-10.3v-119h10.3v49.2h16.2v-49.9h10.4V1857.8z"/>
		<path class="st7" d="M2932.8,1738.1h61.4v9.5h-25.3v14.7c0,20.6,12.9,31.1,27.5,34.6v9.6c-14.6-3-27.1-11.6-32.6-23
			c-5.5,11.5-18,21.8-33,24.6v-9.6c15-3.4,27.3-15.4,27.3-36.3v-14.7h-25.3V1738.1z M3032.6,1858.3h-92.3v-39.6h11v30.3h81.3V1858.3
			z M3030.3,1821h-10.8v-84.3h10.8V1821z"/>
		<path class="st7" d="M3105.8,1738.1h61.5v9.5h-25.4v8.7c0,20.4,13,31.1,27.6,34.5v9.7c-14.6-3.1-27.1-11.8-32.7-23.1
			c-5.5,11.6-18,21.9-33,24.8v-9.7c15-3.4,27.3-15.4,27.3-36.1v-8.7h-25.3V1738.1z M3111.2,1835.7c0-7,3.4-12.6,9.1-16.5
			c8.4-6,21.8-8.8,37.7-8.8s29.4,2.8,37.6,8.8c5.7,3.9,9.1,9.5,9.1,16.5s-3.4,12.6-9.1,16.6c-8.3,5.8-21.6,8.4-37.6,8.4
			s-29.4-2.6-37.7-8.4C3114.6,1848.3,3111.2,1842.8,3111.2,1835.7z M3122.2,1835.7c0,3.8,2,7.2,5.8,9.7c5.8,4.1,16.4,6,30,6
			c13.5,0,24.1-1.9,30.2-6c3.7-2.6,5.5-6,5.5-9.7c0-3.9-1.9-7.3-5.5-9.7c-6.1-4.1-16.6-6.1-30.2-6.1c-13.7,0-24.2,2-30,6.1
			C3124.2,1828.4,3122.2,1831.8,3122.2,1835.7z M3201.6,1736.7v28.1h18.5v9.6h-18.5v31.1h-10.8v-68.9H3201.6z"/>
		<path class="st7" d="M3236.6,1852.4v-9.5h48.2v-38.6h11v38.6h48.6v9.5H3236.6z M3290.3,1772.8c-7.6,16-24.3,30.4-51.7,35.7v-9.6
			c27.9-6.2,46.1-24.5,46.1-51v-9.9h11v9.9c0,26.5,18.9,44.8,46.3,51v9.6C3314.9,1803.1,3297.9,1788.8,3290.3,1772.8z"/>
		<path class="st7" d="M2560.5,1916.6h-46.4v-9.5h57.2v7.2c0,36.9-23.3,55.5-60.3,59.2v-9.2c20.3-2.6,35.6-9.7,43.6-23.1
			c-5.8,1.6-13.8,2.4-23.1,2.4h-17.3v-9.3h17.7c11.2,0,21-0.8,26.8-3.1v0.3C2559.8,1927,2560.5,1922,2560.5,1916.6z M2521.6,2028.2
			v-45.3h90v45.3H2521.6z M2600.8,1992.2h-68.2v26.6h68.2V1992.2z M2611.6,1973.6h-10.8v-30.2h-25.8v-9.6h25.8v-28h10.8V1973.6z"/>
		<path class="st7" d="M2643.2,1996.6v-9.6h107.7v9.6h-24.3v31.9h-10.7v-31.9h-37.2v31.9H2668v-31.9H2643.2z M2723.7,1954.9h22.9
			v9.6h-99.2v-9.6h18.8v-38.1h-16.5v-9.6h94.6v9.6h-16.5v14.2C2727.8,1939.6,2726.3,1948.7,2723.7,1954.9z M2677.1,1916.7v38.1h36.3
			c2.4-6.2,3.7-15.2,3.7-23.1v-15H2677.1z"/>
		<path class="st7" d="M2791,1957.9h41.4v9.5H2791v41.7h33.4c10.1,0,20-1.1,26.6-4.1v9.1c-6.5,3.2-16.6,4.3-27.1,4.3h-43.7V1908
			h56.8v9.5H2791V1957.9z M2876.3,1905.8v121.1h-11v-61.1h-25.4v-9.6h25.4v-50.3H2876.3z"/>
		<path class="st7" d="M3000.9,1933.5v-16.1h-46v-9.5h56.8v24.5c0,45.9-17.9,76.3-57.6,86.8v-10.1
			C2985.6,1999.7,3000.9,1973.3,3000.9,1933.5z M3050.9,1905.8v120.9h-11v-120.9H3050.9z"/>
		<path class="st7" d="M3095.4,1931.5h36.7v-24.3h10.7v67.5h-58v-67.5h10.7V1931.5z M3102.6,1989.4v28.7h80.2v9.3h-91v-38H3102.6z
			 M3132.1,1965.3v-24.5h-36.7v24.5H3132.1z M3180.5,1905.8v34.5h18.5v9.6h-18.5v41h-10.8v-85.1H3180.5z"/>
		<path class="st7" d="M3291.3,1983.6c-4.5,16-18.7,28.9-35,34.9v-10c15.3-6.9,29.6-20.6,29.6-54v-47.3h10.8v47.3
			c0,33.4,14.5,46.7,29.5,54v10C3310.1,2012.2,3296,1999.4,3291.3,1983.6z M3358.1,1905.8v120.9h-11v-120.9H3358.1z"/>
		<path class="st7" d="M3389,1923.8v-8.9h29.4V1902h10.7v12.9h28.8v8.9H3389z M3392.8,1954.2c0-6.2,2.6-11.2,7.2-14.9
			c5.4-4.5,13.8-6.9,23.5-6.9s18.1,2.4,23.5,6.9c4.6,3.7,7.2,8.7,7.2,14.9c0,6.2-2.6,11.4-7.2,14.9c-5.4,4.5-13.8,7-23.5,7
			s-18.1-2.6-23.5-7C3395.3,1965.6,3392.8,1960.4,3392.8,1954.2z M3401.1,2028.2v-40.4h90v40.4H3401.1z M3403.3,1954.2
			c0,3.4,1.5,6.1,3.8,8.1c3.7,3.4,9.7,5,16.4,5c6.6,0,12.7-1.6,16.4-5c2.3-2,3.8-4.7,3.8-8.1c0-3.4-1.5-6.1-3.8-8.1
			c-3.7-3.2-9.7-5-16.4-5c-6.6,0-12.7,1.8-16.4,5C3404.8,1948.1,3403.3,1950.8,3403.3,1954.2z M3480.3,1997.2h-68.2v21.6h68.2
			V1997.2z M3491.1,1978.3h-10.8v-25.8h-21.9v-9.3h21.9v-37.3h10.8V1978.3z"/>
		<path class="st7" d="M2867.1,2067.6v9.7c-14.6,0-21,8.1-21,58.8c0,51,6.4,59,21,59v9.7c-21.9,0-32.2-10.7-32.2-68.7
			C2834.9,2078.3,2845.2,2067.6,2867.1,2067.6z"/>
		<path class="st7" d="M2880.1,2135.6c0-30.3,9.1-54.8,40.3-54.8c24.1,0,37.9,14.6,39.2,36.7H2948c-1.2-16.2-10.6-26.4-27.6-26.4
			c-22.3,0-28.5,17.3-28.5,44.5c0,28.1,7,44.5,28.5,44.5c17,0,26.4-10,27.6-26.2h11.6c-1.4,22-15.1,36.5-39.2,36.5
			C2889,2190.4,2880.1,2166.2,2880.1,2135.6z"/>
		<path class="st7" d="M2979.7,2188.6v-106.1h38.7c20.8,0,31.4,9.9,31.4,27.6c0,12.9-6.6,21.2-16.8,23.5
			c12.9,2.3,19.9,11.9,19.9,25.7c0,19.5-11,29.2-32.7,29.2H2979.7z M3015.8,2129c15,0,22.3-5.7,22.3-18c0-12.4-7.3-18.1-22.3-18.1
			h-24.3v36.1H3015.8z M3017.4,2139.3h-26v39.2h26c17,0,23.7-6.6,23.7-19.6C3041.1,2145.8,3034.4,2139.3,3017.4,2139.3z"/>
		<path class="st7" d="M3059.7,2082.6h73.7v10.3h-31v95.8h-11.8v-95.8h-31V2082.6z"/>
		<path class="st7" d="M3141.6,2204.9v-9.7c14.6,0,20.8-8,20.8-59c0-50.7-6.2-58.8-20.8-58.8v-9.7c21.8,0,32.1,10.7,32.1,68.6
			C3173.6,2194.2,3163.3,2204.9,3141.6,2204.9z"/>
	</g>
	<g>
		<path class="st7" d="M4813,1738.1h61.4v9.5h-25.3v8.7c0,20.4,12.9,31.1,27.5,34.5v9.7c-14.6-3.1-27.1-11.8-32.6-23.1
			c-5.5,11.6-18,21.9-33,24.8v-9.7c15-3.4,27.3-15.4,27.3-36.1v-8.7H4813V1738.1z M4865.9,1860.7c-14.7,0-28.4-2-37.2-7.8
			c-6.2-3.9-10-9.6-10-17.2c0-7.6,3.8-13.3,10-17.3c8.8-5.7,22.5-8,37.2-8s28.5,2.3,37.3,8c6.1,4.1,10,9.7,10,17.3
			c0,7.6-3.9,13.3-10,17.2C4894.5,1858.7,4880.7,1860.7,4865.9,1860.7z M4865.9,1819.9c-12.6,0-23.9,1.9-30.6,6.1
			c-3.5,2.4-5.7,5.7-5.7,9.7c0,3.9,2.2,7.2,5.7,9.6c6.6,4.2,18,6.1,30.6,6.1s24.1-1.9,30.6-6.1c3.8-2.4,6-5.7,6-9.6
			c0-4.1-2.2-7.3-6-9.7C4890,1821.8,4878.5,1819.9,4865.9,1819.9z M4910.6,1805.6h-10.8v-33h-27.2v-9.5h27.2v-26.4h10.8V1805.6z"/>
		<path class="st7" d="M4943.2,1761.1v-9.5h20.7v-18.7h11v18.7h20v9.5H4943.2z M4945.9,1812.2c0-17.6,3.4-29.5,10.7-35.3
			c3.5-2.7,7.8-4.2,12.9-4.2c5.1,0,9.5,1.5,12.9,4.2c7.3,5.8,10.8,17.7,10.8,35.3c0,17.7-3.5,29.5-10.8,35.3
			c-3.4,2.8-7.7,4.1-12.9,4.1c-5,0-9.3-1.2-12.9-4.1C4949.2,1841.7,4945.9,1829.9,4945.9,1812.2z M4956.3,1812.2
			c0,14.6,2.2,23.3,6.2,27.3c1.9,2,4.2,3,6.9,3s5.1-0.9,6.9-3c4.1-4.1,6.2-12.7,6.2-27.3c0-14.6-2.2-23.3-6.2-27.3
			c-1.8-2-4.2-2.8-6.9-2.8s-5,0.8-6.9,2.8C4958.4,1788.9,4956.3,1797.6,4956.3,1812.2z M5044.5,1857.8h-10.4v-61.7h-16.2v60.3h-10.3
			v-119h10.3v49.2h16.2v-49.9h10.4V1857.8z"/>
		<path class="st7" d="M5078.2,1738.1h61.4v9.5h-25.3v14.7c0,20.6,12.9,31.1,27.5,34.6v9.6c-14.6-3-27.1-11.6-32.6-23
			c-5.5,11.5-18,21.8-33,24.6v-9.6c15-3.4,27.3-15.4,27.3-36.3v-14.7h-25.3V1738.1z M5178,1858.3h-92.3v-39.6h11v30.3h81.3V1858.3z
			 M5175.7,1821h-10.8v-84.3h10.8V1821z"/>
		<path class="st7" d="M5251.2,1738.1h61.5v9.5h-25.4v8.7c0,20.4,13,31.1,27.6,34.5v9.7c-14.6-3.1-27.1-11.8-32.7-23.1
			c-5.5,11.6-18,21.9-33,24.8v-9.7c15-3.4,27.3-15.4,27.3-36.1v-8.7h-25.3V1738.1z M5256.6,1835.7c0-7,3.4-12.6,9.1-16.5
			c8.4-6,21.8-8.8,37.7-8.8s29.4,2.8,37.6,8.8c5.7,3.9,9.1,9.5,9.1,16.5s-3.4,12.6-9.1,16.6c-8.3,5.8-21.6,8.4-37.6,8.4
			s-29.4-2.6-37.7-8.4C5260,1848.3,5256.6,1842.8,5256.6,1835.7z M5267.5,1835.7c0,3.8,2,7.2,5.8,9.7c5.8,4.1,16.4,6,30,6
			c13.5,0,24.1-1.9,30.2-6c3.7-2.6,5.5-6,5.5-9.7c0-3.9-1.9-7.3-5.5-9.7c-6.1-4.1-16.6-6.1-30.2-6.1c-13.7,0-24.2,2-30,6.1
			C5269.6,1828.4,5267.5,1831.8,5267.5,1835.7z M5346.9,1736.7v28.1h18.5v9.6h-18.5v31.1h-10.8v-68.9H5346.9z"/>
		<path class="st7" d="M5382,1852.4v-9.5h48.2v-38.6h11v38.6h48.6v9.5H5382z M5435.7,1772.8c-7.6,16-24.3,30.4-51.7,35.7v-9.6
			c27.9-6.2,46.1-24.5,46.1-51v-9.9h11v9.9c0,26.5,18.9,44.8,46.3,51v9.6C5460.3,1803.1,5443.2,1788.8,5435.7,1772.8z"/>
		<path class="st7" d="M4657.8,1939.6c0-11.9,3.7-21.1,10-27.1c5.3-4.9,12.6-7.6,21.4-7.6c8.8,0,16.1,2.7,21.2,7.6
			c6.5,6,10.1,15.2,10.1,27.1c0,12-3.7,21.2-10.1,27.2c-5.1,5-12.4,7.6-21.2,7.6c-8.8,0-16.1-2.6-21.4-7.6
			C4661.5,1960.8,4657.8,1951.6,4657.8,1939.6z M4759.3,2027.4H4667v-39.6h11v30.3h81.3V2027.4z M4668.4,1939.6
			c0,8.7,2.3,15.4,6.6,19.9c3.5,3.5,8.3,5.4,14.2,5.4c6,0,10.7-1.9,14.2-5.4c4.2-4.5,6.5-11.2,6.5-19.9s-2.3-15.4-6.5-19.9
			c-3.5-3.4-8.3-5.3-14.2-5.3c-6,0-10.7,1.9-14.2,5.3C4670.7,1924.2,4668.4,1931,4668.4,1939.6z M4757,1990.1h-10.8v-84.3h10.8
			V1990.1z"/>
		<path class="st7" d="M4803.8,1957.9h41.4v9.5h-41.4v41.7h33.4c10.1,0,20-1.1,26.6-4.1v9.1c-6.5,3.2-16.6,4.3-27.1,4.3h-43.7V1908
			h56.8v9.5h-46.1V1957.9z M4889.1,1905.8v121.1h-11v-61.1h-25.4v-9.6h25.4v-50.3H4889.1z"/>
		<path class="st7" d="M4954.9,1968.8h-31.1v-62.4h10.6v53h21c7.4,0,14.9-0.9,20.7-3v9.1C4970.3,1967.9,4962.6,1968.8,4954.9,1968.8
			z M4975.4,2005.3c-8.4,11.5-26.6,20.8-49.6,22.9v-9.3c24.3-2.7,44.4-15,44.4-31.5v-6.1h10.8v6.1c0,16.5,19.5,28.7,44.4,31.5v9.3
			C5001.9,2026.2,4983.9,2016.7,4975.4,2005.3z M4960.5,1936v-9.5h24.8v-20h10.4v67.9h-10.4V1936H4960.5z M5013.4,1979.4v-73.6h10.6
			v73.6H5013.4z"/>
		<path class="st7" d="M5146.3,1933.5v-16.1h-46v-9.5h56.8v24.5c0,45.9-17.9,76.3-57.6,86.8v-10.1
			C5131,1999.7,5146.3,1973.3,5146.3,1933.5z M5196.3,1905.8v120.9h-11v-120.9H5196.3z"/>
		<path class="st7" d="M5240.8,1931.5h36.7v-24.3h10.7v67.5h-58v-67.5h10.7V1931.5z M5248,1989.4v28.7h80.2v9.3h-91v-38H5248z
			 M5277.5,1965.3v-24.5h-36.7v24.5H5277.5z M5325.9,1905.8v34.5h18.5v9.6h-18.5v41h-10.8v-85.1H5325.9z"/>
		<path class="st7" d="M5436.7,1983.6c-4.5,16-18.7,28.9-35,34.9v-10c15.3-6.9,29.6-20.6,29.6-54v-47.3h10.8v47.3
			c0,33.4,14.5,46.7,29.5,54v10C5455.5,2012.2,5441.4,1999.4,5436.7,1983.6z M5503.5,1905.8v120.9h-11v-120.9H5503.5z"/>
		<path class="st7" d="M5534.3,1923.8v-8.9h29.4V1902h10.7v12.9h28.8v8.9H5534.3z M5538.1,1954.2c0-6.2,2.6-11.2,7.2-14.9
			c5.4-4.5,13.8-6.9,23.5-6.9s18.1,2.4,23.5,6.9c4.6,3.7,7.2,8.7,7.2,14.9c0,6.2-2.6,11.4-7.2,14.9c-5.4,4.5-13.8,7-23.5,7
			s-18.1-2.6-23.5-7C5540.7,1965.6,5538.1,1960.4,5538.1,1954.2z M5546.5,2028.2v-40.4h90v40.4H5546.5z M5548.7,1954.2
			c0,3.4,1.5,6.1,3.8,8.1c3.7,3.4,9.7,5,16.4,5s12.7-1.6,16.4-5c2.3-2,3.8-4.7,3.8-8.1c0-3.4-1.5-6.1-3.8-8.1c-3.7-3.2-9.7-5-16.4-5
			s-12.7,1.8-16.4,5C5550.2,1948.1,5548.7,1950.8,5548.7,1954.2z M5625.7,1997.2h-68.2v21.6h68.2V1997.2z M5636.5,1978.3h-10.8
			v-25.8h-21.9v-9.3h21.9v-37.3h10.8V1978.3z"/>
		<path class="st7" d="M5043.1,2067.6v9.7c-14.6,0-21,8.1-21,58.8c0,51,6.4,59,21,59v9.7c-21.9,0-32.2-10.7-32.2-68.7
			C5010.9,2078.3,5021.1,2067.6,5043.1,2067.6z"/>
		<path class="st7" d="M5070.9,2188.6h-11.8v-106.1h11.8V2188.6z"/>
		<path class="st7" d="M5094.5,2188.6v-106.1h38.7c20.8,0,31.4,9.9,31.4,27.6c0,12.9-6.6,21.2-16.8,23.5
			c12.9,2.3,19.9,11.9,19.9,25.7c0,19.5-11,29.2-32.7,29.2H5094.5z M5130.6,2129c15,0,22.3-5.7,22.3-18c0-12.4-7.3-18.1-22.3-18.1
			h-24.3v36.1H5130.6z M5132.2,2139.3h-26v39.2h26c17,0,23.7-6.6,23.7-19.6C5155.9,2145.8,5149.2,2139.3,5132.2,2139.3z"/>
		<path class="st7" d="M5174.5,2082.6h73.7v10.3h-31v95.8h-11.8v-95.8h-31V2082.6z"/>
		<path class="st7" d="M5256.4,2204.9v-9.7c14.6,0,20.8-8,20.8-59c0-50.7-6.2-58.8-20.8-58.8v-9.7c21.8,0,32.1,10.7,32.1,68.6
			C5288.4,2194.2,5278.1,2204.9,5256.4,2204.9z"/>
	</g>
	<g>
		<path class="st7" d="M7073.6,1760.6v-16.1h-47.1v-9.5h57.9v24.5c0,46.3-18.4,76.2-58.7,86.8v-10.1
			C7058.1,1826.8,7073.6,1800.7,7073.6,1760.6z M7120.7,1732.9v50.9h19.7v9.5h-19.7v60.7h-10.8v-121.1H7120.7z"/>
		<path class="st7" d="M7159.1,1734.3h61.4v9.5h-25.3v8.7c0,20.4,12.9,31.1,27.5,34.5v9.7c-14.6-3.1-27.1-11.8-32.6-23.1
			c-5.5,11.6-18,21.9-33,24.8v-9.7c15-3.4,27.3-15.4,27.3-36.1v-8.7h-25.3V1734.3z M7212,1857c-14.7,0-28.4-2-37.2-7.8
			c-6.2-3.9-10-9.6-10-17.2c0-7.6,3.8-13.3,10-17.3c8.8-5.7,22.5-8,37.2-8s28.5,2.3,37.3,8c6.1,4.1,10,9.7,10,17.3
			c0,7.6-3.9,13.3-10,17.2C7240.5,1854.9,7226.7,1857,7212,1857z M7212,1816.1c-12.6,0-23.9,1.9-30.6,6.1c-3.5,2.4-5.7,5.7-5.7,9.7
			c0,3.9,2.2,7.2,5.7,9.6c6.6,4.2,18,6.1,30.6,6.1s24.1-1.9,30.6-6.1c3.8-2.4,6-5.7,6-9.6c0-4.1-2.2-7.3-6-9.7
			C7236.1,1818,7224.6,1816.1,7212,1816.1z M7256.6,1801.8h-10.8v-33h-27.2v-9.5h27.2v-26.4h10.8V1801.8z"/>
		<path class="st7" d="M7290.2,1790.1c0-28.4,2.7-44.2,10.1-51.9c3.4-3.4,8-5.3,13.8-5.3c6,0,10.7,1.9,13.9,5.3
			c6.9,7,9.6,20.7,10,44.4h16.4v-49h10.6v119h-10.6V1792h-16.2c-0.1,27.2-2.7,42.5-10.1,49.9c-3.2,3.5-8,5.1-13.9,5.1
			c-5.8,0-10.4-1.6-13.8-5.1C7292.9,1834.4,7290.2,1818.5,7290.2,1790.1z M7300.7,1790.1c0,25.3,1.5,38.8,6.4,44.6
			c1.9,2,4.2,3.1,7,3.1c3,0,5.4-1.1,7.2-3.1c4.9-5.8,6.5-19.3,6.5-44.6c0-25.2-1.6-38.8-6.5-44.5c-1.8-2.2-4.2-3.2-7.2-3.2
			c-2.8,0-5.1,1.1-7,3.2C7302.2,1751.3,7300.7,1765,7300.7,1790.1z M7390.5,1853.8H7380v-120.9h10.6V1853.8z"/>
		<path class="st7" d="M7454.5,1810.7c-4.5,16-18.7,28.9-35,34.9v-10c15.3-6.9,29.6-20.6,29.6-54v-47.3h10.8v47.3
			c0,33.4,14.5,46.7,29.5,54v10C7473.3,1839.4,7459.3,1826.5,7454.5,1810.7z M7521.4,1732.9V1854h-11v-66.7h-30v-9.6h30v-44.8
			H7521.4z"/>
		<path class="st7" d="M7057.9,1971h-41.5v37.2h48.2v9.5h-107.7v-9.5h48.6V1971h-42.1v-66.8h94.6V1971z M7047.1,1961.4v-47.8h-72.9
			v47.8H7047.1z"/>
		<path class="st7" d="M7103.6,1948.7h36.3v-44.5h10.8v110.4h-57.9v-110.4h10.8V1948.7z M7139.9,2005.2v-47.1h-36.3v47.1H7139.9z
			 M7187,1902v50.9h19.7v9.5H7187v60.7h-10.8V1902H7187z"/>
		<path class="st7" d="M7223.8,1929.7c0-9.6,3.9-16.9,10.1-21.9c5.4-4.3,12.9-6.6,21.2-6.6s15.8,2.3,21.2,6.6
			c6.2,5,10.1,12.3,10.1,21.9c0,9.5-3.9,16.9-10.1,21.9c-5.4,4.3-12.9,6.6-21.2,6.6s-15.8-2.3-21.2-6.6
			C7227.7,1946.6,7223.8,1939.2,7223.8,1929.7z M7243.9,2001.4v14.2h80.6v8.8H7233v-31.9h79.1v-14.1H7233v-8.9h90v31.9H7243.9z
			 M7234.3,1929.7c0,6.2,2.3,11.1,6.2,14.5c3.7,3.2,8.7,4.9,14.6,4.9c5.8,0,11-1.6,14.6-4.9c3.8-3.4,6.1-8.3,6.1-14.5
			c0-6.2-2.3-11.1-6.1-14.5c-3.7-3.1-8.8-4.9-14.6-4.9c-6,0-11,1.8-14.6,4.9C7236.6,1918.6,7234.3,1923.5,7234.3,1929.7z
			 M7322.9,1959.8h-10.8V1902h10.8V1959.8z"/>
		<path class="st7" d="M7396,1968.4v-9.3h109v9.3H7396z M7401.8,1923.9c0-6,2.7-10.6,7.6-14.1c8.3-5.7,22.7-7.8,41.3-7.8
			c18.4,0,33,2.2,41.3,7.8c4.7,3.5,7.6,8.1,7.6,14.1c0,6.1-2.8,10.7-7.6,14.1c-8.3,5.8-22.9,8.1-41.3,8.1c-18.5,0-33-2.3-41.3-8.1
			C7404.5,1934.6,7401.8,1930,7401.8,1923.9z M7401.8,2004.7c0-6.6,3.1-11.5,9.1-15c8.3-4.9,21.8-7.2,39.8-7.2s31.4,2.3,39.6,7.2
			c6,3.5,9.2,8.4,9.2,15c0,6.5-3.2,11.5-9.2,15.2c-8.3,4.9-21.6,6.9-39.6,6.9s-31.5-2-39.8-6.9
			C7404.9,2016.2,7401.8,2011.2,7401.8,2004.7z M7412.7,1923.9c0,3,1.4,5.4,4.2,7.3c6,3.9,17.6,5.5,33.7,5.5s27.9-1.6,33.5-5.5
			c3-1.9,4.3-4.3,4.3-7.3c0-2.8-1.4-5.1-4.3-7c-5.7-4.1-17.5-5.7-33.5-5.7s-27.7,1.6-33.7,5.7
			C7414.1,1918.8,7412.7,1921.1,7412.7,1923.9z M7412.7,2004.7c0,3.1,1.6,5.7,4.7,7.6c6,3.7,17,5.4,33.1,5.4s27.2-1.8,33.1-5.4
			c3.2-1.9,4.7-4.5,4.7-7.6c0-3-1.5-5.5-4.7-7.6c-6-3.7-17-5.4-33.1-5.4s-27.2,1.8-33.1,5.4
			C7414.4,1999.1,7412.7,2001.7,7412.7,2004.7z"/>
		<path class="st7" d="M7562.9,1979.8c-4.5,16-18.7,28.9-35,34.9v-10c15.3-6.9,29.6-20.6,29.6-54v-47.3h10.8v47.3
			c0,33.4,14.5,46.7,29.5,54v10C7581.7,2008.5,7567.6,1995.6,7562.9,1979.8z M7629.7,1902v120.9h-11V1902H7629.7z"/>
		<path class="st7" d="M7144.3,2063.8v9.7c-14.6,0-21,8.1-21,58.8c0,51,6.4,59,21,59v9.7c-21.9,0-32.2-10.7-32.2-68.7
			C7112.1,2074.5,7122.4,2063.8,7144.3,2063.8z"/>
		<path class="st7" d="M7206,2184.8l-33.8-81.2v81.2h-11.8v-106.1h13.1l38.7,92.8l38.8-92.8h13.1v106.1h-11.8v-81.2l-33.8,81.2H7206
			z"/>
		<path class="st7" d="M7287.7,2184.8v-106.1h38.7c20.8,0,31.4,9.9,31.4,27.6c0,12.9-6.6,21.2-16.8,23.5
			c12.9,2.3,19.9,11.9,19.9,25.7c0,19.5-11,29.2-32.7,29.2H7287.7z M7323.8,2125.2c15,0,22.3-5.7,22.3-18c0-12.4-7.3-18.1-22.3-18.1
			h-24.3v36.1H7323.8z M7325.4,2135.5h-26v39.2h26c17,0,23.7-6.6,23.7-19.6C7349.1,2142,7342.5,2135.5,7325.4,2135.5z"/>
		<path class="st7" d="M7367.8,2078.8h73.7v10.3h-31v95.8h-11.8v-95.8h-31V2078.8z"/>
		<path class="st7" d="M7449.6,2201.1v-9.7c14.6,0,20.8-8,20.8-59c0-50.7-6.2-58.8-20.8-58.8v-9.7c21.8,0,32.1,10.7,32.1,68.6
			C7481.6,2190.4,7471.4,2201.1,7449.6,2201.1z"/>
	</g>
</g>
</svg>
