<?xml version="1.0" encoding="utf-8"?>
<!-- Generator: Adobe Illustrator 23.0.0, SVG Export Plug-In . SVG Version: 6.00 Build 0)  -->
<svg version="1.1" id="레이어_1" xmlns="http://www.w3.org/2000/svg" xmlns:xlink="http://www.w3.org/1999/xlink" x="0px"
	 y="0px" viewBox="0 0 200 79" style="enable-background:new 0 0 200 79;" xml:space="preserve">
<style type="text/css">
	.st0{opacity:0.33;fill:#FFFFFF;enable-background:new    ;}
	.st1{fill:url(#SVGID_1_);}
	.st2{fill:url(#SVGID_2_);}
	.st3{font-family:'KoPubWorldDotumMedium';}
	.st4{font-size:21px;}
	.st5{font-size:12px;}
	.st6{fill:#361521;}
	.st7{font-family:'KoPubWorldDotumBold';}
	.st8{font-size:10px;}
	.st9{fill:url(#SVGID_3_);}
	.st10{fill:url(#SVGID_4_);}
	.st11{fill:url(#SVGID_5_);}
	.st12{fill:url(#SVGID_6_);}
	.st13{fill:url(#SVGID_7_);}
	.st14{fill:url(#SVGID_8_);}
</style>
<title>wp_down</title>
<g>
	<g id="레이어_1-2">
		<path class="st0" d="M18.3,1.6h163.1c9,0,16.2,7.3,16.2,16.2v43.1c0,9-7.3,16.2-16.2,16.2H18.3c-9,0-16.2-7.3-16.2-16.2V17.8
			C2.1,8.8,9.4,1.6,18.3,1.6z"/>
		
			<linearGradient id="SVGID_1_" gradientUnits="userSpaceOnUse" x1="0" y1="2395.8149" x2="200" y2="2395.8149" gradientTransform="matrix(1 0 0 1 0 -2356.3149)">
			<stop  offset="0" style="stop-color:#EEC65F"/>
			<stop  offset="0.23" style="stop-color:#A76F2A"/>
			<stop  offset="0.33" style="stop-color:#E2B755"/>
			<stop  offset="0.46" style="stop-color:#F9F2B7"/>
			<stop  offset="0.58" style="stop-color:#E2B755"/>
			<stop  offset="0.69" style="stop-color:#8F5D21"/>
			<stop  offset="1" style="stop-color:#E2B755"/>
		</linearGradient>
		<path class="st1" d="M183,0H17C7.6,0,0,7.6,0,17v45c0,9.4,7.6,17,17,17h166c9.4,0,17-7.6,17-17V17C200,7.6,192.4,0,183,0z
			 M194.5,60c0,7.7-6.3,14-14,14h-161c-7.7,0-14-6.3-14-14V19c0-7.7,6.3-14,14-14h161c7.7,0,14,6.3,14,14V60z"/>
		
			<linearGradient id="SVGID_2_" gradientUnits="userSpaceOnUse" x1="70.1" y1="2417.165" x2="129.9" y2="2417.165" gradientTransform="matrix(1 0 0 1 0 -2356.3149)">
			<stop  offset="0" style="stop-color:#EEC65F"/>
			<stop  offset="0.23" style="stop-color:#A76F2A"/>
			<stop  offset="0.33" style="stop-color:#E2B755"/>
			<stop  offset="0.46" style="stop-color:#F9F2B7"/>
			<stop  offset="0.58" style="stop-color:#E2B755"/>
			<stop  offset="0.69" style="stop-color:#8F5D21"/>
			<stop  offset="1" style="stop-color:#E2B755"/>
		</linearGradient>
		<path class="st2" d="M74.3,52.7h51.4c2.3,0,4.2,1.9,4.2,4.2v7.9c0,2.3-1.9,4.2-4.2,4.2H74.3c-2.3,0-4.2-1.9-4.2-4.2v-7.9
			C70.1,54.5,72,52.7,74.3,52.7z"/>
		<text transform="matrix(1 0 0 1 41.79 31.7)" class="st3 st4">Whi</text>
		<text transform="matrix(1 0 0 1 79.25 31.7)" class="st3 st4">t</text>
		<text transform="matrix(1 0 0 1 86.35 31.7)" class="st3 st4">e </text>
		<text transform="matrix(1 0 0 1 104.24 31.7)" class="st3 st4">P</text>
		<text transform="matrix(1 0 0 1 116.82 31.7)" class="st3 st4">aper</text>
		<text transform="matrix(1 0 0 1 74.81 43.7)" class="st3 st5">(</text>
		<text transform="matrix(1 0 0 1 77.53 43.7)" class="st3 st5">Chinese)</text>
		<text transform="matrix(1 0 0 1 76.76 64.3398)" class="st6 st7 st8">D</text>
		<text transform="matrix(1 0 0 1 84.14 64.3398)" class="st6 st7 st8">o</text>
		<text transform="matrix(1 0 0 1 89.8 64.3398)" class="st6 st7 st8">wn</text>
		<text transform="matrix(1 0 0 1 103.94 64.3398)" class="st6 st7 st8">l</text>
		<text transform="matrix(1 0 0 1 106.31 64.3398)" class="st6 st7 st8">oad</text>
	</g>
</g>
<g>
	<g>
		
			<linearGradient id="SVGID_3_" gradientUnits="userSpaceOnUse" x1="-82.9952" y1="-555.2953" x2="-10.9392" y2="-528.3734" gradientTransform="matrix(1 0 0 -1 0 -600.0001)">
			<stop  offset="0" style="stop-color:#EEC65F"/>
			<stop  offset="0.23" style="stop-color:#A76F2A"/>
			<stop  offset="0.33" style="stop-color:#E2B755"/>
			<stop  offset="0.46" style="stop-color:#F9F2B7"/>
			<stop  offset="0.58" style="stop-color:#E2B755"/>
			<stop  offset="0.69" style="stop-color:#8F5D21"/>
			<stop  offset="1" style="stop-color:#E2B755"/>
		</linearGradient>
		<path class="st9" d="M-79.7-74c0,0,23,21.5,47.2,15.6c0,0-0.9,29.2-33.8,34.4c0,0,21.8-7.9,24.2-28.6
			C-42.1-52.6-69.9-52.2-79.7-74z"/>
		<g>
			
				<linearGradient id="SVGID_4_" gradientUnits="userSpaceOnUse" x1="-80.9506" y1="-560.7679" x2="-8.8943" y2="-533.8457" gradientTransform="matrix(1 0 0 -1 0 -600.0001)">
				<stop  offset="0" style="stop-color:#EEC65F"/>
				<stop  offset="0.23" style="stop-color:#A76F2A"/>
				<stop  offset="0.33" style="stop-color:#E2B755"/>
				<stop  offset="0.46" style="stop-color:#F9F2B7"/>
				<stop  offset="0.58" style="stop-color:#E2B755"/>
				<stop  offset="0.69" style="stop-color:#8F5D21"/>
				<stop  offset="1" style="stop-color:#E2B755"/>
			</linearGradient>
			<path class="st10" d="M-62.5-37c-1.3-0.9-2.6-1.9-3.7-3.1c-2.2-2.2-4-4.8-5.2-7.6c-2.2-1.4-4.1-3-5.8-4.7
				c1.1,5.8,3.8,11.1,8.1,15.3c1.3,1.3,2.8,2.5,4.3,3.6C-64.2-34.4-63.4-35.6-62.5-37z"/>
			
				<linearGradient id="SVGID_5_" gradientUnits="userSpaceOnUse" x1="-83.0864" y1="-555.0514" x2="-11.0305" y2="-528.1295" gradientTransform="matrix(1 0 0 -1 0 -600.0001)">
				<stop  offset="0" style="stop-color:#EEC65F"/>
				<stop  offset="0.23" style="stop-color:#A76F2A"/>
				<stop  offset="0.33" style="stop-color:#E2B755"/>
				<stop  offset="0.46" style="stop-color:#F9F2B7"/>
				<stop  offset="0.58" style="stop-color:#E2B755"/>
				<stop  offset="0.69" style="stop-color:#8F5D21"/>
				<stop  offset="1" style="stop-color:#E2B755"/>
			</linearGradient>
			<path class="st11" d="M-27.6-78.7c-5.6-5.6-13-8.6-20.8-8.6c-7.9,0-15.3,3.1-20.8,8.6c-1.6,1.6-3,3.3-4.2,5.2
				c1,0.7,2.1,1.6,3.5,2.5c1-1.7,2.3-3.3,3.7-4.7c4.7-4.8,11.1-7.4,17.8-7.4s13.1,2.6,17.8,7.4c4.8,4.8,7.4,11.1,7.4,17.8
				s-2.6,13.1-7.4,17.8c-2.3,2.3-5,4.2-8,5.4c-1.9,2.2-4,4.2-6.4,5.9c0,0-0.1,0-0.1,0.1c6.6-0.7,12.7-3.7,17.5-8.4
				c5.6-5.6,8.6-13,8.6-20.8C-19-65.7-22.1-73.1-27.6-78.7z"/>
		</g>
		
			<linearGradient id="SVGID_6_" gradientUnits="userSpaceOnUse" x1="-82.7015" y1="-556.0815" x2="-10.6454" y2="-529.1594" gradientTransform="matrix(1 0 0 -1 0 -600.0001)">
			<stop  offset="0" style="stop-color:#EEC65F"/>
			<stop  offset="0.23" style="stop-color:#A76F2A"/>
			<stop  offset="0.33" style="stop-color:#E2B755"/>
			<stop  offset="0.46" style="stop-color:#F9F2B7"/>
			<stop  offset="0.58" style="stop-color:#E2B755"/>
			<stop  offset="0.69" style="stop-color:#8F5D21"/>
			<stop  offset="1" style="stop-color:#E2B755"/>
		</linearGradient>
		<path class="st12" d="M-81.9-66.4c0,0,11,16.9,34.6,17.4c0,0-3.1,14.2-17.3,20.5c0,0,7-6.5,8.9-16.4C-55.7-44.8-76.7-49-81.9-66.4
			z"/>
		
			<linearGradient id="SVGID_7_" gradientUnits="userSpaceOnUse" x1="-84.1607" y1="-552.1758" x2="-12.1047" y2="-525.2538" gradientTransform="matrix(1 0 0 -1 0 -600.0001)">
			<stop  offset="0" style="stop-color:#EEC65F"/>
			<stop  offset="0.23" style="stop-color:#A76F2A"/>
			<stop  offset="0.33" style="stop-color:#E2B755"/>
			<stop  offset="0.46" style="stop-color:#F9F2B7"/>
			<stop  offset="0.58" style="stop-color:#E2B755"/>
			<stop  offset="0.69" style="stop-color:#8F5D21"/>
			<stop  offset="1" style="stop-color:#E2B755"/>
		</linearGradient>
		<path class="st13" d="M-51.9-62.1c0,0,5.1-7.6,16.6-7.2c2.5,0.1,5.2,0.4,8.1,2.3c0,0-4.4-0.5-4.9,4.8
			C-39.3-59.4-51.9-62.1-51.9-62.1z"/>
	</g>
	
		<linearGradient id="SVGID_8_" gradientUnits="userSpaceOnUse" x1="-74.1" y1="-586.4001" x2="-26.8" y2="-586.4001" gradientTransform="matrix(1 0 0 -1 0 -600.0001)">
		<stop  offset="0" style="stop-color:#EEC65F"/>
		<stop  offset="0.23" style="stop-color:#A76F2A"/>
		<stop  offset="0.33" style="stop-color:#E2B755"/>
		<stop  offset="0.46" style="stop-color:#F9F2B7"/>
		<stop  offset="0.58" style="stop-color:#E2B755"/>
		<stop  offset="0.69" style="stop-color:#8F5D21"/>
		<stop  offset="1" style="stop-color:#E2B755"/>
	</linearGradient>
	<path class="st14" d="M-67.5-8.5h-6.6v-9.9h1.9v8.2h4.7V-8.5L-67.5-8.5z M-57.5-8.5H-65v-9.9h7.4v1.7h-5.5v2.2h5.1v1.7h-5.1v2.5
		h5.6V-8.5z M-46.4-8.5h-2.1l-0.9-2.7h-3.3l-1,2.7h-2l3.8-9.9h1.9L-46.4-8.5z M-50-13l-1-3l-1.1,3H-50z M-37-16.7h-5.2v2.2h4.5v1.7
		h-4.5v4.2H-44v-9.9h7V-16.7z M-26.8-11.4c0,1.1-0.4,1.9-1.3,2.5c-0.7,0.4-1.6,0.6-2.6,0.6c-0.8,0-1.5-0.1-2-0.4
		c-0.3-0.1-0.6-0.3-1-0.6c-0.4-0.4-0.6-0.8-0.8-1.2c-0.1-0.4-0.2-1-0.2-1.7h1.8c0,0.8,0.2,1.4,0.7,1.7c0.4,0.3,0.9,0.4,1.5,0.4
		s1-0.1,1.3-0.2c0.5-0.2,0.8-0.6,0.8-1.1c0-0.4-0.1-0.7-0.4-0.9c-0.2-0.1-0.7-0.3-1.3-0.5l-1.9-0.4c-0.8-0.2-1.3-0.5-1.7-0.9
		s-0.5-0.9-0.5-1.6c0-0.9,0.3-1.6,0.8-2.2c0.6-0.6,1.5-1,2.7-1c1.6,0,2.7,0.4,3.3,1.2c0.4,0.6,0.6,1.3,0.6,2.3h-1.8
		c0-0.7-0.2-1.2-0.7-1.5c-0.4-0.3-0.8-0.4-1.3-0.4s-0.9,0.1-1.1,0.2c-0.4,0.2-0.7,0.6-0.7,1.1c0,0.3,0.1,0.5,0.3,0.6
		c0.1,0.1,0.3,0.2,0.6,0.3l2.7,0.6c0.7,0.2,1.3,0.5,1.7,0.9C-27-12.8-26.8-12.2-26.8-11.4z"/>
</g>
</svg>
