<?xml version="1.0" encoding="utf-8"?>
<!-- Generator: Adobe Illustrator 23.0.0, SVG Export Plug-In . SVG Version: 6.00 Build 0)  -->
<svg version="1.1" id="레이어_1" xmlns="http://www.w3.org/2000/svg" xmlns:xlink="http://www.w3.org/1999/xlink" x="0px"
	 y="0px" viewBox="0 0 200 79" style="enable-background:new 0 0 200 79;" xml:space="preserve">
<style type="text/css">
	.st0{fill:#FFD000;}
	.st1{fill:#FFFFFF;}
	.st2{filter:url(#Adobe_OpacityMaskFilter);}
	.st3{opacity:0.4;mask:url(#SVGID_1_);}
	.st4{filter:url(#Adobe_OpacityMaskFilter_1_);}
	.st5{opacity:0.4;mask:url(#SVGID_2_);}
	.st6{filter:url(#Adobe_OpacityMaskFilter_2_);}
	.st7{opacity:0.4;}
	.st8{font-family:'Poppins-Regular';}
	.st9{font-size:16.4949px;}
	.st10{font-family:'KoPubWorldDotumMedium';}
	.st11{font-size:9.4257px;}
	.st12{fill:#361521;}
	.st13{font-size:11.2359px;}
	.st14{font-family:'KoPubWorldDotumBold';}
</style>
<title>wp_down</title>
<g>
	<g id="레이어_1-2">
		<g>
			
				<image style="overflow:visible;opacity:0.4;" width="191" height="81" xlink:href="1558A8BB.png"  transform="matrix(1 0 0 1 7.748 -0.252)">
			</image>
			<g>
				<path class="st0" d="M158.7,72.8H42c-17.7,0-32-14.3-32-32v-7.6c0-17.7,14.3-32,32-32h116.7c17.7,0,32,14.3,32,32v7.6
					C190.7,58.5,176.4,72.8,158.7,72.8z"/>
			</g>
		</g>
		<g>
			<g>
				<g>
					<path class="st1" d="M67.8,47.5h64.3c2.9,0,5.3,2.4,5.3,5.3v9.9c0,2.9-2.4,5.3-5.3,5.3H67.8c-2.9,0-5.3-2.4-5.3-5.3v-9.9
						C62.6,49.8,65,47.5,67.8,47.5z"/>
				</g>
				<defs>
					<filter id="Adobe_OpacityMaskFilter" filterUnits="userSpaceOnUse" x="62.6" y="47.5" width="74.8" height="20.4">
						
							<feColorMatrix  type="matrix" values="-1 0 0 0 1  0 -1 0 0 1  0 0 -1 0 1  0 0 0 1 0" color-interpolation-filters="sRGB" result="source"/>
					</filter>
				</defs>
				<mask maskUnits="userSpaceOnUse" x="62.6" y="47.5" width="74.8" height="20.4" id="SVGID_1_">
					<g class="st2">
						<image style="overflow:visible;" width="80" height="25" xlink:href="1558A8BE.jpg"  transform="matrix(1 0 0 1 60 45)">
						</image>
					</g>
				</mask>
				<g class="st3">
					<path d="M67.8,47.5h64.3c2.9,0,5.3,2.4,5.3,5.3v9.9c0,2.9-2.4,5.3-5.3,5.3H67.8c-2.9,0-5.3-2.4-5.3-5.3v-9.9
						C62.6,49.8,65,47.5,67.8,47.5z"/>
				</g>
			</g>
			<defs>
				<filter id="Adobe_OpacityMaskFilter_1_" filterUnits="userSpaceOnUse" x="62.6" y="47.5" width="74.8" height="20.4">
					
						<feColorMatrix  type="matrix" values="-1 0 0 0 1  0 -1 0 0 1  0 0 -1 0 1  0 0 0 1 0" color-interpolation-filters="sRGB" result="source"/>
				</filter>
			</defs>
			<mask maskUnits="userSpaceOnUse" x="62.6" y="47.5" width="74.8" height="20.4" id="SVGID_2_">
				<g class="st4">
					<image style="overflow:visible;" width="80" height="25" xlink:href="1558A8BD.jpg"  transform="matrix(1 0 0 1 60 45)">
					</image>
				</g>
			</mask>
			<g class="st5">
				<g>
					<path d="M67.8,47.5h64.3c2.9,0,5.3,2.4,5.3,5.3v9.9c0,2.9-2.4,5.3-5.3,5.3H67.8c-2.9,0-5.3-2.4-5.3-5.3v-9.9
						C62.6,49.8,65,47.5,67.8,47.5z"/>
				</g>
				<defs>
					<filter id="Adobe_OpacityMaskFilter_2_" filterUnits="userSpaceOnUse" x="62.6" y="47.5" width="74.8" height="20.4">
						
							<feColorMatrix  type="matrix" values="-1 0 0 0 1  0 -1 0 0 1  0 0 -1 0 1  0 0 0 1 0" color-interpolation-filters="sRGB" result="source"/>
					</filter>
				</defs>
				<mask maskUnits="userSpaceOnUse" x="62.6" y="47.5" width="74.8" height="20.4" id="SVGID_2_">
					<g class="st6">
						<image style="overflow:visible;" width="80" height="25" xlink:href="1558A8BA.jpg"  transform="matrix(1 0 0 1 60 45)">
						</image>
					</g>
				</mask>
				<g class="st7">
					<path d="M67.8,47.5h64.3c2.9,0,5.3,2.4,5.3,5.3v9.9c0,2.9-2.4,5.3-5.3,5.3H67.8c-2.9,0-5.3-2.4-5.3-5.3v-9.9
						C62.6,49.8,65,47.5,67.8,47.5z"/>
				</g>
			</g>
		</g>
		<text transform="matrix(1 0 0 1 54.2773 31.2654)" class="st8 st9">Whi</text>
		<text transform="matrix(1 0 0 1 83.7012 31.2654)" class="st8 st9">t</text>
		<text transform="matrix(1 0 0 1 89.2783 31.2654)" class="st8 st9">e </text>
		<text transform="matrix(1 0 0 1 103.3301 31.2654)" class="st8 st9">P</text>
		<text transform="matrix(1 0 0 1 113.2109 31.2654)" class="st8 st9">aper</text>
		<text transform="matrix(1 0 0 1 82.5703 40.6907)" class="st10 st11">(</text>
		<text transform="matrix(1 0 0 1 85.4922 40.6907)" class="st8 st11">K</text>
		<text transform="matrix(1 0 0 1 91.0454 40.6907)" class="st8 st11">o</text>
		<text transform="matrix(1 0 0 1 96.2217 40.6907)" class="st8 st11">r</text>
		<text transform="matrix(1 0 0 1 99.1436 40.6907)" class="st8 st11">ean)</text>
		<text transform="matrix(1 0 0 1 71.8877 61.6376)" class="st12 st8 st13">D</text>
		<text transform="matrix(1 0 0 1 80.1797 61.6376)" class="st12 st8 st13">o</text>
		<text transform="matrix(1 0 0 1 86.54 61.6376)" class="st12 st8 st13">wn</text>
		<text transform="matrix(1 0 0 1 102.4268 61.6376)" class="st12 st14 st13">l</text>
		<text transform="matrix(1 0 0 1 105.0898 61.6376)" class="st12 st8 st13">oad</text>
	</g>
</g>
</svg>
